<?xml version="1.0" encoding="UTF-8"?>
<svg width="16px" height="16px" viewBox="0 0 16 16" version="1.1" xmlns="http://www.w3.org/2000/svg" xmlns:xlink="http://www.w3.org/1999/xlink">
    <title>特典_多图</title>
    <g id="Symbols" stroke="none" stroke-width="1" fill="none" fill-rule="evenodd">
        <g id="4.-特殊模块/详情页/特典/图标/漫画" fill="#FFFFFF">
            <path d="M13.5,3 C13.7761424,3 14,3.22385763 14,3.5 L14,14 C14,14.5522847 13.5522847,15 13,15 L4.5,15 C4.22385763,15 4,14.7761424 4,14.5 L4,14 L12.5,14 C12.7761424,14 13,13.7761424 13,13.5 L13,3 L13.5,3 Z M11.5,1 C11.7761424,1 12,1.22385763 12,1.5 L12,12.5 C12,12.7761424 11.7761424,13 11.5,13 L2.5,13 C2.22385763,13 2,12.7761424 2,12.5 L2,6 L7,6 L7,1 L11.5,1 Z M6,1 L6,5 L2,5 L6,1 Z" id="形状结合"></path>
        </g>
    </g>
</svg>