<svg height="16" viewBox="0 0 16 16" width="16" xmlns="http://www.w3.org/2000/svg"><g fill="none" fill-rule="evenodd"><path d="m0 0h16v16h-16z" fill="#d8d8d8" opacity="0"/><g fill="#fff"><path d="m12.5 2c.2761424 0 .5.22385763.5.5v9c0 .2761424-.2238576.5-.5.5h-11c-.27614237 0-.5-.2238576-.5-.5v-9c0-.27614237.22385763-.5.5-.5zm-8.540357 2c-.58983609 0-1.0638968.18424382-1.42219636.55273698-.35829955.36849317-.53744664.88918222-.53744664 1.56208278v1.77036048c0 .6755708.18432101 1.1969274.55296857 1.56408545.36864755.36715804.85823003.55073431 1.46876212.55073431.48118208 0 .8737535-.08411131 1.17772604-.25233645.30397255-.16822514.53615235-.36849016.69654637-.60080107v-2.27102803h-1.95576251v.78104138h.86146682v1.1775701c-.06467501.08544769-.15780562.15420535-.27939464.20627503-.12158902.05206969-.28844804.07810414-.50058208.07810414-.29750504 0-.52645114-.10146761-.68684516-.30440587-.16039403-.20293827-.24058984-.5126815-.24058984-.92923899v-1.77837116c0-.40854677.07890233-.7142847.23670935-.91722297.15780703-.20293826.37769876-.30440587.65968181-.30440587.26128703 0 .45660263.06942521.58595265.2082777.12935002.1388525.19402406.36047912.19402406.66488652h1.02832751l.00776097-.02403204c.010348-.55540999-.14098925-.98330958-.4540163-1.28371162-.31302705-.30040203-.77738665-.4506008-1.39309274-.4506008zm3.87660069.08411215h-1.09041521v5.8317757h1.09041521zm4.16375631 0h-3.22856034v5.8317757h1.09429569v-2.43925234h1.79278235v-.8811749h-1.79278235v-1.62616822h2.13426465z"/><path d="m14 12v-8h.5c.2761424 0 .5.22385763.5.5v9c0 .2761424-.2238576.5-.5.5h-11c-.27614237 0-.5-.2238576-.5-.5v-.5h10c.5522847 0 1-.4477153 1-1z"/></g></g></svg>