<?xml version="1.0" encoding="UTF-8"?>
<svg width="16px" height="16px" viewBox="0 0 16 16" version="1.1" xmlns="http://www.w3.org/2000/svg" xmlns:xlink="http://www.w3.org/1999/xlink">
    <title>特典_视频</title>
    <g id="Symbols" stroke="none" stroke-width="1" fill="none" fill-rule="evenodd">
        <g id="4.-特殊模块/详情页/特典/图标/视频" fill="#FFFFFF">
            <path d="M14.5,2 C14.7761424,2 15,2.22385763 15,2.5 L15,13.5 C15,13.7761424 14.7761424,14 14.5,14 L1.5,14 C1.22385763,14 1,13.7761424 1,13.5 L1,2.5 C1,2.22385763 1.22385763,2 1.5,2 L14.5,2 Z M6,4.8705185 C5.72385763,4.8705185 5.5,5.09437612 5.5,5.3705185 L5.5,5.3705185 L5.5,10.6294815 C5.5,10.7180088 5.5235042,10.804949 5.56811055,10.881417 C5.70725069,11.119943 6.01340956,11.2005111 6.25193551,11.061371 L6.25193551,11.061371 L10.7596181,8.43188945 C10.8341199,8.38843006 10.8961126,8.32643733 10.939572,8.25193551 C11.0787122,8.01340956 10.998144,7.70725069 10.7596181,7.56811055 L10.7596181,7.56811055 L6.25193551,4.93862905 C6.17546748,4.8940227 6.08852732,4.8705185 6,4.8705185 Z" id="形状结合"></path>
        </g>
    </g>
</svg>