<svg height="24" viewBox="0 0 24 24" width="24" xmlns="http://www.w3.org/2000/svg"><g fill="#32aaff" fill-rule="evenodd"><path d="m12 2.2c-5.41239055 0-9.8 4.38760945-9.8 9.8l.00659148.3623619c.0570386 1.5657412.48312082 3.0704754 1.23385814 4.4132157l.04255038.0724224-.18057111 1.9889934c-.00492946.0542241-.00739607.1086014-.00739607.1630066l.00596695.147628c.07509236.9250586.84962613 1.652372 1.79403305 1.652372h2.59196718l-.17994006-.0884954c1.37753266.7117816 2.90905586 1.0884954 4.49294006 1.0884954 5.4123905 0 9.8-4.3876095 9.8-9.8 0-5.41239055-4.3876095-9.8-9.8-9.8zm0 1.6c4.5287349 0 8.2 3.67126505 8.2 8.2 0 4.5287349-3.6712651 8.2-8.2 8.2-1.3268018 0-2.60666993-.3148134-3.75846204-.9099531l-.17266412-.0892169-2.97361772-.00083c-.11068025 0-.2002233-.0895431-.2002233-.2l.00082136-.0181071.2278547-2.5049268-.13692271-.225328c-.77244287-1.2711772-1.18678617-2.7300001-1.18678617-4.2516381 0-4.52873495 3.67126505-8.2 8.2-8.2z" fill-rule="nonzero"/><circle cx="12.2" cy="12.2" r="1.2"/><circle cx="7.8" cy="12.2" r="1.2"/><circle cx="16.6" cy="12.2" r="1.2"/></g></svg>