<svg height="12" viewBox="0 0 12 12" width="12" xmlns="http://www.w3.org/2000/svg"><path d="m3.5625 9.37181749h.675v-5.2875h-.675zm3.7875-6h2.8125c.3375 0 .675.15.9.45.1875.2625.225.6375.15.9375l-1.2 3.975c-.1875.75-.825 1.27500001-1.6125 1.31250001h-6.3c-.4875.0375-.9375-.22500001-1.1625-.63750001-.1125-.225-.1875-.45-.1875-.675v-4.0125c0-.4875.2625-.9375.675-1.1625.225-.1125.45-.15.675-.1875h1.6875l1.8375-2.2875c.375-.4125 1.05-.45 1.4625-.075.225.225.375.525.3375.8625z" fill="#d2d3d9" fill-rule="evenodd" transform="translate(0 0)"/></svg>