<svg height="24" viewBox="0 0 24 24" width="24" xmlns="http://www.w3.org/2000/svg"><path d="m18 12.8c2.5957383 0 4.7 2.1042617 4.7 4.7s-2.1042617 4.7-4.7 4.7-4.7-2.1042617-4.7-4.7 2.1042617-4.7 4.7-4.7zm-10.00000001-8.6c.4418278 0 .8.3581722.8.8 0 .40784105-.30518814.74440158-.6996497.79376687l-.1003503.00623313h-1c-1.16219921 0-2.11391524.90118563-2.19447618 2.04288499l-.00552382.15711501v9c0 1.1621992.90118563 2.1139152 2.04288499 2.1944762l.15711501.0055238 5.76788741.0003925c.1890276.5820417.4724762 1.1215182.8322714 1.6003551l-6.60015881-.0007476c-2.03309823 0-3.69327957-1.596647-3.79505546-3.6044525l-.00494454-.1955475v-9c0-2.03309823 1.59664702-3.69327958 3.60445251-3.79505546l.19554749-.00494454zm12.83255191 11.6059042-4.5266477 4.5266477c.4952171.2968177 1.07473.4674481 1.6940958.4674481 1.8225397 0 3.3-1.4774603 3.3-3.3 0-.6193658-.1706304-1.1988787-.4674481-1.6940958zm-2.8325519-1.6059042c-1.8225397 0-3.3 1.4774603-3.3 3.3 0 .6193658.1706304 1.1988787.4674481 1.6940958l4.5266477-4.5266477c-.4952171-.2968177-1.07473-.4674481-1.6940958-.4674481zm-6-12c.407841 0 .7444016.30518815.7937669.6996497l.0062331.1003503-.001 10.069 2.6353146-2.6346854c.2840176-.2840177.7284589-.3098375 1.0416445-.0774594l.0897263.0774594c.2840177.2840176.3098375.7284589.0774594 1.0416445l-.0774594.0897263-4 4c-.2840176.2840177-.7284589.3098375-1.0416445.0774594l-.0897263-.0774594-4.00000003-4c-.31241944-.3124194-.31241944-.8189514 0-1.1313708.28401766-.2840177.72845893-.3098375 1.04164452-.0774594l.08972633.0774594 2.63331458 2.6346854.001-10.069c0-.4418278.3581722-.8.8-.8zm5 2c2.0330982 0 3.6932796 1.59664702 3.7950555 3.60445251l.0049445.19554749-.0002347 4.7649393c-.489547-.2900859-1.0279527-.5064139-1.5999105-.6336776l.0001452-4.1312617c0-1.16219921-.9011856-2.11391524-2.042885-2.19447618l-.157115-.00552382h-1c-.4418278 0-.8-.3581722-.8-.8 0-.40784104.3051881-.74440158.6996497-.79376686l.1003503-.00623314z" fill="#fff"/></svg>