<svg height="24" viewBox="0 0 24 24" width="24" xmlns="http://www.w3.org/2000/svg"><path d="m12 2c5.5228475 0 10 4.4771525 10 10s-4.4771525 10-10 10-10-4.4771525-10-10 4.4771525-10 10-10zm0 1.6c-4.6391919 0-8.4 3.7608081-8.4 8.4s3.7608081 8.4 8.4 8.4 8.4-3.7608081 8.4-8.4-3.7608081-8.4-8.4-8.4zm-3.56568542 4.83431458c.31241943-.31241944.81895141-.31241944 1.13137084 0l2.43431458 2.43468542 2.4343146-2.43468542c.2840176-.28401767.7284589-.30983746 1.0416445-.07745937l.0897263.07745937c.3124195.31241943.3124195.81895141 0 1.13137084l-2.4346854 2.43431458 2.4346854 2.4343146c.2840177.2840176.3098375.7284589.0774594 1.0416445l-.0774594.0897263c-.3124194.3124195-.8189514.3124195-1.1313708 0l-2.4343146-2.4346854-2.43431458 2.4346854c-.28401766.2840177-.72845892.3098375-1.04164452.0774594l-.08972632-.0774594c-.31241944-.3124194-.31241944-.8189514 0-1.1313708l2.43468542-2.4343146-2.43468542-2.43431458c-.28401767-.28401766-.30983746-.72845892-.07745937-1.04164452z" fill="#6c6f7e"/></svg>