<svg height="12" viewBox="0 0 12 12" width="12" xmlns="http://www.w3.org/2000/svg"><path d="m10 1c.8284271 0 1.5.67157288 1.5 1.5v6c0 .82842712-.6715729 1.5-1.5 1.5h-1.833l-1.867 1.4c-.15238095.1142857-.3537415.1306122-.52011662.0489796l-.07988338-.0489796-1.867-1.4h-1.833c-.77969612 0-1.42044868-.59488808-1.49313342-1.35553999l-.00686658-.14446001v-6c0-.82842712.67157288-1.5 1.5-1.5zm0 1h-8c-.27614237 0-.5.22385763-.5.5v6c0 .27614237.22385763.5.5.5h2c.10818511 0 .21345191.03508894.3.1l1.7 1.275 1.7-1.275c.06491106-.0486833.14035141-.08059165.21965523-.09350312l.08034477-.00649688h2c.2761424 0 .5-.22385763.5-.5v-6c0-.27614237-.2238576-.5-.5-.5zm-2.5 3c.27614237 0 .5.22385763.5.5s-.22385763.5-.5.5h-3c-.27614237 0-.5-.22385763-.5-.5s.22385763-.5.5-.5z" fill="#90959b"/></svg>