<svg height="24" viewBox="0 0 24 24" width="24" xmlns="http://www.w3.org/2000/svg"><path d="m12 2c5.5228475 0 10 4.4771525 10 10s-4.4771525 10-10 10-10-4.4771525-10-10 4.4771525-10 10-10zm0 1.6c-4.6391919 0-8.4 3.7608081-8.4 8.4s3.7608081 8.4 8.4 8.4 8.4-3.7608081 8.4-8.4-3.7608081-8.4-8.4-8.4zm4.5381382 5.30804794c.2996823.27243841.3449008.72028743.1214322 1.04485334l-.0676183.08523692-5 5.5c-.2619933.2881926-.6881073.3422436-1.0106963.1436235l-.0934033-.0671847-3.00000002-2.5c-.33942152-.2828512-.38528077-.787303-.1024295-1.1267245.25928032-.3111364.70476662-.375599 1.03865477-.1663145l.08806977.063885 2.41085248 2.008577 4.4850479-4.93213824c.2972056-.32692609.8031642-.35101936 1.1300903-.05381382z" fill="#6c6f7e"/></svg>