<svg height="24" viewBox="0 0 24 24" width="24" xmlns="http://www.w3.org/2000/svg"><g fill="none" fill-rule="evenodd"><path d="m.5.5h23v23h-23z" fill="#d8d8d8" opacity="0" stroke="#979797"/><path d="m6 2.2c1.60433931 0 2.97646495.99422491 3.53385678 2.40015457l9.05785372-.00015457c.7731986 0 1.4.62680135 1.4 1.4 0 .37473778-.1501047.73174073-.4132602.99315993l-.1039102.09339967-12.9405401 10.5134404 7.6867615.0003832c.1997027-1.91085 1.815521-3.4003832 3.7792385-3.4003832 2.098682 0 3.8 1.701318 3.8 3.8s-1.701318 3.8-3.8 3.8c-1.6039602 0-2.9758165-.9937551-3.5334615-2.399158l-9.05824896-.000842c-.42158 0-.82071435-.1899762-1.0865596-.5171703-.45710003-.5625847-.40550111-1.3727004.09719347-1.8735153l.10653646-.095874 12.93854013-10.5134404-7.68486693.00062447c-.20016533 1.91036592-1.81576078 3.39937553-3.77913307 3.39937553-2.09868205 0-3.8-1.70131795-3.8-3.8s1.70131795-3.8 3.8-3.8zm12 13.6c-1.2150264 0-2.2.9849736-2.2 2.2s.9849736 2.2 2.2 2.2 2.2-.9849736 2.2-2.2-.9849736-2.2-2.2-2.2zm-12-12c-1.21502645 0-2.2.98497355-2.2 2.2s.98497355 2.2 2.2 2.2 2.2-.98497355 2.2-2.2-.98497355-2.2-2.2-2.2z" fill="#6c727e" fill-rule="nonzero"/></g></svg>