<svg height="16" viewBox="0 0 16 16" width="16" xmlns="http://www.w3.org/2000/svg"><path d="m8 1.32842712c3.3137085 0 6 2.6341165 6 5.88346386 0 1.63665375-.6815135 3.11722312-1.781446 4.18372352l-3.53429708 3.2949035c-.38505931.3589775-.98249287.3579495-1.36631455-.002351l-3.09004348-2.900681c-1.34355122-1.2693295-2.22789889-2.72760665-2.22789889-4.57559502 0-3.24934736 2.6862915-5.88346386 6-5.88346386zm0 1.4c-2.54658931 0-4.6 2.01352793-4.6 4.48346386 0 1.21379141.50642004 2.2714759 1.56663686 3.34079512l.21944137.2140686 2.81692177 2.6442453 3.2409973-3.0204921c.8064459-.78193422 1.2887551-1.81962996 1.3494788-2.93783348l.0065239-.24078344c0-2.46993593-2.0534107-4.48346386-4.6-4.48346386zm0 1.57157288c1.49116882 0 2.7 1.20883118 2.7 2.7s-1.20883118 2.7-2.7 2.7-2.7-1.20883118-2.7-2.7 1.20883118-2.7 2.7-2.7zm0 1.4c-.71797017 0-1.3.58202983-1.3 1.3s.58202983 1.3 1.3 1.3 1.3-.58202983 1.3-1.3-.58202983-1.3-1.3-1.3z" fill="#32aaff"/></svg>