<svg height="24" viewBox="0 0 24 24" width="24" xmlns="http://www.w3.org/2000/svg"><path d="m8 4.2c.4418278 0 .8.3581722.8.8 0 .40784105-.30518815.74440158-.6996497.79376686l-.1003503.00623314h-1c-1.16219921 0-2.11391524.90118563-2.19447619 2.04288498l-.00552381.15711502v9c0 1.1621992.90118563 2.1139152 2.04288498 2.1944762l.15711502.0055238h10c1.1621992 0 2.1139152-.9011856 2.1944762-2.042885l.0055238-.157115v-9c0-1.16219921-.9011856-2.11391524-2.042885-2.19447619l-.157115-.00552381h-1c-.4418278 0-.8-.3581722-.8-.8 0-.40784105.3051881-.74440158.6996497-.79376686l.1003503-.00623314h1c2.0330982 0 3.6932796 1.59664702 3.7950555 3.6044525l.0049445.1955475v9c0 2.0330982-1.596647 3.6932796-3.6044525 3.7950555l-.1955475.0049445h-10c-2.03309824 0-3.69327958-1.596647-3.79505546-3.6044525l-.00494454-.1955475v-9c0-2.03309824 1.59664702-3.69327958 3.6044525-3.79505546l.1955475-.00494454zm4-2c.407841 0 .7444016.30518815.7937669.6996497l.0062331.1003503-.001 10.069 2.6353146-2.6346854c.2840176-.2840177.7284589-.3098375 1.0416445-.0774594l.0897263.0774594c.2840177.2840176.3098375.7284589.0774594 1.0416445l-.0774594.0897263-4 4c-.2840176.2840177-.7284589.3098375-1.0416445.0774594l-.0897263-.0774594-4.00000002-4c-.31241944-.3124194-.31241944-.8189514 0-1.1313708.28401766-.2840177.72845892-.3098375 1.04164452-.0774594l.08972632.0774594 2.63331458 2.6346854.001-10.069c0-.4418278.3581722-.8.8-.8z" fill="#fff"/></svg>