<?xml version="1.0" encoding="UTF-8"?>
<svg width="32px" height="15px" viewBox="0 0 32 15" version="1.1" xmlns="http://www.w3.org/2000/svg" xmlns:xlink="http://www.w3.org/1999/xlink">
    <title>上榜@1x</title>
    <g id="控件" stroke="none" stroke-width="1" fill="none" fill-rule="evenodd">
        <g id="上榜作品/无排名" transform="translate(-10.000000, -13.000000)" fill="#FFEB70" fill-rule="nonzero">
            <g id="编组-16">
                <path d="M25.184,27.056 L25.184,23.776 L18.912,23.776 L18.912,19.936 L24.704,19.936 L24.704,16.72 L18.912,16.72 L18.912,13.328 L14.848,13.328 L14.848,23.776 L10.736,23.776 L11.376,27.056 L25.184,27.056 Z M30.368,27.488 L30.368,18.608 L30.848,18.608 L30.848,20.656 L31.104,25.28 L32.048,25.28 L31.664,18.608 L31.872,18.608 L31.872,15.632 L31.072,15.632 L31.072,13.2 L27.952,13.2 L27.952,15.632 L26.656,15.632 L27.088,18.16 L26.688,26.464 L27.872,26.464 L28.176,19.184 L28.176,18.608 L28.608,18.608 L28.608,27.488 L30.368,27.488 Z M41.024,16.08 L41.024,13.904 L38.464,13.904 L38.624,13.28 L34.512,13.28 L34.512,13.904 L31.904,13.904 L32.384,16.08 L41.024,16.08 Z M34.448,19.76 L34.448,17.664 L34.832,19.12 L38.416,19.12 L38.416,19.76 L40.944,19.76 L40.944,17.28 L39.92,17.28 L40.064,16.512 L37.344,16.512 L37.216,17.28 L35.872,17.28 L35.76,16.512 L33.04,16.512 L33.2,17.28 L32.176,17.28 L32.176,19.76 L34.448,19.76 Z M39.552,27.456 L40.432,26.608 L40.432,22.928 L36.176,22.928 L36.176,22.368 L41.2,22.368 L41.2,20.288 L38,20.288 L38.192,19.6 L34.8,19.6 L34.8,20.288 L31.856,20.288 L32.304,22.368 L33.184,22.368 L33.184,23.088 L31.52,27.312 L34.496,27.312 L35.552,24.848 L37.52,24.848 L37.52,25.52 L35.84,25.52 L36.32,27.456 L39.552,27.456 Z" id="上榜"></path>
            </g>
        </g>
    </g>
</svg>