<svg height="24" viewBox="0 0 24 24" width="24" xmlns="http://www.w3.org/2000/svg"><path d="m12 4.3c.0067904 0 .0135676.0000564.0203312.00016876.0278262.00047263.0555148.00189272.0831362.00426447.0154998.00129323.0305836.00287456.0455816.00473264.0242524.0030557.0489636.00689562.0735572.01150702.0258716.00479868.0509864.01037347.0757918.01672121.0106564.00275153.0219662.00580814.0332376.00903273.0303524.00871345.0596398.01839114.0884042.02914095.0128456.00469515.0257835.00976931.038647.01507651.0758148.03149797.1480213.07061089.2153302.11638845.018537.01226485.0374258.02591815.055989.0401893.0150661.01186029.029531.02351298.0437144.03548866.0413176.03474188.0808624.07300917.1182326.11453162l-.0746274-.07587222c.0211615.01969377.0416105.04014284.0613043.06130427l.0133231.01456795 4.5 5c.4433508.49261198.4034167 1.25135988-.0891953 1.69471068s-1.2513599.4034167-1.6947107-.0891953l-2.4080573-2.6767577.0000103 9.874c0 .6213203-.4721997 1.1323525-1.077307 1.1938045l-.122693.0061955c-.6627417 0-1.2-.5372583-1.2-1.2l-.0000103-9.874-2.40803672 2.6767577c-.41379411.4597712-1.10233402.5252097-1.59281208.1714307l-.10189858-.0822354c-.49261202-.4433508-.53254612-1.2020987-.0891953-1.69471068l4.49999998-5c.0044941-.00499339.0090196-.00993971.0135759-.01483895.019441-.02089043.03989-.0413395.0610515-.06103327.0144563-.01360566.0289452-.02647366.043666-.03892966.0141226-.01170542.0285875-.02335811.0433226-.03467647.0188942-.01481308.037783-.02846638.0569692-.04150181.0666597-.04500698.1388662-.0841199.2150216-.11561933.0125229-.00530574.0254608-.0103799.0384664-.015221.0286044-.01060386.0578918-.02028155.0876535-.02883848.0118621-.00338111.0231719-.00643772.0345161-.00932637.0241176-.00621062.0492324-.01178541.0746295-.01656007.0250681-.00463542.0497793-.00847534.0745687-.01154378.048297-.00603722.0980406-.00915313.148512-.00915313l-.1034674.00443323c.027953-.00240022.0559748-.00382581.0840095-.00427675z" fill="#fa5a57"/></svg>