<?xml version="1.0" encoding="UTF-8"?>
<svg width="24px" height="24px" viewBox="0 0 24 24" version="1.1" xmlns="http://www.w3.org/2000/svg" xmlns:xlink="http://www.w3.org/1999/xlink">
    <title>1. 原子/图标 Icon/顶部导航栏/分享@1x</title>
    <g id="1.-原子/图标-Icon/顶部导航栏/分享" stroke="none" stroke-width="1" fill="none" fill-rule="evenodd">
        <path d="M9,3.7 C9.4418278,3.7 9.8,4.0581722 9.8,4.5 C9.8,4.9418278 9.4418278,5.3 9,5.3 L8,5.3 C6.2326888,5.3 4.8,6.7326888 4.8,8.5 L4.8,16 C4.8,17.7673112 6.2326888,19.2 8,19.2 L15.5,19.2 C17.2673112,19.2 18.7,17.7673112 18.7,16 L18.7,15 C18.7,14.5581722 19.0581722,14.2 19.5,14.2 C19.9418278,14.2 20.3,14.5581722 20.3,15 L20.3,16 C20.3,18.6509668 18.1509668,20.8 15.5,20.8 L8,20.8 C5.3490332,20.8 3.2,18.6509668 3.2,16 L3.2,8.5 C3.2,5.8490332 5.3490332,3.7 8,3.7 L9,3.7 Z M20.2746305,3.2484121 C20.3451059,3.27434565 20.4092446,3.30871928 20.4675008,3.35074052 C20.475339,3.35633479 20.4824281,3.36164419 20.4894474,3.36708654 C20.51358,3.38581307 20.5370002,3.40620238 20.5591663,3.42786929 C20.5612577,3.42991214 20.5634764,3.43210555 20.5656854,3.43431458 L20.5731157,3.44184312 C20.5944158,3.46371046 20.614475,3.4867924 20.6331796,3.51097523 L20.5656854,3.43431458 C20.5964296,3.46505876 20.6241484,3.4976827 20.6488417,3.53181645 C20.6902876,3.58937865 20.7240254,3.65186577 20.7491035,3.71859132 C20.7497109,3.7202677 20.7504671,3.72230688 20.7512148,3.72434849 C20.7613046,3.75105488 20.7714559,3.7845217 20.7793997,3.81883409 C20.7827187,3.83352127 20.7856136,3.84784205 20.7881141,3.86221804 C20.7914261,3.88087819 20.7940565,3.90006023 20.7959948,3.91944617 C20.7975792,3.93548655 20.7987293,3.95189274 20.7993762,3.96831506 C20.7997963,3.97897578 20.8,3.98946411 20.8,4 L20.8,10 C20.8,10.4418278 20.4418278,10.8 20,10.8 C19.5581722,10.8 19.2,10.4418278 19.2,10 L19.2,5.93 L12.5656854,12.5656854 C12.253266,12.8781049 11.746734,12.8781049 11.4343146,12.5656854 C11.1218951,12.253266 11.1218951,11.746734 11.4343146,11.4343146 L18.069,4.799 L14,4.8 C13.5581722,4.8 13.2,4.4418278 13.2,4 C13.2,3.5581722 13.5581722,3.2 14,3.2 L20,3.2 L20.0176053,3.20019253 C20.0393995,3.20066928 20.061178,3.20203141 20.0828821,3.20427894 L20,3.2 C20.0460237,3.2 20.0911397,3.20388642 20.1350377,3.21134897 C20.1501773,3.21398794 20.1654936,3.21705391 20.1807269,3.22057083 C20.1864579,3.22182545 20.1917297,3.22310313 20.1969809,3.22443274 L20.2746305,3.2484121 L20.2746305,3.2484121 Z" id="Combined-Shape" fill="#FFFFFF" fill-rule="nonzero"></path>
    </g>
</svg>