<svg height="12" viewBox="0 0 13 12" width="13" xmlns="http://www.w3.org/2000/svg">
  <path
    d="m3.91573082 6.06779624c.51283584 0 .93550716.38604019.99327227.88337888l.00672773.11662112v2.2485262c0 .55228475-.44771525.99999996-1 .99999996-.51283584 0-.93550716-.38604015-.99327227-.88337883l-.00672773-.11662113v-2.2485262c0-.55228475.44771525-1 1-1zm4.16853836 0c.51283584 0 .93550716.38604019.99327227.88337888l.00672773.11662112v2.2485262c0 .55228475-.44771525.99999996-1 .99999996-.51283584 0-.93550716-.38604015-.99327227-.88337883l-.00672773-.11662113v-2.2485262c0-.55228475.44771525-1 1-1zm-2.08426918-4.38411868c2.25236871 0 4.0911974 1.77057513 4.2005733 3.99581251l.0051471.20990787v2.3026614c0 .16568543-.1343146.3-.30000002.3-.14201608 0-.26098419-.09868009-.29207679-.23121275l-.00792321-.06878725v-2.3026614c0-1.99138438-1.614336-3.60572038-3.60572038-3.60572038-1.92714617 0-3.50117732 1.51186514-3.60072236 3.41422434l-.00499802.19149604v2.3026614c0 .16568543-.13431457.3-.3.3-.14201608 0-.26098418-.09868009-.29207678-.23121275l-.00792322-.06878725v-2.3026614c0-2.32275523 1.88296515-4.20572038 4.20572038-4.20572038z"
    fill="#6c6f7e" transform="translate(.5)" />
</svg>
