<svg height="20" viewBox="0 0 20 20" width="20" xmlns="http://www.w3.org/2000/svg"><path d="m9.9972 3.276c3.3531022 0 6.082 2.70789548 6.082 6.04 0 .9538501-.2579529 1.8375338-.6856961 2.63045-.2489295.4614456-.4927142.7893712-.7029141 1.0213976-.3864112.4168973-.7633898 1.3786933-.7633898 1.9461524l-.0000092.9325836c-.0080139 1.5653638-1.3544499 2.857805-2.933959 2.8534853l-2.069068-.0200717c-1.5702939.0044054-2.84764847-1.2634565-2.8549638-2.8369972v-.93c0-.5657787-.37753479-1.528032-.76884306-1.9511044-.20474662-.2260744-.4485313-.554-.69746081-1.0154456-.42774326-.7929162-.68569613-1.6765999-.68569613-2.63045 0-3.33175664 2.72854819-6.04 6.08-6.04zm0 1.4c-2.58058438 0-4.68 2.08379256-4.68 4.64 0 .7019178.19331951 1.3641834.5178439 1.9657607.18919047.3507061.36821298.5915173.498014.7348973l.12344158.1432661c.56782595.704708 1.01270052 1.8957506 1.01270052 2.7530759l-.00000758.9267424c.00371419.7981031.65293515 1.4424994 1.45977573 1.4402903l2.07294355.0200661c.8129246.0022147 1.5212892-.6777431 1.5252883-1.4570988v-.929c0-.9203026.5102178-2.2220357 1.1311569-2.8918956l.0709218-.0821615c.123821-.1499879.2744187-.3659271.4320774-.6581822.3245244-.6015773.5178439-1.2638429.5178439-1.9657607 0-2.55647424-2.0996855-4.64-4.682-4.64zm.8028025 9.824c.3865979 0 .6999975.3133996.6999975.6999975 0 .386598-.3133996.6999976-.6999975.6999976h-1.60000496c-.38659797 0-.69999754-.3133996-.69999754-.6999976 0-.3865979.31339957-.6999975.69999754-.6999975zm-2.0348025-5.924 1.233 1.224 1.234-1.225c.132348-.13032842.3223029-.18364795.5031402-.14122931.1808374.04241864.3272694.17464374.3878598.35022931l.538 1.602c.0550125.1634485.0275422.3434132-.0737274.4830065-.1012696.1395932-.2638216.2215612-.4362726.2199935l-.001.0010016c-.2307674.0005529-.4360861-.1463909-.51-.3650016l-.263-.783-.998.991c-.2105735.2091058-.55042653.2091058-.761 0l-.999-.99-.262.782c-.09762417.2764317-.39859621.4238155-.67682452.3314361-.27822832-.0923794-.43127714-.3905107-.34417548-.6704361l.538-1.602c.05901301-.17699369.20566443-.31067213.38735191-.35308627.18168749-.04241414.37236863.01251551.50364809.14508627zm-5.97619361-3.56509786.76933415.76214011c.27336003.27080384.27543223.71193581.00462839.98529583-.00076777.00077502-.00153736.00154823-.00230876.00231963-.27374134.27374135-.71724144.27478301-.99226565.00233056l-.76933415-.76214011c-.27336002-.27080384-.27543222-.71193581-.00462839-.98529584l.00230876-.00231963c.27374135-.27374135.71724145-.274783.99226565-.00233055zm15.38469411.32179731c.191706.33204453.0779392.75662823-.2541054.94833423-.0016583.00095747-.0033207.00190807-.0049869.00285179l-.7545564.42735737c-.337204.19098189-.7653242.07436677-.9590899-.2612453-.191706-.33204453-.0779391-.75662823.2541054-.94833423.0016584-.00095747.0033207-.00190807.004987-.00285178l.7545563-.42735737c.337204-.1909819.7653242-.07436677.9590899.26124529zm-8.1582664-4.98937695c.3865979 0 .6999975.31339958.6999975.69999754v.75668242c0 .38659797-.3133996.69999754-.6999975.69999754-.38659799 0-.69999756-.31339957-.69999756-.69999754v-.75668242c0-.38659796.31339957-.69999754.69999756-.69999754z" fill="#32aaff"/></svg>