<?xml version="1.0" encoding="UTF-8"?>
<svg width="12px" height="12px" viewBox="0 0 12 12" version="1.1" xmlns="http://www.w3.org/2000/svg" xmlns:xlink="http://www.w3.org/1999/xlink">
    <title>编组 4</title>
    <g id="页面-1" stroke="none" stroke-width="1" fill="none" fill-rule="evenodd">
        <g id="综合" transform="translate(-122.000000, -323.000000)">
            <g id="编组-3" transform="translate(122.000000, 323.000000)">
                <g id="编组-3备份" transform="translate(2.000000, 2.000000)">
                    <rect id="矩形" stroke="#32AAFF" stroke-width="0.72" x="0.36" y="1.24888889" width="8.28" height="6.39111111" rx="1.8"></rect>
                    <path d="M3.6,5.41404163 L3.6,5.33333333 L3.6,5.33333333 L3.6,4.44444444 L3.6,3.55555556 L3.6,3.47484726 C3.6,3.23432562 3.79498131,3.03934431 4.03550295,3.03934431 C4.12063378,3.03934431 4.20389794,3.06429494 4.275,3.11111111 L4.275,3.11111111 L4.275,3.11111111 L4.95,3.55555556 L5.625,4 C5.87045989,4.16161968 5.93842581,4.49162287 5.77680613,4.73708276 C5.73704313,4.79747282 5.68539005,4.84912589 5.625,4.88888889 L5.625,4.88888889 L5.625,4.88888889 L4.95,5.33333333 L4.275,5.77777778 C4.07411407,5.91004835 3.80403737,5.85442461 3.67176681,5.65353868 C3.62495063,5.58243662 3.6,5.49917246 3.6,5.41404163 Z" id="路径" fill="#32AAFF"></path>
                    <polyline id="路径-2" stroke="#32AAFF" stroke-width="0.72" stroke-linecap="round" stroke-linejoin="bevel" points="2.7 0 4.57435318 1.26010859 6.3 0"></polyline>
                </g>
            </g>
        </g>
    </g>
</svg>