<svg height="16" viewBox="0 0 16 16" width="16" xmlns="http://www.w3.org/2000/svg"><path d="m12 1.5c1.9329966 0 3.5 1.56700338 3.5 3.5v1h-2v-1c0-.82842712-.6715729-1.5-1.5-1.5s-1.5.67157288-1.5 1.5v2h.2180574c.4457594 0 .6074025.04641281.7703655.13356635.1629629.08715355.2908572.21504784.3780107.3780108.0871536.16296296.1335664.32460608.1335664.77036545v3.1541722c0 .8915187-.0928256 1.214805-.2671327 1.5407309s-.4300957.5817145-.7560216.7560216-.6492122.2671327-1.5407309.2671327h-4.8722296c-.89151874 0-1.21480498-.0928256-1.5407309-.2671327-.32592593-.1743071-.5817145-.4300957-.7560216-.7560216-.17430709-.3259259-.2671327-.6492122-.2671327-1.5407309v-3.1541722c0-.44575937.04641281-.60740249.13356635-.77036545.08715355-.16296296.21504784-.29085725.3780108-.3780108.16296296-.08715354.32460608-.13356635.77036545-.13356635h5.2180574v-2c0-1.93299662 1.5670034-3.5 3.5-3.5z" fill="#d2d3d9" fill-rule="evenodd"/></svg>