<svg height="24" viewBox="0 0 24 24" width="24" xmlns="http://www.w3.org/2000/svg"><path d="m11.5 3.2c.4418278 0 .8.3581722.8.8 0 .40784105-.3051881.74440158-.6996497.79376686l-.1003503.00623314h-4.5c-1.16219921 0-2.11391524.90118563-2.19447619 2.04288498l-.00552381.15711502v10c0 1.1621992.90118563 2.1139152 2.04288498 2.1944762l.15711502.0055238h10c1.1621992 0 2.1139152-.9011856 2.1944762-2.042885l.0055238-.157115v-4.5c0-.4418278.3581722-.8.8-.8.407841 0 .7444016.3051881.7937669.6996497l.0062331.1003503v4.5c0 2.0330982-1.596647 3.6932796-3.6044525 3.7950555l-.1955475.0049445h-10c-2.03309824 0-3.69327958-1.596647-3.79505546-3.6044525l-.00494454-.1955475v-10c0-2.03309824 1.59664702-3.69327958 3.6044525-3.79505546l.1955475-.00494454zm8.0656854 1.23431458c.2840177.28401766.3098375.72845892.0774594 1.04164452l-.0774594.08972632-7.5 7.49999998c-.3124194.3124195-.8189514.3124195-1.1313708 0-.2840177-.2840176-.3098375-.7284589-.0774594-1.0416445l.0774594-.0897263 7.5-7.50000002c.3124194-.31241944.8189514-.31241944 1.1313708 0z" fill="#6c6f7e"/></svg>