<svg height="12" viewBox="0 0 12 12" width="12" xmlns="http://www.w3.org/2000/svg"><g fill="none" fill-rule="evenodd" opacity=".7" transform="translate(-1 -1)"><g opacity="0" stroke="#000" stroke-width=".1"><circle cx="7" cy="7" r="5.783333"/><circle cx="7" cy="7" r="2.866667"/><rect height="9.233333" rx="1" width="11.566667" x="1.216667" y="2.383334"/><rect height="10.4" rx="1" width="10.4" x="1.8" y="1.8"/><rect height="11.566667" rx="1" width="9.233333" x="2.383334" y="1.216667"/></g><path d="m7 1.16666667c3.221661 0 5.8333333 2.61167229 5.8333333 5.83333333 0 3.221661-2.6116723 5.8333333-5.8333333 5.8333333-3.22166104 0-5.83333333-2.6116723-5.83333333-5.8333333 0-3.22166104 2.61167229-5.83333333 5.83333333-5.83333333zm0 .93333333c-2.70619527 0-4.9 2.19380473-4.9 4.9s2.19380473 4.9 4.9 4.9 4.9-2.19380473 4.9-4.9-2.19380473-4.9-4.9-4.9zm0 4.08333333c.28994949 0 .525.23505051.525.525v2.91666667c0 .28994949-.23505051.525-.525.525s-.525-.23505051-.525-.525v-2.91666667c0-.28994949.23505051-.525.525-.525zm0-.7875c.40270763 0 .72916667-.32645903.72916667-.72916666s-.32645904-.72916667-.72916667-.72916667-.72916667.32645904-.72916667.72916667.32645904.72916666.72916667.72916666z" fill="#fff" fill-rule="nonzero"/></g></svg>