<svg height="24" viewBox="0 0 24 24" width="24" xmlns="http://www.w3.org/2000/svg"><path d="m12 2c5.5228475 0 10 4.4771525 10 10s-4.4771525 10-10 10-10-4.4771525-10-10 4.4771525-10 10-10zm0 1.6c-4.6391919 0-8.4 3.7608081-8.4 8.4s3.7608081 8.4 8.4 8.4 8.4-3.7608081 8.4-8.4-3.7608081-8.4-8.4-8.4zm-.0985915 12.153886c.3286401 0 .6107186.1113979.8462441.3341969.2355254.2176177.3532864.4740918.3532864.7694301v.007772c0 .3264265-.1369314.6062164-.4107982.8393782-.2300481.1968922-.487479.2953368-.7723004.2953368-.3615042 0-.6600145-.1243511-.8955399-.373057-.2026615-.2124363-.3039906-.4637291-.3039906-.753886 0-.347152.1259768-.6269419.3779342-.8393782.2136161-.1865295.4820015-.2797928.8051644-.2797928zm.0903755-9.753886c1.1283312 0 1.9992145.27978995 2.6126761.83937824.5970296.54404417.8955399 1.27201616.8955399 2.18393782 0 .33160788-.0520339.65025754-.1561033.95595855-.1862294.57513239-.6846595 1.21243169-1.4953052 1.91191709-.7065763.6062207-1.089984 1.1191689-1.1502347 1.5388601-.0109547.0880834-.0164319.3601014-.0164319.8160622 0 .5181373-.2738627.7772021-.8215963.7772021-.5586882 0-.8380281-.2823806-.8380281-.8471503v-.6217617c0-.4145098.0575111-.7461127.1725352-.9948186.1533654-.347152.4409212-.7020707.862676-1.0647668l.6161972-.5362695c.4546189-.3989657.7832541-.7823816.9859155-1.15025904.1150241-.2124363.1725352-.47409171.1725352-.7849741 0-.47150495-.1752721-.85751145-.5258216-1.15803109-.3395948-.28497551-.7832523-.42746114-1.3309859-.42746114-1.0680804 0-1.7089191.55698925-1.9225352 1.67098446-.049296.27979415-.13693208.46113948-.2629108.54404145-.13693339.09326472-.31768275.13989637-.54225352.13989637-.49843754 0-.74765258-.24093023-.74765258-.72279792 0-.58549516.16705623-1.152847.50117371-1.70207254.54773357-.91192166 1.54459369-1.36787565 2.99061029-1.36787565z" fill="#6c6f7e"/></svg>