<svg height="24" viewBox="0 0 24 24" width="24" xmlns="http://www.w3.org/2000/svg"><path d="m9 3.7c.4418278 0 .8.3581722.8.8s-.3581722.8-.8.8h-1c-1.7673112 0-3.2 1.4326888-3.2 3.2v7.5c0 1.7673112 1.4326888 3.2 3.2 3.2h7.5c1.7673112 0 3.2-1.4326888 3.2-3.2v-1c0-.4418278.3581722-.8.8-.8s.8.3581722.8.8v1c0 2.6509668-2.1490332 4.8-4.8 4.8h-7.5c-2.6509668 0-4.8-2.1490332-4.8-4.8v-7.5c0-2.6509668 2.1490332-4.8 4.8-4.8zm11.2746305-.4515879c.0704754.02593355.1346141.06030718.1928703.10232842.0078382.00559427.0149273.01090367.0219466.01634602.0241326.01872653.0475528.03911584.0697189.06078275.0020914.00204285.0043101.00423626.0065191.00644529l.0074303.00752854c.0213001.02186734.0413593.04494928.0600639.06913211l-.0674942-.07666065c.0307442.03074418.058463.06336812.0831563.09750187.0414459.0575622.0751837.12004932.1002618.18677487.0006074.00167638.0013636.00371556.0021113.00575717.0100898.02670639.0202411.06017321.0281849.0944856.003319.01468718.0062139.02900796.0087144.04338395.003312.01866015.0059424.03784219.0078807.05722813.0015844.01604038.0027345.03244657.0033814.04886889.0004201.01066072.0006238.02114905.0006238.03168494v6c0 .4418278-.3581722.8-.8.8s-.8-.3581722-.8-.8v-4.07l-6.6343146 6.6356854c-.3124194.3124195-.8189514.3124195-1.1313708 0-.3124195-.3124194-.3124195-.8189514 0-1.1313708l6.6346854-6.6353146-4.069.001c-.4418278 0-.8-.3581722-.8-.8s.3581722-.8.8-.8h6l.0176053.00019253c.0217942.00047675.0435727.00183888.0652768.00408641l-.0828821-.00427894c.0460237 0 .0911397.00388642.1350377.01134897.0151396.00263897.0304559.00570494.0456892.00922186.005731.00125462.0110028.0025323.016254.00386191z" fill="#6c6f7e"/></svg>