<svg height="16" viewBox="0 0 16 16" width="16" xmlns="http://www.w3.org/2000/svg"><g fill="none" fill-rule="evenodd"><circle cx="8" cy="8" fill="#232631" fill-opacity=".32" r="8"/><path d="m5.56568542 4.43431458 2.43431458 2.43468542 2.4343146-2.43468542c.3124194-.31241944.8189514-.31241944 1.1313708 0 .3124195.31241943.3124195.81895141 0 1.13137084l-2.4346854 2.43431458 2.4346854 2.4343146c.3124195.3124194.3124195.8189514 0 1.1313708-.3124194.3124195-.8189514.3124195-1.1313708 0l-2.4343146-2.4346854-2.43431458 2.4346854c-.31241943.3124195-.81895141.3124195-1.13137084 0-.31241944-.3124194-.31241944-.8189514 0-1.1313708l2.43468542-2.4343146-2.43468542-2.43431458c-.31241944-.31241943-.31241944-.81895141 0-1.13137084.31241943-.31241944.81895141-.31241944 1.13137084 0z" fill="#fff" fill-rule="nonzero"/></g></svg>