<?xml version="1.0" encoding="UTF-8"?>
<svg width="10px" height="10px" viewBox="0 0 10 10" version="1.1" xmlns="http://www.w3.org/2000/svg" xmlns:xlink="http://www.w3.org/1999/xlink">
    <title>剩余时间</title>
    <g id="【格林】新人等免一期实验" stroke="none" stroke-width="1" fill="none" fill-rule="evenodd">
        <g id="我的福利漫画" transform="translate(-258.000000, -231.000000)" fill="#D2D3D9" fill-rule="nonzero">
            <g id="选章节" transform="translate(0.000000, 209.000000)">
                <g id="编组-5" transform="translate(258.000000, 19.000000)">
                    <path d="M5,3 C7.76142375,3 10,5.23857625 10,8 C10,10.7614237 7.76142375,13 5,13 C2.23857625,13 0,10.7614237 0,8 C0,5.23857625 2.23857625,3 5,3 Z M4.58333333,4.91666667 C4.26116723,4.91666667 4,5.1778339 4,5.5 L4,5.5 L4,8.83333333 L4.00532515,8.91248821 C4.04395147,9.19721365 4.2880144,9.41666667 4.58333333,9.41666667 L4.58333333,9.41666667 L6.66666667,9.41666667 L6.74582154,9.41134152 C7.03054698,9.37271519 7.25,9.12865226 7.25,8.83333333 L7.25,8.83333333 L7.24467485,8.75417846 C7.20604853,8.46945302 6.9619856,8.25 6.66666667,8.25 L6.66666667,8.25 L5.16583333,8.24916667 L5.16666667,5.5 L5.16134152,5.42084512 C5.12271519,5.13611969 4.87865226,4.91666667 4.58333333,4.91666667 Z" id="剩余时间"></path>
                </g>
            </g>
        </g>
    </g>
</svg>