<?xml version="1.0" encoding="UTF-8"?>
<svg width="17px" height="17px" viewBox="0 0 17 17" version="1.1" xmlns="http://www.w3.org/2000/svg" xmlns:xlink="http://www.w3.org/1999/xlink">
    <title>话题icon</title>
    <g id="【社区】稿件关联漫画——火野丽" stroke="none" stroke-width="1" fill="none" fill-rule="evenodd">
        <g id="发布-编辑完成备份" transform="translate(-22.000000, -485.000000)" fill="#32AAFF" fill-rule="nonzero">
            <g id="编组-5备份-3" transform="translate(16.000000, 479.000000)">
                <g id="漫画icon" transform="translate(6.000000, 6.000000)">
                    <path d="M5.96011543,3.49691677 L4.26685905,3.49691677 C3.56415766,3.49691677 2.99691677,4.06415766 2.99691677,4.76685905 L2.99691677,11.5398846 C2.99691677,12.242586 3.56415766,12.8098269 4.26685905,12.8098269 L5.96011543,12.8098269 C6.66281683,12.8098269 7.23005772,13.3770677 7.23005772,14.0797691 C7.23005772,14.316825 7.41631592,14.5030832 7.65337181,14.5030832 C7.8904277,14.5030832 8.07668591,14.316825 8.07668591,14.0797691 L8.07668591,5.61348724 C8.07668591,4.44514034 7.12846233,3.49691677 5.96011543,3.49691677 Z M12.7331409,3.49691677 L11.0398846,3.49691677 C9.87153767,3.49691677 8.92331409,4.44514034 8.92331409,5.61348724 L8.92331409,14.0797691 C8.92331409,14.316825 9.1095723,14.5030832 9.34662819,14.5030832 C9.58368408,14.5030832 9.76994228,14.316825 9.76994228,14.0797691 C9.76994228,13.3770677 10.3371832,12.8098269 11.0398846,12.8098269 L12.7331409,12.8098269 C13.4358423,12.8098269 14.0030832,12.242586 14.0030832,11.5398846 L14.0030832,4.76685905 C14.0030832,4.06415766 13.4358423,3.49691677 12.7331409,3.49691677 Z" id="形状"></path>
                </g>
            </g>
        </g>
    </g>
</svg>