<?xml version="1.0" encoding="UTF-8"?>
<svg width="14px" height="12px" viewBox="0 0 14 12" version="1.1" xmlns="http://www.w3.org/2000/svg" xmlns:xlink="http://www.w3.org/1999/xlink">
    <title>形状结合</title>
    <g id="社区消费及发布【火野丽】" stroke="none" stroke-width="1" fill="none" fill-rule="evenodd">
        <g id="发布成功" transform="translate(-27.000000, -726.000000)" fill="#6C6F7E" fill-rule="nonzero">
            <g id="编组-7" transform="translate(16.000000, 671.000000)">
                <g id="编组-6" transform="translate(0.000000, 46.000000)">
                    <path d="M21.7267654,9 C22.605708,9 23.3789034,9.54104589 23.650987,10.3306471 L23.6879918,10.4509148 L24.7650237,14.4118441 C24.9153497,14.697395 25,15.0200071 25,15.3615309 L25,18.8855741 C25,20.0533393 24.0103137,21 22.7894737,21 L13.2105263,21 C11.9896863,21 11,20.0533393 11,18.8855741 L11,15.3615309 C11,15.0453933 11.0725335,14.7454604 11.2025505,14.4761278 L12.2965782,10.4509148 C12.5175623,9.63718937 13.2594263,9.05739465 14.1268058,9.00402128 L14.2578046,9 L21.7267654,9 Z M20.8537895,14.3036131 L20.8225797,14.4137414 C20.4573319,15.5737904 19.3318254,16.4187438 18,16.4187438 C16.6681746,16.4187438 15.5426681,15.5737904 15.1774203,14.4137414 L15.1454737,14.3036131 L13.2105263,14.3043179 C12.6360134,14.3043179 12.1638799,14.7236002 12.1103227,15.2597142 L12.1052632,15.3615309 L12.1052632,18.8855741 C12.1052632,19.4351106 12.5436017,19.8867186 13.1040821,19.9379474 L13.2105263,19.942787 L22.7894737,19.942787 C23.3639866,19.942787 23.8361201,19.5235048 23.8896773,18.9873907 L23.8947368,18.8855741 L23.8947368,15.3615309 C23.8947368,14.8119943 23.4563983,14.3603863 22.8957952,14.3091575 L22.7893265,14.3043179 L20.8537895,14.3036131 Z M21.7267654,10.057213 L14.2578046,10.057213 C13.8705782,10.057213 13.5285062,10.2882416 13.3952162,10.6292472 L13.3663381,10.7167197 L12.6609455,13.3129697 C12.8366586,13.2699676 13.0208012,13.2471049 13.2105263,13.2471049 L16.1948242,13.2467248 C16.1706078,13.360708 16.1578947,13.4786885 16.1578947,13.5995092 C16.1578947,14.5726469 16.9826334,15.3615309 18,15.3615309 C19.0173666,15.3615309 19.8421053,14.5726469 19.8421053,13.5995092 C19.8421053,13.4786885 19.8293922,13.360708 19.8051758,13.2467248 L22.7894737,13.2471049 C22.9734604,13.2471049 23.1521972,13.2686055 23.3230877,13.3091232 L22.6182319,10.7167197 C22.5208753,10.3582253 22.201101,10.0996201 21.8225366,10.061956 L21.7267654,10.057213 Z" id="形状结合"></path>
                </g>
            </g>
        </g>
    </g>
</svg>