<?xml version="1.0" encoding="UTF-8"?>
<svg width="28px" height="28px" viewBox="0 0 28 28" version="1.1" xmlns="http://www.w3.org/2000/svg" xmlns:xlink="http://www.w3.org/1999/xlink">
    <title>评论-已赞</title>
    <g id="社区消费及发布【火野丽】" stroke="none" stroke-width="1" fill="none" fill-rule="evenodd">
        <g id="上画收纳搜索框" transform="translate(-179.000000, -350.000000)" fill="#32AAFF">
            <g id="编组" transform="translate(0.000000, 62.000000)">
                <g id="社区操作模块" transform="translate(0.000000, 274.000000)">
                    <g id="点赞" transform="translate(179.000000, 14.000000)">
                        <path d="M8.3125,21.8675741 L9.8875,21.8675741 L9.8875,9.53007415 L8.3125,9.53007415 L8.3125,21.8675741 Z M17.15,7.86757415 L23.7125,7.86757415 C24.5,7.86757415 25.2875,8.21757415 25.8125,8.91757415 C26.25,9.53007415 26.3375,10.4050741 26.1625,11.1050741 L23.3625,20.3800741 C22.925,22.1300741 21.4375,23.3550741 19.6,23.4425741 L4.9,23.4425741 C3.7625,23.5300741 2.7125,22.9175741 2.1875,21.9550741 C1.925,21.4300741 1.75,20.9050741 1.75,20.3800741 L1.75,11.0175741 C1.75,9.88007415 2.3625,8.83007415 3.325,8.30507415 C3.85,8.04257415 4.375,7.95507415 4.9,7.86757415 L8.8375,7.86757415 L13.125,2.53007415 C14,1.56757415 15.575,1.48007415 16.5375,2.35507415 C17.0625,2.88007415 17.4125,3.58007415 17.325,4.36757415 L17.15,7.86757415 Z" id="Fill-1"></path>
                    </g>
                </g>
            </g>
        </g>
    </g>
</svg>