<?xml version="1.0" encoding="UTF-8"?>
<svg width="28px" height="28px" viewBox="0 0 28 28" version="1.1" xmlns="http://www.w3.org/2000/svg" xmlns:xlink="http://www.w3.org/1999/xlink">
    <title>已收藏</title>
    <g id="控件" stroke="none" stroke-width="1" fill="none" fill-rule="evenodd">
        <g id="已收藏" fill="#32AAFF">
            <path d="M13.5904973,21.8456195 L8.13704911,23.7848709 C7.50104946,24.011033 6.80212929,23.678794 6.57596721,23.0427943 C6.52543404,22.900688 6.50163961,22.7504559 6.50578622,22.5996891 L6.6649157,16.81389 C6.67264472,16.5328701 6.58326138,16.2577765 6.41182913,16.0349696 L2.8822833,11.4476937 C2.47065568,10.9127101 2.57065553,10.14533 3.10563921,9.73370237 C3.22517481,9.64172918 3.36070114,9.57267506 3.50537027,9.53002922 L9.05716592,7.89346009 C9.32682012,7.8139709 9.56082872,7.6439537 9.71975516,7.41206083 L12.9918241,2.63771708 C13.3734239,2.0809169 14.1341474,1.93888892 14.6909475,2.32048871 C14.8153578,2.40575254 14.9229121,2.51330685 15.0081759,2.63771708 L18.2802448,7.41206083 C18.4391713,7.6439537 18.6731799,7.8139709 18.9428341,7.89346009 L24.4946297,9.53002922 C25.142099,9.72089146 25.5122521,10.4004934 25.3213899,11.0479627 C25.278744,11.1926318 25.2096899,11.3281581 25.1177167,11.4476937 L21.5881709,16.0349696 C21.4167386,16.2577765 21.3273553,16.5328701 21.3350843,16.81389 L21.4942138,22.5996891 C21.512772,23.2744486 20.9808157,23.8364937 20.3060562,23.8550519 C20.1552894,23.8591985 20.0050573,23.8354041 19.8629509,23.7848709 L14.4095027,21.8456195 C14.1446253,21.7514289 13.8553747,21.7514289 13.5904973,21.8456195 Z" id="Star"></path>
        </g>
    </g>
</svg>