<?xml version="1.0" encoding="UTF-8"?>
<svg width="28px" height="28px" viewBox="0 0 28 28" version="1.1" xmlns="http://www.w3.org/2000/svg" xmlns:xlink="http://www.w3.org/1999/xlink">
    <title>评论-踩踏</title>
    <g id="社区消费及发布【火野丽】" stroke="none" stroke-width="1" fill="none" fill-rule="evenodd" stroke-linejoin="round">
        <g id="推荐展开" transform="translate(-16.000000, -719.000000)" stroke="#1C1C1F" stroke-width="1.56824959">
            <g id="编组-6" transform="translate(0.000000, 127.000000)">
                <g id="社区操作模块" transform="translate(0.000000, 578.000000)">
                    <g id="分享" transform="translate(16.000000, 14.000000)">
                        <path d="M14.5665306,9.19132296 C6.14006183,10.7119637 1.92682745,15.2263226 1.92682745,22.7343997 C3.75642743,21.0056646 8.375974,17.1821507 14.5665306,17.1821507 C14.546735,18.1083726 14.54481,19.8509001 14.5607556,22.4097333 C14.5621362,22.6262416 14.7387448,22.8006627 14.9552533,22.7993135 C15.049233,22.7987278 15.139875,22.7644002 15.2106659,22.7025845 L25.7353436,13.5122739 C25.8984432,13.3698528 25.9152065,13.1221792 25.7727854,12.9590796 C25.7612554,12.9458755 25.7488529,12.9334597 25.7356613,12.9219155 L15.216787,3.71669914 C15.0538407,3.57410254 14.8061493,3.59059921 14.6635527,3.75354548 C14.6010063,3.82501765 14.5665306,3.91676414 14.5665306,4.01173946 L14.5665306,9.19132296 L14.5665306,9.19132296 Z" id="路径"></path>
                    </g>
                </g>
            </g>
        </g>
    </g>
</svg>