<?xml version="1.0" encoding="UTF-8"?>
<svg width="28px" height="28px" viewBox="0 0 28 28" version="1.1" xmlns="http://www.w3.org/2000/svg" xmlns:xlink="http://www.w3.org/1999/xlink">
    <title>评论-回复</title>
    <g id="社区消费及发布【火野丽】" stroke="none" stroke-width="1" fill="none" fill-rule="evenodd">
        <g id="推荐展开" transform="translate(-312.000000, -719.000000)" fill="#1C1C1F" fill-rule="nonzero">
            <g id="编组-6" transform="translate(0.000000, 127.000000)">
                <g id="社区操作模块" transform="translate(0.000000, 578.000000)">
                    <g id="社区操作右边" transform="translate(179.000000, 14.000000)">
                        <g id="回复" transform="translate(133.000000, 0.000000)">
                            <path d="M10.765825,26.2927 C10.550575,26.46245 10.284575,26.55345 10.009825,26.55345 C9.332575,26.55345 8.784825,26.0057 8.784825,25.32845 L8.784825,22.3972 C4.679325,21.25445 1.749825,17.49195 1.749825,13.1257 C1.749825,7.8092 6.060075,3.5007 11.374825,3.5007 L16.624825,3.5007 C21.939575,3.5007 26.249825,7.8092 26.249825,13.1257 C26.249825,18.44045 21.939575,22.7507 16.624825,22.7507 L15.277325,22.7507 L10.765825,26.2927 Z M14.671825,21.0007 L16.624825,21.0007 C20.973575,21.0007 24.499825,17.47445 24.499825,13.1257 C24.499825,8.7752 20.973575,5.2507 16.624825,5.2507 L11.374825,5.2507 C7.026075,5.2507 3.499825,8.7752 3.499825,13.1257 C3.499825,16.8987 6.173825,20.1222 9.829575,20.84845 L10.534825,20.98845 L10.534825,24.2487 L14.671825,21.0007 Z" id="Fill-1"></path>
                        </g>
                    </g>
                </g>
            </g>
        </g>
    </g>
</svg>