<?xml version="1.0" encoding="UTF-8"?>
<svg width="28px" height="28px" viewBox="0 0 28 28" version="1.1" xmlns="http://www.w3.org/2000/svg" xmlns:xlink="http://www.w3.org/1999/xlink">
    <title>评论-点赞</title>
    <g id="社区消费及发布【火野丽】" stroke="none" stroke-width="1" fill="none" fill-rule="evenodd">
        <g id="推荐展开" transform="translate(-179.000000, -719.000000)" fill="#1C1C1F" fill-rule="nonzero">
            <g id="编组-6" transform="translate(0.000000, 127.000000)">
                <g id="社区操作模块" transform="translate(0.000000, 578.000000)">
                    <g id="点赞" transform="translate(179.000000, 14.000000)">
                        <path d="M8.3125,21.8675741 L9.8875,21.8675741 L9.8875,9.53007415 L8.3125,9.53007415 L8.3125,21.8675741 Z M17.15,7.86757415 L23.7125,7.86757415 C24.5,7.86757415 25.2875,8.21757415 25.8125,8.91757415 C26.25,9.53007415 26.3375,10.4050741 26.1625,11.1050741 L23.3625,20.3800741 C22.925,22.1300741 21.4375,23.3550741 19.6,23.4425741 L4.9,23.4425741 C3.7625,23.5300741 2.7125,22.9175741 2.1875,21.9550741 C1.925,21.4300741 1.75,20.9050741 1.75,20.3800741 L1.75,11.0175741 C1.75,9.88007415 2.3625,8.83007415 3.325,8.30507415 C3.85,8.04257415 4.375,7.95507415 4.9,7.86757415 L8.8375,7.86757415 L13.125,2.53007415 C14,1.56757415 15.575,1.48007415 16.5375,2.35507415 C17.0625,2.88007415 17.4125,3.58007415 17.325,4.36757415 L17.15,7.86757415 Z M23.5375,9.44257415 L15.4,9.44257415 L15.575,7.60507415 L15.8375,4.36757415 C15.925,3.93007415 15.6625,3.49257415 15.225,3.40507415 C14.9625,3.31757415 14.6125,3.40507415 14.4375,3.66757415 L10.4125,8.83007415 L9.8875,9.53007415 L4.6375,9.53007415 C4.4625,9.53007415 4.2875,9.61757415 4.1125,9.70507415 C3.5875,9.96757415 3.325,10.4925741 3.325,11.0175741 L3.325,20.3800741 C3.325,20.6425741 3.4125,20.9925741 3.5875,21.1675741 C3.85,21.6925741 4.375,21.9550741 4.9,21.8675741 L19.6,21.8675741 C19.95,21.8675741 20.2125,21.7800741 20.475,21.6050741 C21.175,21.2550741 21.7,20.6425741 21.7875,19.8550741 L24.5875,10.6675741 L26.1625,11.0175741 L24.5875,10.6675741 C24.675,10.4050741 24.5875,10.0550741 24.5,9.79257415 C24.2375,9.61757415 23.8875,9.44257415 23.5375,9.44257415 L23.7125,7.86757415 L23.5375,9.44257415 Z" id="Fill-1"></path>
                    </g>
                </g>
            </g>
        </g>
    </g>
</svg>