<?xml version="1.0" encoding="UTF-8"?>
<svg width="28px" height="28px" viewBox="0 0 28 28" version="1.1" xmlns="http://www.w3.org/2000/svg" xmlns:xlink="http://www.w3.org/1999/xlink">
    <title>话题icon</title>
    <g id="话题页【火野丽】" stroke="none" stroke-width="1" fill="none" fill-rule="evenodd">
        <g id="话题-无简介" transform="translate(-10.000000, -88.000000)">
            <g id="话题icon" transform="translate(10.000000, 88.000000)">
                <rect id="矩形" stroke="#979797" stroke-width="1.64705882" fill="#D8D8D8" opacity="0" x="2.47058824" y="4.11764706" width="21.4117647" height="21.4117647"></rect>
                <path d="M18.7512581,7.81457245 C19.1090843,7.89158296 19.3386107,8.238051 19.3105527,8.62376509 L19.2877041,8.76979791 L18.922722,10.2781527 L20.5789138,10.2784042 C21.033093,10.2784042 21.401278,10.6471109 21.401278,11.1019336 C21.401278,11.5062205 21.1103664,11.8424651 20.7267348,11.9121949 L20.5789138,11.925463 L18.525722,11.9251527 L17.487722,16.2321527 L18.9341854,16.2329575 C19.3883646,16.2329575 19.7565496,16.6016641 19.7565496,17.0564869 C19.7565496,17.4607738 19.465638,17.7970183 19.0820064,17.8667481 L18.9341854,17.8800163 L17.090722,17.8791527 L16.6906009,19.5439418 C16.5843174,19.9848614 16.1718227,20.2720644 15.7692682,20.1854275 C15.411442,20.108417 15.1819156,19.761949 15.2099737,19.3762349 L15.2328222,19.2302021 L15.558722,17.8791527 L13.435954,17.8800163 C12.9817748,17.8800163 12.6135898,17.5113096 12.6135898,17.0564869 C12.6135898,16.6522 12.9045014,16.3159555 13.288133,16.2462256 L13.435954,16.2329575 L15.955722,16.2321527 L16.993722,11.9251527 L12.277722,11.9251527 L10.4422045,19.5439418 C10.335921,19.9848614 9.92342629,20.2720644 9.52087182,20.1854275 C9.16304563,20.108417 8.93351921,19.761949 8.96157724,19.3762349 L8.98442579,19.2302021 L9.30972196,17.8791527 L7.42108619,17.8800163 C6.96690697,17.8800163 6.59872196,17.5113096 6.59872196,17.0564869 C6.59872196,16.6522 6.88963357,16.3159555 7.27326518,16.2462256 L7.42108619,16.2329575 L9.69534595,16.2329575 L9.70572196,16.2331527 L10.744722,11.9251527 L9.06581464,11.925463 C8.61163542,11.925463 8.24345041,11.5567564 8.24345041,11.1019336 C8.24345041,10.6976467 8.53436202,10.3614022 8.91799363,10.2916724 L9.06581464,10.2784042 L11.141722,10.2781527 L11.581529,8.45605821 C11.6878125,8.01513858 12.1003072,7.72793563 12.5028617,7.81457245 C12.8606879,7.89158296 13.0902143,8.238051 13.0621563,8.62376509 L13.0393077,8.76979791 L12.674722,10.2781527 L17.390722,10.2781527 L17.8299254,8.45605821 C17.936209,8.01513858 18.3487036,7.72793563 18.7512581,7.81457245 Z" id="形状结合" fill="#1C1D1F" fill-rule="nonzero"></path>
            </g>
        </g>
    </g>
</svg>