<?xml version="1.0" encoding="UTF-8"?>
<svg width="17px" height="17px" viewBox="0 0 17 17" version="1.1" xmlns="http://www.w3.org/2000/svg" xmlns:xlink="http://www.w3.org/1999/xlink">
    <title>话题icon</title>
    <g id="【社区】稿件关联漫画——火野丽" stroke="none" stroke-width="1" fill="none" fill-rule="evenodd">
        <g id="发布-编辑完成-横划话题" transform="translate(-290.000000, -485.000000)">
            <g id="编组-12" transform="translate(16.000000, 479.000000)" fill-rule="nonzero">
                <g id="编组-5备份" transform="translate(268.000000, 0.000000)">
                    <g id="话题icon" transform="translate(6.000000, 6.000000)" fill="#6C6F7E">
                        <path d="M12.3517062,3.48565449 C12.6417855,3.54808467 12.8278558,3.82895619 12.80511,4.14164334 L12.7865873,4.26002788 L12.491,5.48215414 L13.8333333,5.48301096 C14.2015232,5.48301096 14.5,5.7819107 14.5,6.15062221 C14.5,6.47836577 14.2641665,6.75094942 13.9531675,6.80747735 L13.8333333,6.81823346 L12.169,6.81815414 L11.328,10.3101541 L12.5,10.3101934 C12.8681898,10.3101934 13.1666667,10.6090932 13.1666667,10.9778047 C13.1666667,11.3055482 12.9308331,11.5781319 12.6198342,11.6346598 L12.5,11.6454159 L11.006,11.6451541 L10.6811916,12.9943117 C10.5950306,13.3517524 10.2606333,13.5845795 9.9342941,13.5143455 C9.64421485,13.4519153 9.45814448,13.1710438 9.48089031,12.8583567 L9.49941296,12.7399721 L9.763,11.6451541 L8.0427444,11.6454159 C7.67455457,11.6454159 7.37607774,11.3465162 7.37607774,10.9778047 C7.37607774,10.6500611 7.61191128,10.3774775 7.92291023,10.3209495 L8.0427444,10.3101934 L10.084,10.3101541 L10.926,6.81815414 L7.104,6.81815414 L5.61579905,12.9943117 C5.52963812,13.3517524 5.19524072,13.5845795 4.86890157,13.5143455 C4.57882232,13.4519153 4.39275195,13.1710438 4.41549779,12.8583567 L4.43402044,12.7399721 L4.698,11.6451541 L3.16666667,11.6454159 C2.79847683,11.6454159 2.5,11.3465162 2.5,10.9778047 C2.5,10.6500611 2.73583355,10.3774775 3.04683249,10.3209495 L3.16666667,10.3101934 L5.01034265,10.3101934 L5.019,10.3111541 L5.861,6.81815414 L4.5,6.81823346 C4.13181017,6.81823346 3.83333333,6.51933372 3.83333333,6.15062221 C3.83333333,5.82287864 4.06916688,5.550295 4.38016582,5.49376707 L4.5,5.48301096 L6.183,5.48215414 L6.5394162,4.00568826 C6.62557714,3.6482476 6.95997453,3.41542055 7.28631369,3.48565449 C7.57639293,3.54808467 7.7624633,3.82895619 7.73971747,4.14164334 L7.72119482,4.26002788 L7.426,5.48215414 L11.248,5.48215414 L11.6048087,4.00568826 C11.6909697,3.6482476 12.0253671,3.41542055 12.3517062,3.48565449 Z" id="形状结合"></path>
                    </g>
                </g>
            </g>
        </g>
    </g>
</svg>