<?xml version="1.0" encoding="UTF-8"?>
<svg width="26px" height="24px" viewBox="0 0 26 24" version="1.1" xmlns="http://www.w3.org/2000/svg" xmlns:xlink="http://www.w3.org/1999/xlink">
    <title>矩形</title>
    <g id="【社区】增加有妖气入口位-火野丽" stroke="none" stroke-width="1" fill="none" fill-rule="evenodd">
        <g id="推荐" transform="translate(-296.000000, -54.000000)">
            <g id="编组-4" transform="translate(0.000000, 44.000000)">
                <g id="编组-6" transform="translate(296.988803, 10.000000)">
                    <rect id="矩形" stroke="#979797" fill="#D8D8D8" opacity="0" x="0.511196602" y="0.5" width="23" height="23"></rect>
                    <path d="M24.2421629,2.47715548 C24.3633917,3.11951669 24.2961175,3.84066077 24.0158672,4.63965754 C23.7330623,5.4459376 23.3304202,6.0548359 22.8281764,6.48131514 C22.3003427,6.92952391 21.6587317,7.18584622 20.8979006,7.23745929 C19.2986663,7.34594774 18.9473202,7.4537064 17.6835956,7.83963715 C17.311781,7.95263807 17.1716268,7.97816502 17.1040524,8.07366926 C17.006381,8.21171024 16.977948,8.39235173 16.9411144,8.56746937 C16.7932644,9.17379905 16.7502508,9.4883199 16.7016475,9.84211467 L16.7016475,9.84211467 L19.7361598,10.1336836 L19.0401586,14.0951304 L16.3358118,14.0951304 C16.7217483,15.7056426 17.5942537,16.9586733 19.0680168,18.1644296 L19.0680168,18.1644296 L15.897375,21.5075493 C14.8335806,20.4393606 14.0247315,19.2429691 13.4666228,17.8712563 C12.4660342,19.1927449 11.1920473,20.4182657 9.58695592,21.5235771 L9.58695592,21.5235771 L8.30491611,19.6647814 L7.68247947,20.4629303 C7.4996543,20.2185622 7.33333166,20.0046985 7.18527708,19.8271036 C7.01857733,19.6271434 6.81081655,19.3961286 6.56963467,19.1380189 C5.8579966,19.8837992 5.03202189,20.670016 3.99006084,21.6104284 L3.99006084,21.6104284 L0.768047616,19.070324 C2.00544992,18.0943053 2.9763593,17.2714963 3.8930385,16.3866963 C3.28133019,15.7926053 2.92486937,15.4459936 2.64901724,15.1992041 C2.9814813,13.5530641 3.39109976,12.4292452 3.78630359,11.3528295 L3.98228036,10.8163731 L3.0391993,10.8163731 L3.71493722,6.97025951 L5.22640249,6.97025951 C5.43851124,6.23968325 5.59625309,5.66270341 5.69936842,5.23925218 C5.73477309,5.09386014 5.77278025,4.92943426 5.81340049,4.74597695 L5.81340049,4.74597695 L9.9183014,4.74597695 L9.7015026,5.55867701 C9.64752746,5.76101023 9.58780747,5.99615069 9.52306031,6.25100161 C9.46529485,6.47837193 9.40361209,6.72108693 9.33854147,6.97025951 L9.33854147,6.97025951 L11.009,6.97 L11.188772,5.5081909 L14.6543874,5.5081909 C15.8512419,4.99804433 17.0329514,4.74597695 18.1983257,4.74597695 C19.1498194,4.74597695 19.5022833,4.82319553 19.8413979,4.89541342 C20.0987903,4.95022772 20.3467721,5.00171806 20.9653601,5.00171806 C21.5320453,5.00171806 22.1966239,4.60910556 22.9864734,3.93446594 C23.6039772,3.40703315 24.0392508,2.92827051 24.2421629,2.47715548 Z M9.93275116,14.385334 C9.74782116,14.7877155 9.55410408,15.1691142 9.34867601,15.5381558 L9.34867601,15.5381558 L9.977,16.133 L10.0203406,16.0915964 C10.5757555,15.5286173 11.0264699,14.9613705 11.39533,14.3566751 L11.5484679,14.0951304 L10.062,14.095 Z M11.9744873,9.09363498 L11.774016,9.09378541 C11.6834092,9.09519869 11.6055199,9.09872997 11.5325806,9.10487844 L11.549,9.103 L11.368,10.133 L12.7590779,10.1336836 L12.917463,9.11819779 C12.4901305,9.10553148 12.1965179,9.09601276 11.9744873,9.09363498 Z" id="妖" stroke="#6C6F7E" stroke-width="1.29230769" stroke-linejoin="round"></path>
                </g>
            </g>
        </g>
    </g>
</svg>