<?xml version="1.0" encoding="UTF-8"?>
<svg width="17px" height="17px" viewBox="0 0 17 17" version="1.1" xmlns="http://www.w3.org/2000/svg" xmlns:xlink="http://www.w3.org/1999/xlink">
    <title>矩形@2x</title>
    <g id="【社区】稿件关联漫画——火野丽" stroke="none" stroke-width="1" fill="none" fill-rule="evenodd">
        <g id="发布-编辑完成-VOMIC" transform="translate(-22.000000, -485.000000)" fill="#32AAFF" fill-rule="nonzero">
            <g id="编组-16" transform="translate(22.000000, 485.000000)">
                <path d="M5.03094287,8.60994862 C5.88450672,8.60994862 6.58800077,9.23600966 6.684145,10.0425691 L6.69534264,10.2316996 L6.69534264,13.8782491 C6.69534264,14.7739174 5.95016548,15.5 5.03094287,15.5 C4.17737902,15.5 3.47388498,14.873939 3.37774074,14.0673795 L3.36654311,13.8782491 L3.36654311,10.2316996 C3.36654311,9.33603125 4.11172027,8.60994862 5.03094287,8.60994862 Z M11.9690571,8.60994862 C12.822621,8.60994862 13.526115,9.23600966 13.6222593,10.0425691 L13.6334569,10.2316996 L13.6334569,13.8782491 C13.6334569,14.7739174 12.8882797,15.5 11.9690571,15.5 C11.1154933,15.5 10.4119992,14.873939 10.315855,14.0673795 L10.3046574,13.8782491 L10.3046574,10.2316996 C10.3046574,9.33603125 11.0498345,8.60994862 11.9690571,8.60994862 Z M8.5,1.5 C12.2488419,1.5 15.309388,4.37143189 15.4914332,7.98021272 L15.5,8.320631 L15.5,12.0549743 C15.5,12.3236748 15.2764469,12.5414996 15.0006801,12.5414996 C14.7643085,12.5414996 14.5662981,12.3814651 14.5145475,12.1665301 L14.5013601,12.0549743 L14.5013601,8.320631 C14.5013601,5.0911015 11.8144597,2.47305057 8.5,2.47305057 C5.29245837,2.47305057 2.6726413,4.92491929 2.50695856,8.01007213 L2.49863986,8.320631 L2.49863986,12.0549743 C2.49863986,12.3236748 2.27508671,12.5414996 1.99931993,12.5414996 C1.7629484,12.5414996 1.56493791,12.3814651 1.5131874,12.1665301 L1.5,12.0549743 L1.5,8.320631 C1.5,4.55370052 4.63400675,1.5 8.5,1.5 Z" id="形状结合"></path>
            </g>
        </g>
    </g>
</svg>