<?xml version="1.0" encoding="UTF-8"?>
<svg width="17px" height="17px" viewBox="0 0 17 17" version="1.1" xmlns="http://www.w3.org/2000/svg" xmlns:xlink="http://www.w3.org/1999/xlink">
    <title>话题icon</title>
    <g id="社区消费及发布【火野丽】" stroke="none" stroke-width="1" fill="none" fill-rule="evenodd">
        <g id="发布-选择话题" transform="translate(-22.000000, -485.000000)">
            <g id="编组-5备份" transform="translate(16.000000, 479.000000)">
                <g id="话题icon" transform="translate(6.000000, 6.000000)">
                    <rect id="矩形" stroke="#979797" fill="#D8D8D8" opacity="0" x="1.5" y="2.5" width="13" height="13"></rect>
                    <circle id="椭圆形" fill="#E3F3FE" cx="8.5" cy="8.5" r="8.5"></circle>
                    <path d="M11.3846924,4.74456185 C11.601944,4.79131823 11.7412994,5.00167382 11.7242641,5.23585738 L11.7103918,5.32452016 L11.4893669,6.24019984 L12.4943405,6.2404597 C12.7700922,6.2404597 12.9936331,6.46431733 12.9936331,6.7404597 C12.9936331,6.98591959 12.8170082,7.19006807 12.584089,7.23240403 L12.4943405,7.2404597 L11.2483669,7.24019984 L10.6183669,9.85519984 L11.4957554,9.85572418 C11.7715071,9.85572418 11.995048,10.0795818 11.995048,10.3557242 C11.995048,10.6011841 11.8184231,10.8053326 11.5855039,10.8476685 L11.4957554,10.8557242 L10.3773669,10.8551998 L10.1335791,11.8659647 C10.0690498,12.1336659 9.81860664,12.3080391 9.57419857,12.2554382 C9.35694695,12.2086818 9.21759162,11.9983262 9.23462686,11.7641426 L9.24849919,11.6754798 L9.4463669,10.8551998 L8.15754352,10.8557242 C7.88179185,10.8557242 7.65825095,10.6318666 7.65825095,10.3557242 C7.65825095,10.1102643 7.83487586,9.90611581 8.06779505,9.86377985 L8.15754352,9.85572418 L9.6863669,9.85519984 L10.3163669,7.24019984 L7.4543669,7.24019984 L6.33990986,11.8659647 C6.27538059,12.1336659 6.02493739,12.3080391 5.78052932,12.2554382 C5.5632777,12.2086818 5.42392237,11.9983262 5.44095761,11.7641426 L5.45482994,11.6754798 L5.6523669,10.8551998 L4.50565947,10.8557242 C4.2299078,10.8557242 4.0063669,10.6318666 4.0063669,10.3557242 C4.0063669,10.1102643 4.18299181,9.90611581 4.415911,9.86377985 L4.50565947,9.85572418 L5.88646004,9.85572418 L5.8933669,9.85619984 L6.5233669,7.24019984 L5.5042446,7.2404597 C5.22849293,7.2404597 5.00495204,7.01660208 5.00495204,6.7404597 C5.00495204,6.49499981 5.18157694,6.29085133 5.41449613,6.24851537 L5.5042446,6.2404597 L6.7643669,6.24019984 L7.03164263,5.13403534 C7.0961719,4.86633414 7.3466151,4.69196092 7.59102317,4.74456185 C7.80827479,4.79131823 7.94763011,5.00167382 7.93059488,5.23585738 L7.91672254,5.32452016 L7.6953669,6.24019984 L10.5573669,6.24019984 L10.8253119,5.13403534 C10.8898411,4.86633414 11.1402843,4.69196092 11.3846924,4.74456185 Z" id="形状结合" fill="#32AAFF" fill-rule="nonzero"></path>
                </g>
            </g>
        </g>
    </g>
</svg>