<svg height="16" viewBox="0 0 16 16" width="16" xmlns="http://www.w3.org/2000/svg"><path d="m6.08300781 2.24995526c.57152398 0 1.17596891.29185226 1.84219727.85400493l.12579492.10903981.13369121-.11728737c.560411-.47545581 1.1139077-.75652056 1.67782861-.82924962l.18838348-.01650775h4.2908447c.4418278 0 .8.3581722.8.8v9.43693434c0 .4418278-.3581722.8-.8.8h-4.2908447c-.43221872 0-.95207838.3031435-1.54637131.9632093l-.44891419.4985973-.44556242-.5015948c-.65238988-.7344323-1.14283128-1.0228304-1.41431575-.9708973l-.11273182.0106855h-4.38496094c-.44182779 0-.79999999-.3581722-.79999999-.8v-9.43693434c0-.4418278.3581722-.8.8-.8zm7.85799219 1.19904474-3.8618235.00028874c-.38651623.01823369-.86889687.2900695-1.42867107.84839091l.00754145-.00872439.00078698 8.24216644c.33672136-.214948.67581111-.3536579 1.018219-.4122626l.19641983-.0247745.17743061-.007195 3.8900967-.0008896zm-11.843 0v8.637h3.951l.07230192-.0097886c.43504305-.0400105.87770673.1040049 1.33692112.4154882l.00003713-8.19401929c-.60466164-.57645517-1.07821906-.84772505-1.37525236-.84772505z" fill="#31aaff"/></svg>