<svg width="39" height="18" viewBox="0 0 39 18" xmlns="http://www.w3.org/2000/svg"><g id="[麦克]-登录组件及引导优化" stroke="none" stroke-width="1" fill="none" fill-rule="evenodd"><g id="登录控件" transform="translate(-133 -365)" fill="#32AAFF"><g id="登录组件" transform="translate(55 174)"><g id="授权登录" transform="translate(24 180)"><path d="M90.216 27.063c-.174 0-.323.014-.47-.003-.295-.034-.591-.028-.888-.037-.19-.005-.185-.005-.201-.191-.047-.57-.099-1.14-.15-1.709-.044-.5-.086-1-.135-1.5-.043-.458-.097-.915-.144-1.372-.046-.43-.088-.86-.136-1.29-.06-.54-.122-1.08-.186-1.62-.057-.477-.114-.955-.177-1.431-.1-.74-.202-1.477-.306-2.215a66.108 66.108 0 0 0-.385-2.35c-.025-.14-.021-.146.111-.168.552-.095 1.106-.176 1.667-.164.06.002.122.003.182.01.1.013.15.061.155.177.02.404.047.808.077 1.211.048.661.099 1.322.148 1.982.03.425.057.85.09 1.274.05.682.103 1.363.154 2.045.031.417.059.835.09 1.251.05.612.102 1.224.151 1.835.032.39.06.78.092 1.169.049.576.101 1.153.15 1.73.039.45.073.901.111 1.366zM68.862 13.02c.08 0 .203-.009.323.002.154.014.183.054.192.21.044.71.085 1.42.132 2.13.052.766.108 1.531.164 2.296.052.703.104 1.405.16 2.108.06.771.128 1.542.19 2.314.046.59.085 1.182.133 1.774.046.548.099 1.097.148 1.645l.125 1.417c.012.15.002.16-.158.155-.418-.01-.835-.059-1.253-.047-.096.002-.124-.042-.14-.133-.034-.2-.028-.404-.05-.605-.057-.534-.09-1.07-.139-1.605-.043-.486-.096-.97-.145-1.456-.044-.444-.088-.888-.134-1.332-.047-.436-.097-.872-.146-1.309-.045-.402-.09-.803-.137-1.205-.071-.588-.141-1.177-.218-1.764-.07-.538-.15-1.076-.226-1.614a63.531 63.531 0 0 0-.346-2.187c-.03-.165-.06-.33-.092-.493-.017-.083-.002-.13.092-.143.246-.033.492-.085.739-.11.247-.023.495-.07.786-.048zm17.521 7.092c.472 0 .483.003.558.431.093.528.158 1.061.22 1.594.065.568.131 1.135.192 1.703.048.458.089.916.134 1.374.048.478.099.957.148 1.435.028.27.053.54.084.81.009.079-.015.12-.09.13-.162.019-.322.04-.482.057-.295.032-.59.063-.884.091-.152.015-.162.006-.19-.143-.26-1.347-.518-2.693-.774-4.04-.171-.897-.337-1.793-.504-2.69a14.458 14.458 0 0 1-.062-.37c-.012-.071.007-.117.087-.136a8.858 8.858 0 0 1 1.563-.246zm-19.803 0c.505 0 .503.001.58.463.12.715.205 1.435.282 2.155.075.7.156 1.399.229 2.099.05.478.089.958.135 1.436.033.34.072.68.108 1.02.004.04.007.083.009.125.007.166 0 .18-.159.196-.315.033-.63.06-.945.092-.114.011-.228.028-.34.04-.151.014-.156.013-.186-.14-.106-.54-.208-1.08-.312-1.62-.249-1.3-.5-2.598-.747-3.897-.098-.52-.183-1.042-.28-1.562-.018-.095-.005-.14.093-.163.527-.123 1.056-.22 1.533-.244zm6.655 5.448v2.181c0 .021-.002.042 0 .063.011.106-.027.153-.136.148-.142-.006-.283-.002-.425.001-.296.006-.593-.005-.889.028-.164.02-.16.01-.176-.165-.049-.55-.102-1.098-.151-1.647-.046-.507-.087-1.014-.134-1.521-.048-.521-.1-1.041-.148-1.562-.033-.348-.062-.695-.091-1.043-.038-.452-.073-.904-.113-1.356-.016-.19-.002-.217.185-.237.484-.052.969-.07 1.454-.045.121.006.242.03.359.059.148.035.164.057.171.213.017.314.033.628.041.942.01.35.002.699.014 1.048.033.964.028 1.929.04 2.893zm19.764.1v2.064c0 .035-.002.07 0 .105.008.091-.034.123-.12.122-.209-.001-.418 0-.627.003-.236.003-.472.001-.708.027-.156.018-.157.007-.17-.15-.065-.714-.132-1.43-.196-2.145-.06-.66-.114-1.32-.174-1.98-.062-.681-.13-1.361-.19-2.042-.03-.34-.056-.682-.08-1.023-.01-.148.005-.174.171-.188.289-.023.577-.063.867-.058.29.006.58-.01.868.046.244.047.256.061.27.324.043.775.03 1.551.057 2.326.029.825.01 1.65.032 2.568zm-7.108-9.295c.171.01.305.001.439.031.085.02.128.059.137.151.04.444.083.888.127 1.332.035.361.073.721.109 1.082 0 .007.002.014.003.02.029.228.022.235-.197.247-.195.01-.39.028-.584.04-.128.008-.17.03-.19-.159-.073-.665-.158-1.328-.239-1.992a20.047 20.047 0 0 0-.074-.56c-.016-.104.025-.162.122-.17.128-.013.256-.016.347-.022zm-19.739.002c.132.008.267-.002.4.029.075.017.114.05.122.137.016.208.047.415.067.623.062.639.12 1.278.179 1.917.012.139.01.142-.12.15-.228.017-.457.035-.686.044-.133.007-.15-.01-.167-.147-.058-.47-.112-.941-.168-1.412-.045-.388-.083-.777-.138-1.163-.015-.107.02-.136.104-.154.134-.027.27-.018.407-.024zm6.952 1.759v1.213c0 .182-.003.183-.182.18a5.578 5.578 0 0 1-.644-.033c-.138-.017-.14-.013-.145-.16-.014-.495-.028-.99-.038-1.484-.007-.335-.01-.669-.031-1.003-.01-.172 0-.174.163-.177.242-.003.484.008.725.046.145.022.152.022.152.184v1.234zm19.773.01c0 .405.002.81 0 1.214 0 .17-.003.171-.172.17a8.988 8.988 0 0 1-.664-.031c-.11-.01-.142-.056-.134-.156v-.042l-.05-2.342c0-.042-.002-.083 0-.125.001-.158.002-.162.159-.16.215 0 .43.012.644.033.263.027.217.06.217.268.002.39.001.781 0 1.171zm-27.265.95c.005.222.005.222-.206.273-.143.036-.286.074-.43.106-.123.028-.145.013-.167-.11l-.439-2.484c-.03-.172-.021-.182.146-.212.205-.037.41-.073.616-.105.131-.02.148-.014.174.132.052.294.101.59.14.886.059.47.108.94.161 1.41.004.034.003.07.005.104zm18.532-2.404c.27-.044.54-.09.812-.133.098-.015.127.047.14.135.046.324.104.646.142.97.056.47.132.938.147 1.413l.001.146c.003.076-.034.114-.103.13-.184.042-.368.084-.551.128-.088.021-.118-.016-.132-.103-.055-.33-.119-.657-.175-.986-.095-.541-.188-1.083-.28-1.624-.003-.02 0-.041 0-.076zm-12.376 1.9c-.008.288.01.539-.03.79-.011.08-.034.13-.119.138-.181.015-.362.03-.543.048-.087.01-.112-.028-.127-.115-.04-.256-.033-.515-.058-.772-.046-.486-.065-.974-.097-1.462-.008-.118-.02-.236-.029-.354-.005-.067.021-.104.092-.107.235-.01.47-.053.705-.044.138.005.15.014.16.155.006.097.005.196.007.293l.039 1.43zm19.765-.28c0 .336.004.671 0 1.006-.003.175-.023.19-.186.206-.162.015-.322.027-.483.044-.091.01-.133-.017-.14-.122-.023-.446-.054-.891-.085-1.336-.024-.37-.051-.738-.077-1.106-.003-.042 0-.085-.003-.126-.004-.074.019-.118.1-.12.229-.008.456-.053.686-.044.14.005.142.007.153.155.034.48.037.962.035 1.444zm-26.596 5.993c.289.32.303.7.208 1.098-.096.397-.314.724-.58 1.018-.444.49-.98.853-1.55 1.16-.982.53-2.024.883-3.11 1.09-.782.15-1.569.264-2.364.308a11.61 11.61 0 0 1-.727.023c-.175 0-.351.005-.526 0-.15-.007-.171-.032-.183-.19-.046-.563-.084-1.126-.133-1.69-.059-.652-.126-1.304-.189-1.956-.045-.472-.085-.945-.135-1.416-.058-.555-.123-1.109-.187-1.663-.057-.512-.113-1.025-.175-1.538-.068-.567-.139-1.134-.214-1.7-.073-.546-.151-1.091-.23-1.635-.13-.897-.27-1.792-.424-2.684a56.901 56.901 0 0 0-.412-2.176c-.02-.097.009-.135.093-.17.806-.339 1.61-.682 2.415-1.021.15-.063.304-.116.463-.146.11-.02.139.002.136.114-.008.286.003.573-.025.86-.007.075-.01.152-.01.23-.013 1.026-.026 2.054.001 3.08.024.901.07 1.8.122 2.7.04.71.1 1.42.16 2.128.059.695.13 1.389.198 2.083.013.132.024.144.173.124.294-.04.589-.073.885-.073.92-.003 1.827.125 2.723.34.783.187 1.546.437 2.277.787.362.174.71.374 1.025.628.108.086.204.184.295.287zm19.625-.168c.356.315.486.701.385 1.18a2.288 2.288 0 0 1-.53 1.022c-.407.476-.903.838-1.438 1.14-1.05.595-2.17.981-3.347 1.203-.644.121-1.29.217-1.941.273-.369.033-.74.073-1.153.047h-.484c-.094 0-.148-.03-.156-.143a91.452 91.452 0 0 0-.12-1.48c-.048-.521-.1-1.042-.149-1.563-.044-.479-.085-.958-.134-1.437-.044-.452-.096-.901-.144-1.352-.046-.423-.089-.846-.138-1.269a217.567 217.567 0 0 0-.366-2.967c-.068-.511-.136-1.023-.211-1.533-.1-.661-.206-1.322-.31-1.982a57.366 57.366 0 0 0-.508-2.796c-.008-.041-.012-.083-.024-.123-.03-.09-.001-.138.087-.173.856-.338 1.685-.746 2.549-1.067.113-.043.227-.09.35-.103.11-.011.137.006.127.125-.059.64-.025 1.284-.055 1.926-.024.523-.022 1.048.004 1.572.007.132.012.266.01.398-.006.63.027 1.257.058 1.885.04.83.1 1.658.161 2.486.044.598.102 1.195.157 1.792.03.327.062.653.102.978.022.18.03.181.205.158.308-.042.616-.076.927-.072 1.09.014 2.16.188 3.209.49.71.203 1.401.457 2.055.814.294.159.568.347.822.57zM59.37 27.225c.403-.195 2.362-1.74 2.517-1.992-.95-.413-1.904-.798-2.93-1.112l.413 3.104zm22.244-1.89c.05-.055.044-.097-.024-.127-.135-.063-.27-.13-.406-.186a28.046 28.046 0 0 0-2.22-.833c-.066-.02-.133-.066-.217-.027l.406 3.05c.06.013.083-.015.11-.034.685-.507 1.374-1.009 2.031-1.554.11-.091.22-.183.32-.29z" id="Combined-Shape"/></g></g></g></g></svg>