<svg height="24" viewBox="0 0 24 24" width="24" xmlns="http://www.w3.org/2000/svg" xmlns:xlink="http://www.w3.org/1999/xlink"><linearGradient id="a"><stop offset="0" stop-color="#7dccf3"/><stop offset=".08" stop-color="#6ecaf2"/><stop offset=".23" stop-color="#48c3f1"/><stop offset=".44" stop-color="#0abaee"/><stop offset=".47" stop-color="#00b8ee"/><stop offset=".63" stop-color="#00afe9"/><stop offset=".89" stop-color="#0097dc"/><stop offset="1" stop-color="#008bd5"/></linearGradient><linearGradient id="b" x1="62.121033%" x2="20.680114%" xlink:href="#a" y1="72.836385%" y2="27.799595%"/><linearGradient id="c" x1="52.055353%" x2="39.992961%" xlink:href="#a" y1="88.52932%" y2="-25.03145%"/><linearGradient id="d"><stop offset="0" stop-color="#7dccf3"/><stop offset=".07" stop-color="#6ecaf2"/><stop offset=".21" stop-color="#48c3f1"/><stop offset=".39" stop-color="#0abaee"/><stop offset=".42" stop-color="#00b8ee"/><stop offset=".6" stop-color="#00afe9"/><stop offset=".88" stop-color="#0097dc"/><stop offset="1" stop-color="#008bd5"/></linearGradient><linearGradient id="e" x1="50.180726%" x2="15.466208%" xlink:href="#d" y1="46.014004%" y2="464.994155%"/><linearGradient id="f" x1="52.799463%" x2="47.509597%" xlink:href="#d" y1="17.191917%" y2="95.721055%"/><g fill="none" fill-rule="evenodd"><g fill-rule="nonzero" transform="translate(2.5 2)"><path d="m10.935 14.4871795c-1.28 2.3076923-4.94 1.7692308-6.6-.1153846-2.195-2.4897436-1.535-5.10512823-1.535-5.10512823s-1 .44358974-1.085 1.50256413c-.085 1.0589743 2.065 5.8743589 2.065 5.8743589l2.5625.748718s2.865-.1076923 3.025-.1461539c.16-.0384615 1.75-1.2230769 1.75-1.2230769z" fill="url(#b)"/><path d="m9.86 18.7179487-.2075-2.2846154c-3.525 1.4333334-5.3125-.6307692-5.7725-1.2820512l-.13-.1974359c-.55979269-.8984536-.93258303-1.9058299-1.095-2.9589744-.19353745-1.8034869.19084437-3.62256117 1.095-5.18205129.33-.6076923.5-1.02564102.5-1.5025641.01075795-.34995877-.11523011-.68982575-.34995984-.9440561s-.55875066-.40175772-.90004016-.40979005c-.87-.05384616-1.515.51282051-1.8925 1.36923077-.91982393 2.04676947-1.17398551 4.34253849-.725 6.54871797 0 .0410256.0125.0820513.02.125641.04271207.21885.09611265.4353619.16.6487179.10123985.3714921.23512157.7328011.4 1.0794872.23918839.5213535.55822685 1.0000627.945 1.4179487l1.25 1.9c.44534462.4467347.93558037.8438224 1.4625 1.1846154.17-.0384615.3375-.0820513.5-.1333333 1.8025 1.0102564 4.74.6205128 4.74.6205128z" fill="url(#c)"/><path d="m12 4.06153846c.165-.76923077-.4225-1.55641025-1.3075-1.79487179s-1.75.19487179-1.9025.95128205c-.1525.75641025.42 1.55641025 1.3075 1.79487179s1.735-.19487179 1.9025-.95128205z" fill="url(#e)"/><path d="m18.3875 6.26923077c-.1791289-.53026042-.3998509-1.04476408-.66-1.53846154-.7078984-1.34862733-1.7118297-2.50997218-2.9325-3.39230769-.2125-.15128205-.615-.38974359-.6275-.3948718-2.1875-1.24615384-3.31-.97179487-3.2925-.03846153.015.69743589.6225.87179487 1.16 1.14102564 1.83.92051282 2.8175 2.33589743 2.315 3.48461538-.46 1.05128205-2.1725 1.42307692-3.9475.75128205-1.815-.68717949-4.1975-2.32307692-4.5175-.47692307-.27 1.55897435 2 1.61025641 4.375 4.16410256 1.0175 1.09230773 1.2775 2.99487183.685 4.52307693-.7825 1.9820513-2.8725 2.4307692-3.68 2.4307692-2.64960357.1078062-5.1441486-1.2806763-6.5-3.6179487.05.1179487.105.2307692.1625.3410256-.05-.0871794-.08-.1435897-.0875-.1615384-.03-.0692308-.055-.1307692-.075-.1794872.0875.2564103.185.4846154.285.7153846l.015.025641c2.045 4.6717949 7.0975 6.9794872 11.6975 5.1846154 4.8825-1.9205128 7.4-7.7179487 5.625-12.96153843z" fill="url(#f)"/></g><path d="m0 0h24v24h-24z"/></g></svg>