<svg height="16" viewBox="0 0 16 16" width="16" xmlns="http://www.w3.org/2000/svg"><path d="m2 2h12c.5522847 0 1 .44771525 1 1v9c0 .5522847-.4477153 1-1 1h-4.5l-2.7093809 1.9352721c-.2247063.1605045-.53698134.1084586-.69748584-.1162477-.06057169-.0848003-.09313326-.1864076-.09313326-.2906191v-1.5284053h-4c-.55228475 0-1-.4477153-1-1v-9c0-.55228475.44771525-1 1-1zm3.5 4.6h5c.3313708 0 .6-.26862915.6-.6s-.2686292-.6-.6-.6h-5c-.33137085 0-.6.26862915-.6.6s.26862915.6.6.6zm0 3h3c.33137085 0 .6-.26862915.6-.6s-.26862915-.6-.6-.6h-3c-.33137085 0-.6.26862915-.6.6s.26862915.6.6.6z" fill="#d2d3d9" fill-rule="evenodd"/></svg>