<svg height="12" viewBox="0 0 12 12" width="12" xmlns="http://www.w3.org/2000/svg"><path d="m8.94479084 8.23768406 1.65876256 1.65876255c.1952621.19526219.1952621.51184459 0 .70710679-.1952622.1952621-.5118446.1952621-.70710679 0l-1.65876255-1.65876256c-.7513724.5979346-1.70280526.95520916-2.73768406.95520916-2.4300529 0-4.4-1.9699471-4.4-4.4s1.9699471-4.4 4.4-4.4 4.4 1.9699471 4.4 4.4c0 1.0348788-.35727456 1.98631166-.95520916 2.73768406zm-3.44479084.86231594c1.9882251 0 3.6-1.6117749 3.6-3.6s-1.6117749-3.6-3.6-3.6-3.6 1.6117749-3.6 3.6 1.6117749 3.6 3.6 3.6z" fill="#fff"/></svg>