<svg height="16" viewBox="0 0 16 16" width="16" xmlns="http://www.w3.org/2000/svg"><path d="m8 11.7446535 3.3184442 1.4058689c.0601236.0254715.1255686.035837.1906207.0301913.2200866-.0191006.3830179-.2130002.3639173-.4330868l-.3116051-3.59046533 2.3625164-2.72159061c.0428041-.04930977.0728859-.10834863.0876187-.1719614.0498448-.21521722-.0842161-.4300924-.2994333-.47993713l-3.5110268-.81316074-1.85832876-3.08790439c-.03366919-.05594664-.0805227-.10280015-.13646934-.13646934-.18928087-.11391094-.4350664-.05281154-.54897734.13646934l-1.85832875 3.08790439-3.51102677.81316074c-.06361276.01473284-.12265163.04481464-.17196139.08761871-.16682675.14481639-.18466967.39745307-.03985328.56427982l2.36251643 2.72159061-.31160512 3.59046533c-.00564566.0650521.00471982.1304972.03019135.1906207.08617627.2034124.32093427.2984511.52434666.2122748zm0 .7240263-3.0583843 1.2956938c-.54243304.2298034-1.16845437-.023633-1.39825776-.5660661-.06792407-.1603295-.09556536-.3348497-.08051027-.5083218l.28718524-3.30908769-2.17737068-2.50830493c-.38617705-.44487133-.33859593-1.11856914.10627539-1.50474619.13149272-.11414417.28892968-.19436231.45856373-.23364989l3.23587454-.74943494 1.71269521-2.84591143c.3037625-.504749.95919057-.66768074 1.46393957-.36391823.14919104.08978451.27413372.21472719.36391823.36391823l1.7126952 2.84591143 3.2358745.74943494c.5739126.13291929.9314084.70591976.7984891 1.27983235-.0392876.16963405-.1195058.32707102-.2336499.45856373l-2.1773707 2.50830493.2871852 3.30908769c.050935.5868976-.3835486 1.1039632-.9704462 1.1548981-.1734721.0150551-.3479923-.0125862-.5083218-.0805102z" fill="#fff"/></svg>