<svg height="16" viewBox="0 0 16 16" width="16" xmlns="http://www.w3.org/2000/svg"><path d="m8 12.1066667-3.18841425 1.3507813c-.37292272.1579898-.80331238-.0162477-.96130222-.3891704-.0466978-.1102266-.06570118-.2302092-.0553508-.3494713l.29939518-3.44977651-2.26994356-2.61494777c-.26549672-.30584904-.2327847-.76901629.07306434-1.03451301.09040124-.07847411.19863915-.13362408.31526256-.16063429l3.37345065-.78129784 1.78551198-2.96690792c.20883672-.34701493.65944352-.4590305 1.00645846-.25019378.10256883.06172685.18846693.14762494.25019378.25019378l1.78551198 2.96690792 3.3734507.78129784c.3945649.09138201.6403432.48531983.5489611.87988474-.0270102.11662341-.0821601.22486132-.1606342.31526256l-2.2699436 2.61494777.2993952 3.44977651c.0350178.4034921-.2636897.7589747-.6671818.7939925-.1192621.0103504-.2392447-.008653-.3494712-.0553508z" fill="#f9a018"/></svg>