<svg height="18" viewBox="0 0 22 18" width="22" xmlns="http://www.w3.org/2000/svg"><path d="m9.1037447 1.08490629c.6160429-1.04727287 1.9644267-1.39685386 3.0116996-.78081099.322418.18965769.5911533.45839293.780811.78081099l7.9656103 13.54153761c.6160429 1.0472728.2664619 2.3956566-.780811 3.0116995-.3380886.1988757-.7232002.3037447-1.1154443.3037447h-15.93122063c-1.21502645 0-2.2-.9849735-2.2-2.2 0-.3922441.10486907-.7773556.30374473-1.1154442zm2.2046011.37715196c-.3634271-.15232206-.7925456-.01641474-.9978932.33267622l-7.9656103 13.54153753c-.07231842.1229413-.11045263.2629819-.11045263.4056161 0 .4418278.3581722.8.8.8h15.93122063c.1426343 0 .2826748-.0381342.4056161-.1104526.3808265-.2240156.5079469-.714337.2839313-1.0951635l-7.9656103-13.54153753c-.0689665-.11724293-.1666884-.21496484-.2839313-.28393127zm-.3083458 11.27982985c.5522847 0 1 .4477153 1 1 0 .5522848-.4477153 1-1 1s-1-.4477152-1-1c0-.5522847.4477153-1 1-1zm0-7.69999997c.3543827 0 .6472582.26334363.6936098.60501415l.0063902.09498585v5.49999997c0 .3865994-.3134007.7-.7.7-.3543827 0-.6472582-.2633436-.6936098-.6050141l-.0063902-.0949859v-5.49999997c0-.38659932.3134007-.7.7-.7z" fill="#6c6f7e"/></svg>