<svg height="20" viewBox="0 0 22 20" width="22" xmlns="http://www.w3.org/2000/svg"><path d="m6.125 17.743635h1.35v-10.57500002h-1.35zm7.575-12.00000002h5.625c.675 0 1.35.3 1.8.9.375.525.45 1.275.3 1.875l-2.4 7.95000002c-.375 1.5-1.65 2.55-3.225 2.625h-12.6c-.975.075-1.875-.45-2.325-1.275-.225-.45-.375-.9-.375-1.35v-8.02500002c0-.975.525-1.875 1.35-2.325.45-.225.9-.3 1.35-.375h3.375l3.675-4.575c.75-.825 2.1-.9 2.925-.15.45.45.75 1.05.675 1.725zm5.475 1.35h-6.975l.15-1.575.225-2.775c.075-.375-.15-.75-.525-.825-.225-.075-.525 0-.675.225l-3.45 4.425-.45.6h-4.5c-.15 0-.3.075-.45.15-.45.225-.675.675-.675 1.125v8.02500002c0 .225.075.525.225.675.225.45.675.675 1.125.6h12.6c.3 0 .525-.075.75-.225.6-.3 1.05-.825 1.125-1.5l2.4-7.87500002 1.35.3-1.35-.3c.075-.225 0-.525-.075-.75-.225-.15-.525-.3-.825-.3l.15-1.35z" fill="#6c6f7e"/></svg>