<svg width="18px" height="18px" viewBox="0 0 18 18" xmlns="http://www.w3.org/2000/svg"><path d="M5.34375,14.0577262 L6.35625,14.0577262 L6.35625,6.12647624 L5.34375,6.12647624 L5.34375,14.0577262 Z M11.025,5.05772624 L15.24375,5.05772624 C15.75,5.05772624 16.25625,5.28272624 16.59375,5.73272624 C16.875,6.12647624 16.93125,6.68897624 16.81875,7.13897624 L15.01875,13.1014762 C14.7375,14.2264762 13.78125,15.0139762 12.6,15.0702262 L3.15,15.0702262 C2.41875,15.1264762 1.74375,14.7327262 1.40625,14.1139762 C1.2375,13.7764762 1.125,13.4389762 1.125,13.1014762 L1.125,7.08272624 C1.125,6.35147624 1.51875,5.67647624 2.1375,5.33897624 C2.475,5.17022624 2.8125,5.11397624 3.15,5.05772624 L5.68125,5.05772624 L8.4375,1.62647624 C9,1.00772624 10.0125,0.951476239 10.63125,1.51397624 C10.96875,1.85147624 11.19375,2.30147624 11.1375,2.80772624 L11.025,5.05772624 Z M15.13125,6.07022624 L9.9,6.07022624 L10.0125,4.88897624 L10.18125,2.80772624 C10.2375,2.52647624 10.06875,2.24522624 9.7875,2.18897624 C9.61875,2.13272624 9.39375,2.18897624 9.28125,2.35772624 L6.69375,5.67647624 L6.35625,6.12647624 L2.98125,6.12647624 C2.86875,6.12647624 2.75625,6.18272624 2.64375,6.23897624 C2.30625,6.40772624 2.1375,6.74522624 2.1375,7.08272624 L2.1375,13.1014762 C2.1375,13.2702262 2.19375,13.4952262 2.30625,13.6077262 C2.475,13.9452262 2.8125,14.1139762 3.15,14.0577262 L12.6,14.0577262 C12.825,14.0577262 12.99375,14.0014762 13.1625,13.8889762 C13.6125,13.6639762 13.95,13.2702262 14.00625,12.7639762 L15.80625,6.85772624 L16.81875,7.08272624 L15.80625,6.85772624 C15.8625,6.68897624 15.80625,6.46397624 15.75,6.29522624 C15.58125,6.18272624 15.35625,6.07022624 15.13125,6.07022624 L15.24375,5.05772624 L15.13125,6.07022624 Z" id="Fill-1" fill="#FFFFFF" fill-rule="nonzero"/>
</svg>