<svg width="18px" height="18px" viewBox="0 0 18 18" version="1.1" xmlns="http://www.w3.org/2000/svg"><path d="M9.6706561,2.03765481 C9.9609472,2.18280036 10.1963309,2.4181841 10.3414765,2.7084752 L16.1873358,12.8893655 C16.5578196,13.6303333 16.2574831,14.5313428 15.5165154,14.9018267 C15.3082322,15.0059683 15.0785626,15.0601859 14.845695,15.0601859 L3.15397644,15.0601859 C2.32554932,15.0601859 1.65397644,14.388613 1.65397644,13.5601859 C1.65397644,13.3273183 1.70819408,13.0976487 1.81233565,12.8893655 L7.65819492,2.7084752 C8.02867879,1.96750746 8.92968835,1.66717094 9.6706561,2.03765481 Z M8.69997462,3.15400204 L8.66442551,3.2115905 L2.81856624,13.3924808 C2.79253085,13.4445516 2.77897644,13.501969 2.77897644,13.5601859 C2.77897644,13.7442808 2.91163281,13.8973922 3.08656972,13.9291442 L3.15397644,13.9351859 L14.845695,13.9351859 C14.9039119,13.9351859 14.9613293,13.9216315 15.0134001,13.8955961 C15.1780596,13.8132664 15.2556808,13.6261414 15.2058465,13.4554732 L15.1811052,13.3924808 L9.3352459,3.2115905 C9.30803111,3.15716092 9.26812658,3.11045268 9.21925859,3.07519209 L9.16754081,3.0438854 C9.00288131,2.96155565 8.80660861,3.01173363 8.69997462,3.15400204 Z M8.99983571,10.9946203 C9.28460753,10.9946203 9.51995393,11.2062357 9.55720075,11.4807924 L9.56233571,11.5571203 L9.56233571,11.8163241 C9.56233571,12.1269842 9.31049588,12.3788241 8.99983571,12.3788241 C8.71506388,12.3788241 8.47971749,12.1672087 8.44247067,11.892652 L8.43733571,11.8163241 L8.43733571,11.5571203 C8.43733571,11.2464601 8.68917554,10.9946203 8.99983571,10.9946203 Z M8.99979967,6.26290596 C9.37162325,6.26290596 9.66815155,6.61424538 9.70105221,6.86189871 L9.70331511,6.93074738 L9.53811613,9.6402742 C9.52103126,9.9204933 9.28001877,10.1476558 8.99979967,10.1476558 C8.74293216,10.1476558 8.51988596,9.9567762 8.47055677,9.70912287 L8.46148321,9.6402742 L8.29628423,6.93074738 C8.27919936,6.65052828 8.59417395,6.26290596 8.99979967,6.26290596 Z" id="形状结合" fill="#FFFFFF"/>
</svg>