<svg width="18px" height="18px" viewBox="0 0 18 18" xmlns="http://www.w3.org/2000/svg"><path d="M5.34375,14.0577262 L6.35625,14.0577262 L6.35625,6.12647624 L5.34375,6.12647624 L5.34375,14.0577262 Z M11.025,5.05772624 L15.24375,5.05772624 C15.75,5.05772624 16.25625,5.28272624 16.59375,5.73272624 C16.875,6.12647624 16.93125,6.68897624 16.81875,7.13897624 L15.01875,13.1014762 C14.7375,14.2264762 13.78125,15.0139762 12.6,15.0702262 L3.15,15.0702262 C2.41875,15.1264762 1.74375,14.7327262 1.40625,14.1139762 C1.2375,13.7764762 1.125,13.4389762 1.125,13.1014762 L1.125,7.08272624 C1.125,6.35147624 1.51875,5.67647624 2.1375,5.33897624 C2.475,5.17022624 2.8125,5.11397624 3.15,5.05772624 L5.68125,5.05772624 L8.4375,1.62647624 C9,1.00772624 10.0125,0.951476239 10.63125,1.51397624 C10.96875,1.85147624 11.19375,2.30147624 11.1375,2.80772624 L11.025,5.05772624 Z" fill="#32aaff" fill-rule="evenodd"/></svg>
