<?xml version="1.0" encoding="UTF-8"?>
<svg width="44px" height="44px" viewBox="0 0 44 44" version="1.1" xmlns="http://www.w3.org/2000/svg" xmlns:xlink="http://www.w3.org/1999/xlink">
    <title>1. 原子/图标 Icon/操作/视频/暂停@1x</title>
    <g id="1.-原子/图标-Icon/操作/视频/暂停" stroke="none" stroke-width="1" fill="none" fill-rule="evenodd">
        <path d="M27.5,13 C28.8807119,13 30,14.1192881 30,15.5 L30,28.5 C30,29.8807119 28.8807119,31 27.5,31 C26.1192881,31 25,29.8807119 25,28.5 L25,15.5 C25,14.1192881 26.1192881,13 27.5,13 Z M16.5,13 C17.8807119,13 19,14.1192881 19,15.5 L19,28.5 C19,29.8807119 17.8807119,31 16.5,31 C15.1192881,31 14,29.8807119 14,28.5 L14,15.5 C14,14.1192881 15.1192881,13 16.5,13 Z" id="形状结合" fill="#FFFFFF"></path>
    </g>
</svg>