<svg height="24" viewBox="0 0 24 24" width="24" xmlns="http://www.w3.org/2000/svg"><path d="m12 2.3c5.3571621 0 9.7 4.34283793 9.7 9.7 0 5.3571621-4.3428379 9.7-9.7 9.7-5.35716207 0-9.7-4.3428379-9.7-9.7 0-5.35716207 4.34283793-9.7 9.7-9.7zm0 1.4c-4.58396342 0-8.3 3.71603658-8.3 8.3 0 4.5839634 3.71603658 8.3 8.3 8.3 4.5839634 0 8.3-3.7160366 8.3-8.3 0-4.58396342-3.7160366-8.3-8.3-8.3zm-2.5 4.3c.5128358 0 .9355072.38604019.9932723.88337887l.0067277.11662113v6c0 .5522847-.4477153 1-1 1-.51283584 0-.93550716-.3860402-.99327227-.8833789l-.00672773-.1166211v-6c0-.55228475.44771525-1 1-1zm5 0c.5128358 0 .9355072.38604019.9932723.88337887l.0067277.11662113v6c0 .5522847-.4477153 1-1 1-.5128358 0-.9355072-.3860402-.9932723-.8833789l-.0067277-.1166211v-6c0-.55228475.4477153-1 1-1z" fill="#6c6f7e"/></svg>