<svg height="16" viewBox="0 0 16 16" width="16" xmlns="http://www.w3.org/2000/svg"><path d="m5 2.8c.62132034 0 1.13235254.47219968 1.19380454 1.07730697l.00619546.12269303v8c0 .6627417-.5372583 1.2-1.2 1.2-.62132034 0-1.13235254-.4721997-1.19380454-1.077307l-.00619546-.122693v-8c0-.6627417.5372583-1.2 1.2-1.2zm6 0c.6213203 0 1.1323525.47219968 1.1938045 1.07730697l.0061955.12269303v8c0 .6627417-.5372583 1.2-1.2 1.2-.6213203 0-1.13235254-.4721997-1.19380454-1.077307l-.00619546-.122693v-8c0-.6627417.5372583-1.2 1.2-1.2z" fill="#c0c0c0"/></svg>