<svg height="24" viewBox="0 0 24 24" width="24" xmlns="http://www.w3.org/2000/svg"><path d="m12 2.3c5.3571621 0 9.7 4.34283793 9.7 9.7 0 5.3571621-4.3428379 9.7-9.7 9.7-5.35716207 0-9.7-4.3428379-9.7-9.7 0-5.35716207 4.34283793-9.7 9.7-9.7zm0 1.4c-4.58396342 0-8.3 3.71603658-8.3 8.3 0 4.5839634 3.71603658 8.3 8.3 8.3 4.5839634 0 8.3-3.7160366 8.3-8.3 0-4.58396342-3.7160366-8.3-8.3-8.3zm-2.38824104 4.11716992c.19260465-.26964808.56733454-.33210412.83698264-.13949946l5.3677209 3.83406414c.0538775.0384836.1010136.0856195.1394976.1394967.1926061.2696471.1301521.6443773-.1394949.8369834l-5.3677209 3.8341087c-.1017608.0726867-.22369.1117609-.3487443.1117609-.33137085 0-.6-.2686291-.6-.6v-7.6681728c0-.12505322.03907353-.24698138.11175896-.34874158z" fill="#6c6f7e"/></svg>