<?xml version="1.0" encoding="UTF-8"?>
<svg width="15px" height="15px" viewBox="0 0 15 15" version="1.1" xmlns="http://www.w3.org/2000/svg" xmlns:xlink="http://www.w3.org/1999/xlink">
    <title>编组 10</title>
    <g id="页面-1" stroke="none" stroke-width="1" fill="none" fill-rule="evenodd" fill-opacity="0.9">
        <g id="编组-10" fill="#FFFFFF" fill-rule="nonzero">
            <g id="编组-3">
                <path d="M7,8 L7,11.7180574 C7,12.1638168 6.95358719,12.3254599 6.86643365,12.4884229 C6.7792801,12.6513858 6.65138581,12.7792801 6.48842285,12.8664336 C6.32545989,12.9535872 6.16381677,13 5.7180574,13 L3.2819426,13 C2.83618323,13 2.67454011,12.9535872 2.51157715,12.8664336 C2.34861419,12.7792801 2.2207199,12.6513858 2.13356635,12.4884229 C2.04641281,12.3254599 2,12.1638168 2,11.7180574 L2,9.2819426 C2,8.83618323 2.04641281,8.67454011 2.13356635,8.51157715 C2.2207199,8.34861419 2.34861419,8.2207199 2.51157715,8.13356635 C2.67454011,8.04641281 2.83618323,8 3.2819426,8 L7,8 Z M11.7180574,8 C12.1638168,8 12.3254599,8.04641281 12.4884229,8.13356635 C12.6513858,8.2207199 12.7792801,8.34861419 12.8664336,8.51157715 C12.9535872,8.67454011 13,8.83618323 13,9.2819426 L13,11.7180574 C13,12.1638168 12.9535872,12.3254599 12.8664336,12.4884229 C12.7792801,12.6513858 12.6513858,12.7792801 12.4884229,12.8664336 C12.3254599,12.9535872 12.1638168,13 11.7180574,13 L9.2819426,13 C8.83618323,13 8.67454011,12.9535872 8.51157715,12.8664336 C8.34861419,12.7792801 8.2207199,12.6513858 8.13356635,12.4884229 C8.04641281,12.3254599 8,12.1638168 8,11.7180574 L8,8 L11.7180574,8 Z M5.8,9.2 L3.199,9.199 L3.199,11.8 L5.8,11.8 L5.8,9.2 Z M11.8,11.8 L11.8,9.199 L9.2,9.2 L9.199,11.8 L11.8,11.8 Z M5.7180574,2 C6.16381677,2 6.32545989,2.04641281 6.48842285,2.13356635 C6.65138581,2.2207199 6.7792801,2.34861419 6.86643365,2.51157715 C6.95358719,2.67454011 7,2.83618323 7,3.2819426 L7,7 L3.2819426,7 C2.83618323,7 2.67454011,6.95358719 2.51157715,6.86643365 C2.34861419,6.7792801 2.2207199,6.65138581 2.13356635,6.48842285 C2.04641281,6.32545989 2,6.16381677 2,5.7180574 L2,3.2819426 C2,2.83618323 2.04641281,2.67454011 2.13356635,2.51157715 C2.2207199,2.34861419 2.34861419,2.2207199 2.51157715,2.13356635 C2.67454011,2.04641281 2.83618323,2 3.2819426,2 L5.7180574,2 Z M11.7180574,2 C12.1638168,2 12.3254599,2.04641281 12.4884229,2.13356635 C12.6513858,2.2207199 12.7792801,2.34861419 12.8664336,2.51157715 C12.9535872,2.67454011 13,2.83618323 13,3.2819426 L13,5.7180574 C13,6.16381677 12.9535872,6.32545989 12.8664336,6.48842285 C12.7792801,6.65138581 12.6513858,6.7792801 12.4884229,6.86643365 C12.3254599,6.95358719 12.1638168,7 11.7180574,7 L8,7 L8,3.2819426 C8,2.83618323 8.04641281,2.67454011 8.13356635,2.51157715 C8.2207199,2.34861419 8.34861419,2.2207199 8.51157715,2.13356635 C8.67454011,2.04641281 8.83618323,2 9.2819426,2 L11.7180574,2 Z M5.8,3.199 L3.199,3.199 L3.199,5.8 L5.8,5.8 L5.8,3.199 Z M11.8,3.199 L9.199,3.199 L9.2,5.8 L11.8,5.8 L11.8,3.199 Z" id="形状结合"></path>
            </g>
        </g>
    </g>
</svg>