<?xml version="1.0" encoding="UTF-8"?>
<svg width="20px" height="20px" viewBox="0 0 20 20" version="1.1" xmlns="http://www.w3.org/2000/svg" xmlns:xlink="http://www.w3.org/1999/xlink">
    <title>矩形</title>
    <g id="增加品类卡及排行榜卡【steven】" stroke="none" stroke-width="1" fill="none" fill-rule="evenodd">
        <g id="list" transform="translate(-497.000000, -2197.000000)">
            <g id="编组-28备份" transform="translate(351.000000, 2183.000000)">
                <g id="编组-20" transform="translate(139.000000, 14.000000)">
                    <g id="编组-23" transform="translate(7.000000, 0.000000)">
                        <path d="M12.5880971,3.5 C13.5410082,3.5 14.3134952,4.27603977 14.3134952,5.23333333 L14.3134682,7.85921731 C14.4456488,7.93409549 14.5785847,8.01416064 14.7110764,8.09969602 C16.1534783,9.03089695 16.7546606,10.8329482 14.6300327,10.8287316 C15.1777712,10.6947561 15.8799101,10.387497 15.1094263,9.66314924 C14.9136452,9.47909138 14.6389285,9.30582003 14.3149999,9.14882548 L14.3134952,14.7666667 C14.3134952,15.7239602 13.5410082,16.5 12.5880971,16.5 L7.41190285,16.5 C6.45899179,16.5 5.68650475,15.7239602 5.68650475,14.7666667 L5.68653176,12.1407827 C5.55435119,12.0659045 5.42141532,11.9858394 5.28892362,11.900304 C3.84652173,10.969103 3.24533942,9.16705185 5.36996729,9.17126841 C4.8222288,9.30524393 4.1200899,9.61250295 4.89057369,10.3368508 C5.08635476,10.5209086 5.36107152,10.69418 5.68500008,10.8511745 L5.68650475,5.23333333 C5.68650475,4.27603977 6.45899179,3.5 7.41190285,3.5 L12.5880971,3.5 Z M12.5880971,4.36666667 L7.41190285,4.36666667 C6.96947986,4.36666667 6.60484171,4.70123483 6.55500781,5.13226169 L6.5492038,5.23333333 L6.54856222,11.1961764 C7.1619483,11.3993747 7.83979316,11.5497365 8.46089884,11.6248751 L8.67314738,10.7756136 L11.1926124,13.1542318 L7.91879652,13.7882206 L8.09576902,13.0860658 C7.84392924,13.027676 7.25344151,12.873106 6.54994477,12.5690734 L6.5492038,14.7666667 C6.5492038,15.2111244 6.88224031,15.5774395 7.31129392,15.6275026 L7.41190285,15.6333333 L12.5880971,15.6333333 C13.0305201,15.6333333 13.3951583,15.2987652 13.4449922,14.8677383 L13.4507962,14.7666667 L13.4514378,8.80382363 C12.8380517,8.60062527 12.1602068,8.45026351 11.5391012,8.3751249 L11.3268526,9.22438636 L8.80738763,6.8457682 L12.0812035,6.21177943 L11.904231,6.91393424 C12.1560708,6.97232405 12.7465585,7.126894 13.4500552,7.43092658 L13.4507962,5.23333333 C13.4507962,4.78887561 13.1177597,4.42256046 12.6887061,4.37249737 L12.5880971,4.36666667 Z" id="形状结合" fill="#FFFFFF" fill-rule="nonzero"></path>
                        <g id="编组-22" transform="translate(2.000000, 4.169299)"></g>
                    </g>
                </g>
            </g>
        </g>
    </g>
</svg>