<?xml version="1.0" encoding="UTF-8"?>
<svg width="18px" height="18px" viewBox="0 0 18 18" version="1.1" xmlns="http://www.w3.org/2000/svg" xmlns:xlink="http://www.w3.org/1999/xlink">
  <title>矩形</title>
  <g id="页面-1" stroke="none" stroke-width="1" fill="none" fill-rule="evenodd">
    <g id="画板" transform="translate(-511.000000, -573.000000)">
      <g id="撤销" transform="translate(511.000000, 573.000000)">
        <rect id="矩形" fill-opacity="0" fill="#D8D8D8" x="0" y="0" width="18" height="18"></rect>
        <path d="M6.40312089,5.88816595 L10.8210127,5.88816595 L10.8210125,5.88816595 C13.1290053,5.88816585 15,7.7040602 15,9.94408297 C15,12.1841057 13.1290053,14 10.8210125,14 L5.24902909,14 L5.24902908,14 C4.86436362,14 4.55253116,13.697351 4.55253116,13.3240138 C4.55253118,12.9506767 4.86436362,12.6480277 5.24902908,12.6480277 L10.8210125,12.6480277 L10.8210123,12.6480277 C12.3596742,12.6480277 13.607004,11.4374302 13.607004,9.94408297 C13.6070041,8.45073446 12.3596728,7.24013829 10.8210123,7.24013829 L6.35367194,7.24013829 L7.15952004,8.02225429 L7.15952003,8.02225428 C7.43601202,8.2818092 7.4433579,8.70976126 7.17592677,8.97811061 C6.90849606,9.24645995 6.46755846,9.2535895 6.19106647,8.99403417 C6.18527078,8.98859352 6.17957288,8.98305558 6.17397534,8.97742287 L4.20427377,7.06641525 L4.20427376,7.06641523 C3.93212264,6.80257334 3.93187777,6.37456187 4.20372588,6.11042688 C4.20390841,6.11024952 4.20409105,6.11007227 4.20427378,6.10989511 L6.17397535,4.19820093 L6.1739753,4.19820098 C6.44593325,3.93406467 6.88702049,3.93391415 7.15917161,4.19786289 C7.43132273,4.46181173 7.43147781,4.88990902 7.15951996,5.15404533 L6.40312321,5.88816631 L6.40312089,5.88816595 Z" id="路径" fill="#9EA2B3" fill-rule="nonzero"></path>
      </g>
    </g>
  </g>
</svg>
