<?xml version="1.0" encoding="UTF-8"?>
<svg width="24px" height="8px" viewBox="0 0 24 8" version="1.1" xmlns="http://www.w3.org/2000/svg" xmlns:xlink="http://www.w3.org/1999/xlink">
    <title>超能力</title>
    <g id="装扮中心二期" stroke="none" stroke-width="1" fill="none" fill-rule="evenodd">
        <path d="M1.34375,7.5234375 L1.453125,6.5 L2.765625,7.5234375 L7.625,7.5234375 L7.625,6.484375 L3.21875,6.484375 L2.96875,6.296875 L2.96875,5.453125 L3.9375,5.453125 L3.9375,4.390625 L2.96875,4.390625 L2.96875,3.765625 L4.09375,3.765625 L4.09375,2.734375 L2.75,2.734375 L2.75,2.203125 L3.9375,2.203125 L3.9375,1.140625 L2.75,1.140625 L2.75,0.65625 L1.625,0.65625 L1.625,1.140625 L0.46875,1.140625 L0.46875,2.203125 L1.625,2.203125 L1.625,2.734375 L0.34375,2.734375 L0.34375,3.765625 L1.8125,3.765625 L1.8125,5.46875 L1.59375,5.28125 L1.59375,4.140625 L0.46875,4.140625 L0.46875,5.4375 L0.265625,7.5234375 L1.34375,7.5234375 Z M5.3125,3.421875 L5.8125,1.875 L6.359375,1.875 L6.328125,2.515625 L5.84375,2.515625 L5.84375,3.421875 L7.46875,3.421875 L7.53125,0.84375 L4.25,0.84375 L4.25,1.875 L4.765625,1.875 L4.234375,3.421875 L5.3125,3.421875 Z M7.5,6.21875 L7.5,3.703125 L4.21875,3.703125 L4.21875,6.21875 L7.5,6.21875 Z M6.34375,5.234375 L5.296875,5.234375 L5.296875,4.765625 L6.34375,4.765625 L6.34375,5.234375 Z M12.171875,2.671875 L11.65625,1.125 L10.546875,1.125 L10.734375,1.71875 L9.921875,1.71875 L10.359375,0.703125 L9.21875,0.703125 L8.28125,2.671875 L12.171875,2.671875 Z M15.28125,3.953125 L15.53125,2.546875 L14.5,2.546875 L14.421875,2.96875 L13.390625,2.96875 L13.390625,2.75 L15.28125,1.828125 L15.28125,0.71875 L13.390625,1.609375 L13.390625,0.703125 L12.328125,0.703125 L12.328125,3.953125 L15.28125,3.953125 Z M9.53125,7.5234375 L9.53125,6.25 L10.875,6.25 L10.875,6.53125 L10.234375,6.53125 L10.234375,7.5234375 L11.9375,7.5234375 L11.9375,2.90625 L8.46875,2.90625 L8.46875,7.5234375 L9.53125,7.5234375 Z M10.875,4.109375 L9.53125,4.109375 L9.53125,3.84375 L10.875,3.84375 L10.875,4.109375 Z M15.34375,7.5234375 L15.546875,6.0625 L14.46875,6.0625 L14.390625,6.5625 L13.390625,6.5625 L13.390625,6.1875 L15.296875,5.375 L15.296875,4.25 L13.390625,5.09375 L13.390625,4.1875 L12.328125,4.1875 L12.328125,7.5234375 L15.34375,7.5234375 Z M10.875,5.3125 L9.53125,5.3125 L9.53125,5.046875 L10.875,5.046875 L10.875,5.3125 Z M17.59375,7.5234375 L19.4375,2.421875 L22.171875,2.421875 L22.0625,6.484375 L20.046875,6.484375 L20.046875,7.5234375 L23.21875,7.5234375 L23.34375,1.359375 L19.5,1.359375 L19.5,0.703125 L18.34375,0.703125 L18.34375,1.359375 L16.59375,1.359375 L16.59375,2.421875 L18.234375,2.421875 L16.375,7.5234375 L17.59375,7.5234375 Z" id="超能力" fill="#8F929B" fill-rule="nonzero"></path>
    </g>
</svg>