<?xml version="1.0" encoding="UTF-8"?>
<svg width="20px" height="20px" viewBox="0 0 20 20" version="1.1" xmlns="http://www.w3.org/2000/svg" xmlns:xlink="http://www.w3.org/1999/xlink">
    <title>消息@1x</title>
    <g id="装扮中心二期" stroke="none" stroke-width="1" fill="none" fill-rule="evenodd">
        <g id="畅读卡未开通-无皮肤" transform="translate(-299.000000, -56.000000)">
            <g id="设置及消息" transform="translate(259.000000, 55.000000)">
                <g id="编组" transform="translate(40.000000, 0.000000)">
                    <g id="编组-19" transform="translate(0.000000, 1.000000)">
                        <rect id="矩形" stroke="#979797" stroke-width="0.909090909" fill="#D8D8D8" opacity="0" x="0.454545455" y="0.454545455" width="19.0909091" height="19.0909091"></rect>
                        <path d="M17.0002166,2.5 C17.8274294,2.5 18.5,3.17333915 18.5,4.00049089 L18.5,15.9995091 C18.5,16.8266608 17.8274294,17.5 17.0002166,17.5 L2.99978341,17.5 C2.17257063,17.5 1.5,16.8266608 1.5,15.9995091 L1.5,4.00049089 C1.5,3.17333915 2.17257063,2.5 2.99978341,2.5 L17.0002166,2.5 Z M17.0002166,3.50059998 L2.99978341,3.50059998 C2.72404582,3.50059998 2.49985561,3.72395549 2.49985561,4.00049089 L2.49985561,15.9995091 C2.49985561,16.2760445 2.72404582,16.5002182 2.99978341,16.5002182 L17.0002166,16.5002182 C17.2759542,16.5002182 17.5009626,16.2760445 17.5009626,15.9995091 L17.5009626,4.00049089 C17.5009626,3.72395549 17.2759542,3.50059998 17.0002166,3.50059998 Z M4.25074842,7.14726737 L9.74095394,10.3315152 C9.89477788,10.4215119 10.0886942,10.4215119 10.2359725,10.3347878 L15.7515426,7.16608487 C15.992097,7.02863532 16.2972903,7.11126868 16.43475,7.35098724 C16.5722097,7.58988764 16.488752,7.89587651 16.249834,8.03332606 L10.7391731,11.1987564 C10.5117101,11.3329333 10.2531549,11.40084 9.99378159,11.40084 C9.73440824,11.40084 9.47258026,11.3329333 9.23938971,11.1971201 L3.74918419,8.01205411 C3.51026616,7.87378641 3.42926313,7.56697938 3.56754103,7.32889713 C3.70581893,7.08999673 4.01101218,7.00736337 4.25074842,7.14726737 Z" id="形状结合" fill="#5C5D60" fill-rule="nonzero"></path>
                    </g>
                </g>
            </g>
        </g>
    </g>
</svg>