<?xml version="1.0" encoding="UTF-8"?>
<svg width="20px" height="20px" viewBox="0 0 20 20" version="1.1" xmlns="http://www.w3.org/2000/svg" xmlns:xlink="http://www.w3.org/1999/xlink">
    <title>装扮@1x</title>
    <g id="装扮中心二期" stroke="none" stroke-width="1" fill="none" fill-rule="evenodd">
        <g id="畅读卡未开通-无皮肤" transform="translate(-259.000000, -56.000000)">
            <g id="设置及消息" transform="translate(259.000000, 55.000000)">
                <g id="编组-19" transform="translate(0.000000, 1.000000)">
                    <rect id="矩形" stroke="#979797" stroke-width="0.909090909" fill="#D8D8D8" opacity="0" x="0.454545455" y="0.454545455" width="19.0909091" height="19.0909091"></rect>
                    <path d="M6.85,2.35 C7.45,3.85 8.5,4.6 10,4.6 C11.5,4.6 12.55,3.85 13.15,2.35 L14.7273188,2.35 C14.8690621,2.35 15.0041446,2.4101607 15.0989659,2.51551763 L19,6.85 L16.3,9.55 L14.95,8.875 L14.95,16.65 C14.95,17.2022847 14.5022847,17.65 13.95,17.65 L6.05,17.65 C5.49771525,17.65 5.05,17.2022847 5.05,16.65 L5.05,8.875 L3.7,9.55 L1,6.85 L4.90103413,2.51551763 C4.99585537,2.4101607 5.13093795,2.35 5.2726812,2.35 L6.85,2.35 Z" id="形状结合" stroke="#5C5D60" stroke-linejoin="round" fill-rule="nonzero"></path>
                </g>
            </g>
        </g>
    </g>
</svg>