<?xml version="1.0" encoding="UTF-8"?>
<svg width="20px" height="20px" viewBox="0 0 20 20" version="1.1" xmlns="http://www.w3.org/2000/svg" xmlns:xlink="http://www.w3.org/1999/xlink">
    <title>设置@1x</title>
    <g id="装扮中心二期" stroke="none" stroke-width="1" fill="none" fill-rule="evenodd">
        <g id="畅读卡未开通-无皮肤" transform="translate(-339.000000, -56.000000)">
            <g id="设置及消息" transform="translate(259.000000, 55.000000)">
                <g id="编组-7" transform="translate(80.000000, 1.000000)">
                    <rect id="矩形" fill="#D8D8D8" opacity="0" x="0" y="0" width="20" height="20"></rect>
                    <path d="M13.7328848,2 C14.2770252,2 14.7818893,2.29044794 15.0510956,2.75680098 L18.8011637,9.25628963 C19.0662788,9.7152792 19.0662788,10.2847208 18.8011637,10.7428922 L18.8011637,10.7437104 L15.0510956,17.243199 C14.7827075,17.7095521 14.2770252,18 13.7328848,18 L6.26629694,18 C5.72215656,18 5.21729248,17.7095521 4.94808619,17.2423809 L1.19883626,10.7437104 C0.933721247,10.2847208 0.933721247,9.7152792 1.19883626,9.25628963 L4.94808619,2.75680098 C5.21729248,2.29044794 5.72297482,2 6.26629694,2 L13.7328848,2 Z M13.7328848,3.00061362 L6.26629694,3.00061362 C6.07809801,3.00061362 5.90544595,3.09879321 5.81380125,3.25669871 L2.06455132,9.75700552 C1.97699791,9.90918388 1.97699791,10.0908161 2.06455132,10.2429945 L5.81380125,16.7433013 C5.90544595,16.902025 6.07809801,16.9993864 6.26629694,16.9993864 L13.7328848,16.9993864 C13.9202655,16.9993864 14.0937358,16.902025 14.1853805,16.7441195 L17.9354487,10.2429945 C18.0221838,10.0908161 18.0221838,9.90836572 17.9354487,9.75700552 L14.1853805,3.25669871 C14.0937358,3.09879321 13.9202655,3.00061362 13.7328848,3.00061362 Z M9.99959087,6.24970342 C12.066506,6.24970342 13.7480225,7.931847 13.7480225,10.0001636 C13.7480225,12.0684803 12.066506,13.7498057 9.99959087,13.7498057 C7.93349395,13.7498057 6.25197745,12.0684803 6.25197745,10.0001636 C6.25197745,7.931847 7.93349395,6.24970342 9.99959087,6.24970342 Z M9.99959087,7.25031704 C8.48418038,7.25031704 7.25188654,8.48410718 7.25188654,10.0001636 C7.25188654,11.5162201 8.48418038,12.7500102 9.99959087,12.7500102 C11.5158196,12.7500102 12.7472952,11.5162201 12.7472952,10.0001636 C12.7472952,8.48410718 11.5158196,7.25031704 9.99959087,7.25031704 Z" id="形状结合" fill="#5C5D60"></path>
                </g>
            </g>
        </g>
    </g>
</svg>