<svg height="16" viewBox="0 0 16 16" width="16" xmlns="http://www.w3.org/2000/svg"><path d="m8.39642354 2.30988548 2.71586066 3.01762298 2.6287062-1.46039234c.3554833-.19749072.7923429.05955893.7923429.46621721v6.99999997c0 1.0309316-.8357351 1.8666667-1.8666666 1.8666667h-9.33333337c-1.03093153 0-1.86666666-.8357351-1.86666666-1.8666667v-6.99999997c0-.40665828.43685959-.66370793.79234289-.46621721l2.62870621 1.46039234 2.71586069-3.01762298c.21186257-.23540286.58098451-.23540286.79284708 0zm-.39642354 1.15403298-2.60357646 2.89286273c-.16628171.18475746-.43814755.23015022-.6554331.10943602l-2.20765711-1.22647616v6.09359225c0 .4418278.3581722.8.8.8h9.33333337c.4418278 0 .8-.3581722.8-.8v-6.09359225l-2.2076571 1.22647616c-.2172856.1207142-.4891514.07532144-.6554331-.10943602zm2.3333333 6.00274821c.2945519 0 .5333334.23878146.5333334.53333333 0 .2945519-.2387815.5333333-.5333334.5333333h-4.66666663c-.29455187 0-.53333334-.2387814-.53333334-.5333333 0-.29455187.23878147-.53333333.53333334-.53333333z" fill="#c98a5d"/></svg>