<svg height="22" viewBox="0 0 22 22" width="22" xmlns="http://www.w3.org/2000/svg"><path d="m11 0c6.0749039 0 11 4.92406487 11 11 0 6.0749039-4.9250961 10.9989688-11 10.9989688-6.07490391 0-11-4.9240649-11-10.9989688 0-6.07593513 4.92509609-11 11-11zm0 2.06243555c-4.92715853 0-8.93756445 4.00937471-8.93756445 8.93756445 0 4.9271585 4.01040592 8.9365332 8.93756445 8.9365332 4.9281897 0 8.9375645-4.0093747 8.9375645-8.9365332 0-4.92818974-4.0093748-8.93756445-8.9375645-8.93756445zm2.02129 3.42601481 1.4581419 1.45814193-1.9190963 1.9201275h1.8778476v2.06243551h-2.4068623v1.3271773h2.4068623v2.0624356h-2.4068623v2.453267h-2.06243555v-2.453267h-2.40583107v-2.0624356h2.40583107v-1.3271773h-2.40583107v-2.06243551h1.87784757l-1.91909628-1.9201275 1.45814193-1.45814193 2.0201556 2.02118684z" fill="#907058" fill-rule="evenodd" transform="translate(0 0)"/></svg>