<?xml version="1.0" encoding="UTF-8"?>
<svg width="23px" height="22px" viewBox="0 0 23 22" version="1.1" xmlns="http://www.w3.org/2000/svg" xmlns:xlink="http://www.w3.org/1999/xlink">
    <title>俱乐部特权@1x</title>
    <g id="页面-1" stroke="none" stroke-width="1" fill="none" fill-rule="evenodd">
        <g id="畅读卡主页-未开通" transform="translate(-313.000000, -623.000000)">
            <g id="编组-9" transform="translate(304.000000, 614.000000)">
                <g id="编组-4" transform="translate(9.160234, 9.000000)">
                    <rect id="矩形" stroke="#F38F00" stroke-width="1.4" x="4.53976607" y="3.7" width="12.6" height="16.6" rx="1"></rect>
                    <path d="M11.8397661,9 L11.8397661,10.999 L13.8397661,11 L13.8397661,13 L11.8397661,12.999 L11.8397661,15 L9.83976607,15 L9.83976607,12.999 L7.83976607,13 L7.83976607,11 L9.83976607,10.999 L9.83976607,9 L11.8397661,9 Z" id="形状结合" fill="#F38F00"></path>
                    <path d="M9.83976607,1.48893406 L11.8397661,1.48893406 C12.3920508,1.48893406 12.8397661,1.93664931 12.8397661,2.48893406 L12.8397661,3.48893406 L12.8397661,3.48893406 L8.83976607,3.48893406 L8.83976607,2.48893406 C8.83976607,1.93664931 9.28748132,1.48893406 9.83976607,1.48893406 Z" id="矩形" fill="#F38F00"></path>
                </g>
            </g>
        </g>
    </g>
</svg>