<?xml version="1.0" encoding="UTF-8"?>
<svg width="24px" height="24px" viewBox="0 0 24 24" version="1.1" xmlns="http://www.w3.org/2000/svg" xmlns:xlink="http://www.w3.org/1999/xlink">
    <title>样式2月票每月领取通用券@2x</title>
    <g id="畅读卡】畅读卡主页已开通状态优化-梦楚" stroke="none" stroke-width="1" fill="none" fill-rule="evenodd">
        <g id="畅读卡-full备份-7" transform="translate(-47.000000, -440.000000)" fill="#F38F00">
            <g id="编组-18" transform="translate(-3.000000, 399.000000)">
                <g id="编组-12" transform="translate(19.000000, 0.000000)">
                    <g id="编组-8" transform="translate(15.000000, 33.000000)">
                        <g id="编组-6" transform="translate(8.000000, 0.000000)">
                            <g id="编组" transform="translate(8.000000, 8.000000)">
                                <path d="M21.349,4.8005 C21.709,4.8005 22,5.0925 22,5.4515 L22,18.5485 C22,18.9085 21.709,19.1995 21.349,19.1995 L2.651,19.1995 C2.291,19.1995 2,18.9085 2,18.5485 L2,5.4515 C2,5.0925 2.291,4.8005 2.651,4.8005 L21.349,4.8005 Z M20.698,6.1025 L3.301,6.1025 L3.301,17.8985 L20.698,17.8985 L20.698,6.1025 Z M18.9091,7.0963 L18.9091,16.5963 L17.1911,16.5963 C17.1911,15.8913 16.6281,15.3263 15.9331,15.3173 L15.9331,15.3173 L15.9331,8.3693 C16.6281,8.3603 17.1911,7.7953 17.1911,7.0963 L17.1911,7.0963 L18.9091,7.0963 Z" id="形状结合"></path>
                            </g>
                        </g>
                    </g>
                </g>
            </g>
        </g>
    </g>
</svg>