<?xml version="1.0" encoding="UTF-8"?>
<svg width="22px" height="16px" viewBox="0 0 22 16" version="1.1" xmlns="http://www.w3.org/2000/svg" xmlns:xlink="http://www.w3.org/1999/xlink">
    <title>形状结合@1x</title>
    <g id="最后一回合" stroke="none" stroke-width="1" fill="none" fill-rule="evenodd">
        <g id="畅读卡-权益日常" transform="translate(-223.000000, -444.000000)" fill="#F38F00" fill-rule="nonzero">
            <g id="编组-11" transform="translate(199.000000, 432.000000)">
                <g id="编组-3" transform="translate(15.000000, 0.000000)">
                    <g id="个性卡面" transform="translate(8.373874, 9.000000)">
                        <path d="M12.5013125,3.87995769 C12.7243999,3.87995769 12.9410813,3.95455431 13.116891,4.09188212 L14.9471992,5.52156526 C15.1230089,5.65889306 15.3396903,5.73348968 15.5627777,5.73348968 L21.464456,5.73348968 C22.0167408,5.73348968 22.464456,6.18120493 22.464456,6.73348968 C22.464456,6.82547516 22.4517643,6.91702078 22.4267399,7.00553693 L19.5215923,17.2816077 C19.3998481,17.7122404 19.0068195,18.0095604 18.5593084,18.0095604 L2.02898499,18.0095604 C1.47670024,18.0095604 1.02898499,17.5618452 1.02898499,17.0095604 C1.02898499,16.937645 1.03674266,16.8659395 1.05212337,16.7956881 L3.7077569,4.66608536 C3.80824948,4.20708559 4.21474667,3.87995769 4.68461852,3.87995769 L12.5013125,3.87995769 Z M12.432,5.079 L4.845,5.079 L2.277,16.809 L18.407,16.809 L21.199,6.933 L15.5627777,6.93348968 C15.1333344,6.93348968 14.7146813,6.807841 14.3576148,6.57403125 L14.208505,6.46725594 L12.432,5.079 Z M9.87620408,8.12054031 L11.6144853,13.1596028 L13.3722978,8.12054031 L14.9738603,8.12054031 L12.3371416,15.4056966 L10.8137041,15.4056966 L8.27464158,8.12054031 L9.87620408,8.12054031 Z" id="形状结合"></path>
                    </g>
                </g>
            </g>
        </g>
    </g>
</svg>