<?xml version="1.0" encoding="UTF-8"?>
<svg width="24px" height="24px" viewBox="0 0 24 24" version="1.1" xmlns="http://www.w3.org/2000/svg" xmlns:xlink="http://www.w3.org/1999/xlink">
    <title>样式2月票@2x</title>
    <g id="畅读卡】畅读卡主页已开通状态优化-梦楚" stroke="none" stroke-width="1" fill="none" fill-rule="evenodd">
        <g id="畅读卡-full备份-7" transform="translate(-219.000000, -440.000000)" fill="#F38F00">
            <g id="编组-18" transform="translate(-3.000000, 399.000000)">
                <g id="编组-12" transform="translate(19.000000, 0.000000)">
                    <g id="编组-10" transform="translate(191.000000, 33.000000)">
                        <g id="编组-7" transform="translate(4.000000, 0.000000)">
                            <g id="编组" transform="translate(8.000000, 8.000000)">
                                <path d="M18.967,2 C19.351,2 19.662,2.311 19.662,2.695 L19.662,6.916 C19.662,7.3 19.351,7.611 18.967,7.611 C18.482,7.611 18.088,8.002 18.088,8.482 C18.088,8.959 18.482,9.347 18.967,9.347 C19.351,9.347 19.662,9.658 19.662,10.042 L19.662,21.304 C19.662,21.688 19.351,22 18.967,22 L5.033,22 C4.649,22 4.338,21.688 4.338,21.304 L4.338,10.042 C4.338,9.658 4.649,9.347 5.033,9.347 C5.514,9.347 5.905,8.959 5.905,8.482 C5.905,8.002 5.514,7.611 5.033,7.611 C4.649,7.611 4.338,7.3 4.338,6.916 L4.338,2.695 C4.338,2.311 4.649,2 5.033,2 L18.967,2 Z M18.272,3.39 L5.728,3.39 L5.728,6.33 C6.637,6.624 7.295,7.477 7.295,8.482 C7.295,9.484 6.637,10.335 5.728,10.628 L5.728,20.609 L18.272,20.609 L18.272,10.629 C17.36,10.337 16.698,9.484 16.698,8.482 C16.698,7.477 17.36,6.623 18.272,6.329 L18.272,3.39 Z M16.1470449,12.4683391 L16.2275,12.4823 C16.4475,12.5373 16.5795,12.7573 16.5195,12.9773 L16.5195,12.9773 L16.4205,13.3573 L17.0245,13.1923 C17.1685,13.1533 17.3105,13.1423 17.4485,13.1643 L17.4485,13.1643 L17.4485,18.5673 L13.8565,19.5293 C13.2075,19.7003 12.5365,19.3153 12.3595,18.6603 L12.3595,18.6603 L11.6235,15.9103 C11.4465,15.2603 11.8375,14.5843 12.4865,14.4083 L12.4865,14.4083 L13.0975,14.2483 L12.8165,13.9733 C12.6575,13.8133 12.6575,13.5503 12.8225,13.3953 C12.9765,13.2363 13.2405,13.2303 13.3945,13.3953 L13.3945,13.3953 L14.0055,14.0003 L15.5075,13.5993 L15.7325,12.7683 C15.7875,12.5483 16.0135,12.4223 16.2275,12.4823 Z M14.2139766,15.5992551 L14.1315,15.6133 C13.9115,15.6673 13.7795,15.8933 13.8405,16.1133 L13.8405,16.1133 L14.0495,16.8833 C14.1035,17.1033 14.3295,17.2303 14.5495,17.1753 C14.7695,17.1143 14.8955,16.8893 14.8355,16.6743 L14.8355,16.6743 L14.6325,15.8983 C14.5715,15.6843 14.3525,15.5523 14.1315,15.6133 Z M16.2862539,15.043257 L16.2055,15.0573 C15.9855,15.1123 15.8585,15.3373 15.9135,15.5573 L15.9135,15.5573 L16.1235,16.3273 C16.1835,16.5483 16.4035,16.6743 16.6235,16.6193 C16.8385,16.5583 16.9705,16.3333 16.9095,16.1193 L16.9095,16.1193 L16.7065,15.3433 C16.6455,15.1283 16.4205,14.9963 16.2055,15.0573 Z" id="形状结合"></path>
                            </g>
                        </g>
                    </g>
                </g>
            </g>
        </g>
    </g>
</svg>