<?xml version="1.0" encoding="UTF-8"?>
<svg width="24px" height="24px" viewBox="0 0 24 24" version="1.1" xmlns="http://www.w3.org/2000/svg" xmlns:xlink="http://www.w3.org/1999/xlink">
    <title>样式2特权@2x</title>
    <g id="畅读卡】畅读卡主页已开通状态优化-梦楚" stroke="none" stroke-width="1" fill="none" fill-rule="evenodd">
        <g id="畅读卡-full备份-7" transform="translate(-133.000000, -440.000000)" fill="#F38F00">
            <g id="编组-18" transform="translate(-3.000000, 399.000000)">
                <g id="编组-12" transform="translate(19.000000, 0.000000)">
                    <g id="编组-9" transform="translate(105.000000, 33.000000)">
                        <g id="编组-5" transform="translate(4.000000, 0.000000)">
                            <g id="编组-19" transform="translate(8.000000, 8.000000)">
                                <path d="M3.705,8.3088283 L20.285,8.3088283 L20.285,5.8988283 L3.705,5.8988283 L3.705,8.3088283 Z M4.995,20.3588283 L18.995,20.3588283 L18.995,9.7688283 L4.995,9.7688283 L4.995,20.3588283 Z M21.015,4.4488283 L15.285,4.4488283 C15.905,4.4488283 16.415,3.9388283 16.415,3.3188283 C16.415,2.4288283 15.445,1.8888283 14.695,2.3488283 L11.995,3.9988283 L9.295,2.3488283 C8.545,1.8888283 7.585,2.4288283 7.585,3.3188283 C7.585,3.9388283 8.085,4.4488283 8.715,4.4488283 L2.985,4.4488283 C2.575,4.4488283 2.255,4.7688283 2.255,5.1688283 L2.255,9.0388283 C2.255,9.4388283 2.575,9.7688283 2.985,9.7688283 L3.545,9.7688283 L3.545,21.0888283 C3.545,21.4888283 3.865,21.8188283 4.265,21.8188283 L19.725,21.8188283 C20.125,21.8188283 20.455,21.4888283 20.455,21.0888283 L20.455,9.7688283 L21.015,9.7688283 C21.415,9.7688283 21.745,9.4388283 21.745,9.0388283 L21.745,5.1688283 C21.745,4.7688283 21.415,4.4488283 21.015,4.4488283 L21.015,4.4488283 Z" id="Fill-1"></path>
                            </g>
                        </g>
                    </g>
                </g>
            </g>
        </g>
    </g>
</svg>