<?xml version="1.0" encoding="UTF-8"?>
<svg width="26px" height="26px" viewBox="0 0 26 26" version="1.1" xmlns="http://www.w3.org/2000/svg" xmlns:xlink="http://www.w3.org/1999/xlink">
    <title>阅读器-星光</title>
    <defs>
        <filter color-interpolation-filters="auto" id="filter-1">
            <feColorMatrix in="SourceGraphic" type="matrix" values="0 0 0 0 0.952941 0 0 0 0 0.560784 0 0 0 0 0.000000 0 0 0 1.000000 0"></feColorMatrix>
        </filter>
    </defs>
    <g id="我的星光" stroke="none" stroke-width="1" fill="none" fill-rule="evenodd">
        <g id="选中连续档位" transform="translate(-201.000000, -742.000000)">
            <g id="编组-8" transform="translate(0.000000, 640.000000)">
                <g id="编组-12" transform="translate(16.000000, 62.000000)">
                    <g id="编组-21" transform="translate(170.000000, 33.000000)">
                        <g id="月票" transform="translate(8.000000, 0.000000)" filter="url(#filter-1)">
                            <g transform="translate(7.000000, 7.000000)">
                                <g id="编组" transform="translate(12.440237, 13.000000) rotate(-360.000000) translate(-12.440237, -13.000000) translate(2.415486, 2.975248)" stroke="#F38F00" stroke-linecap="square" stroke-linejoin="round" stroke-width="1.69543528">
                                    <path d="M4.80424352,15.2452603 L4.80424352,15.2452603 L4.80424352,15.2452603 C6.82058183,12.5950443 6.88105448,8.94207634 4.9535424,6.22657226 L1.83957625,1.83957625 L1.83957625,1.83957625 L6.22657226,4.9535424 C8.94207634,6.88105448 12.5950443,6.82058183 15.2452603,4.80424352 L15.2452603,4.80424352 L15.2452603,4.80424352 C13.228922,7.45445957 13.1684494,11.1074275 15.0959614,13.8229316 L18.2099276,18.2099276 L18.2099276,18.2099276 L13.8229316,15.0959614 C11.1074275,13.1684494 7.45445957,13.228922 4.80424352,15.2452603 Z" id="星形" transform="translate(10.024752, 10.024752) rotate(-345.000000) translate(-10.024752, -10.024752) "></path>
                                </g>
                                <path d="M4.75794832,6.55928725 C3.29593242,8.30130023 2.41548556,10.5478304 2.41548556,13 C2.41548556,18.5365176 6.90371988,23.0247519 12.4402375,23.0247519 C12.9054924,23.0247519 13.3633446,22.9930574 13.8117529,22.9317097 M20.2164617,19.3271107 C21.6221724,17.6015397 22.4649894,15.3991951 22.4649894,13 C22.4649894,7.46348239 17.9767551,2.97524808 12.4402375,2.97524808 C11.8087609,2.97524808 11.1909213,3.03363515 10.5918227,3.14530526" id="形状" stroke="#F38F00" stroke-width="1.69543528" stroke-linecap="round"></path>
                            </g>
                        </g>
                    </g>
                </g>
            </g>
        </g>
    </g>
</svg>