<?xml version="1.0" encoding="UTF-8"?>
<svg width="24px" height="24px" viewBox="0 0 24 24" version="1.1" xmlns="http://www.w3.org/2000/svg" xmlns:xlink="http://www.w3.org/1999/xlink">
    <title>隐藏</title>
    <g id="【个性装扮】装扮路径优化—锤锤" stroke="none" stroke-width="1" fill="none" fill-rule="evenodd">
        <g id="空间背景-获取焦点" transform="translate(-24.000000, -729.000000)" fill-rule="nonzero" stroke="#6C6F7E" stroke-width="1.6">
            <g id="分子/Bars/购买/结算栏" transform="translate(0.000000, 722.000000)">
                <g id="编组-11" transform="translate(24.000000, 7.000000)">
                    <g id="编组-12" transform="translate(2.365201, 4.666667)">
                        <path d="M19.0606524,6.3904461 C17.2079384,2.45791657 13.5825526,0 9.63485129,0 C5.68715001,0 2.06176419,2.45791657 0.209050207,6.3904461 C-0.0696834022,6.99821672 -0.0696834022,7.72077336 0.209050207,8.32854398 C0.70562384,9.3663438 1.33103841,10.3188186 2.06635091,11.1571193 C4.46847415,13.8483763 7.85711256,15.0999359 11.2049968,14.5323864 C14.5528809,13.9648368 17.4657826,11.6450096 19.0606524,8.27616297 C19.3392475,7.68687644 19.3392475,6.97973262 19.0606524,6.3904461 L19.0606524,6.3904461 Z" id="形状"></path>
                        <path d="M9.63488028,10.6331715 C11.4573753,10.6331715 12.9347994,9.15574738 12.9347994,7.3332524 C12.9347994,5.51075742 11.4573753,4.03333333 9.63488028,4.03333333 C7.81238531,4.03333333 6.33496122,5.51075742 6.33496122,7.3332524 C6.32622937,8.21109308 6.67109375,9.05552332 7.29185156,9.67628113 C7.91260936,10.2970389 8.75703961,10.6419033 9.63488028,10.6331715 L9.63488028,10.6331715 Z" id="路径"></path>
                    </g>
                </g>
            </g>
        </g>
    </g>
</svg>