<?xml version="1.0" encoding="UTF-8"?>
<svg width="12px" height="12px" viewBox="0 0 12 12" version="1.1" xmlns="http://www.w3.org/2000/svg" xmlns:xlink="http://www.w3.org/1999/xlink">
    <title>男</title>
    <g id="页面-2" stroke="none" stroke-width="1" fill="none" fill-rule="evenodd">
        <g id="2有月票投喂" transform="translate(-262.000000, -247.000000)" fill="#32AAFF" fill-rule="nonzero">
            <g id="编组-2" transform="translate(258.000000, 243.000000)">
                <g id="编组-14" transform="translate(4.000000, 4.000000)">
                    <path d="M7.18385686,1 L7.18385686,1.95303154 L9.18331502,1.95303154 L7.22302255,4.06396124 C5.71665026,3.01452188 3.41792615,3.14909114 2.05114434,4.62031473 C0.564857017,6.2220906 0.669298831,8.74677056 2.27207895,10.2340621 C3.87385482,11.7213537 6.36840732,11.6118907 7.85670315,10.0091105 C9.22348495,8.53788693 9.3349565,6.37473633 7.98524692,4.77195621 L10.0459642,2.55156346 L10.0459642,4.81513889 L11,4.81513889 L11,1 L7.18385686,1 Z M7.12360197,9.33023876 C6.02696295,10.5112346 4.17312077,10.5805278 2.99011641,9.48388873 C1.80912053,8.38624546 1.73982741,6.53139905 2.83847493,5.34939893 C3.93511395,4.16840305 5.78895612,4.09910992 6.97095624,5.1967532 C8.15195212,6.29439647 8.220241,8.14823864 7.12360197,9.33023876 Z" id="形状"></path>
                </g>
            </g>
        </g>
    </g>
</svg>