<?xml version="1.0" encoding="UTF-8"?>
<svg width="12px" height="12px" viewBox="0 0 12 12" version="1.1" xmlns="http://www.w3.org/2000/svg" xmlns:xlink="http://www.w3.org/1999/xlink">
    <title>女</title>
    <g id="页面-2" stroke="none" stroke-width="1" fill="none" fill-rule="evenodd">
        <g id="3月票投喂上榜" transform="translate(-262.000000, -247.000000)" fill="#FF5380">
            <g id="人" transform="translate(16.000000, 232.000000)">
                <g id="编组-2备份" transform="translate(242.000000, 11.000000)">
                    <g id="编组-7" transform="translate(4.000000, 4.000000)">
                        <g id="编组-4" transform="translate(6.000000, 5.500000) rotate(-180.000000) translate(-6.000000, -5.500000) translate(1.000000, 0.000000)">
                            <path d="M6.22302255,3.06396124 C4.71665026,2.01452188 2.41792615,2.14909114 1.05114434,3.62031473 C-0.435142983,5.2220906 -0.330701169,7.74677056 1.27207895,9.23406213 C2.87385482,10.7213537 5.36840732,10.6118907 6.85670315,9.00911054 C8.22348495,7.53788693 8.3349565,5.37473633 6.98524692,3.77195621 L6.22302255,3.06396124 Z M6.12360197,8.33023876 C5.02696295,9.51123464 3.17312077,9.58052776 1.99011641,8.48388873 C0.809120531,7.38624546 0.739827408,5.53139905 1.83847493,4.34939893 C2.93511395,3.16840305 4.78895612,3.09910992 5.97095624,4.1967532 C7.15195212,5.29439647 7.220241,7.14823864 6.12360197,8.33023876 Z" id="形状" fill-rule="nonzero"></path>
                            <line x1="6.5" y1="3.5" x2="9.5" y2="0.5" id="直线" stroke="#FF5380" stroke-linecap="square"></line>
                            <line x1="6.5" y1="0.5" x2="9.5" y2="3.5" id="直线" stroke="#FF5380" stroke-linecap="square"></line>
                        </g>
                    </g>
                </g>
            </g>
        </g>
    </g>
</svg>