<?xml version="1.0" encoding="UTF-8"?>
<svg width="24px" height="24px" viewBox="0 0 24 24" version="1.1" xmlns="http://www.w3.org/2000/svg" xmlns:xlink="http://www.w3.org/1999/xlink">
    <title>设置</title>
    <g id="个人空间" stroke="none" stroke-width="1" fill="none" fill-rule="evenodd">
        <g id="1无月票投喂" transform="translate(-335.000000, -31.000000)" fill="#FFFFFF" fill-rule="nonzero">
            <g id="Combined-Shape" transform="translate(335.000000, 31.000000)">
                <path d="M12.65,3.68356805 C12.2477786,3.45134542 11.7522214,3.45134542 11.35,3.68356805 L5.12275866,7.27886751 C4.72053726,7.51109015 4.47275866,7.94025527 4.47275866,8.40470054 L4.47275866,15.5952995 C4.47275866,16.0597447 4.72053726,16.4889099 5.12275866,16.7211325 L11.35,20.3164319 C11.7522214,20.5486546 12.2477786,20.5486546 12.65,20.3164319 L18.8772413,16.7211325 C19.2794627,16.4889099 19.5272413,16.0597447 19.5272413,15.5952995 L19.5272413,8.40470054 C19.5272413,7.94025527 19.2794627,7.51109015 18.8772413,7.27886751 L12.65,3.68356805 Z M13.35,2.47113249 L19.5772413,6.06643195 C20.4126242,6.54874049 20.9272413,7.44008345 20.9272413,8.40470054 L20.9272413,15.5952995 C20.9272413,16.5599166 20.4126242,17.4512595 19.5772413,17.9335681 L13.35,21.5288675 C12.5146171,22.0111761 11.4853829,22.0111761 10.65,21.5288675 L4.42275866,17.9335681 C3.58737576,17.4512595 3.07275866,16.5599166 3.07275866,15.5952995 L3.07275866,8.40470054 C3.07275866,7.44008345 3.58737576,6.54874049 4.42275866,6.06643195 L10.65,2.47113249 C11.4853829,1.98882394 12.5146171,1.98882394 13.35,2.47113249 Z M12,8 C9.790861,8 8,9.790861 8,12 C8,14.209139 9.790861,16 12,16 C14.209139,16 16,14.209139 16,12 C16,9.790861 14.209139,8 12,8 Z M12,9.4 C13.4359403,9.4 14.6,10.5640597 14.6,12 C14.6,13.4359403 13.4359403,14.6 12,14.6 C10.5640597,14.6 9.4,13.4359403 9.4,12 C9.4,10.5640597 10.5640597,9.4 12,9.4 Z"></path>
            </g>
        </g>
    </g>
</svg>