<svg enable-background="new 0 0 84 84" viewBox="0 0 84 84" xmlns="http://www.w3.org/2000/svg"><g clip-rule="evenodd" fill-rule="evenodd"><path d="m10.1 16.4h63.7v61.7h-63.7z" fill="#32aaff"/><path d="m10.1 14.3h63.7v63.7h-63.7z" fill="#fff"/><path d="m26 28.4h48.2v48.2h-48.2z" fill="#d6eeff"/><path d="m28 4.6c1.3 0 2.3 1 2.3 2.3v13.3c0 1.3-1 2.3-2.3 2.3s-2.3-1-2.3-2.3v-4h-14v58.3h60.7v-58.1h-5.5c-1.3 0-2.3-1-2.3-2.3s1-2.3 2.3-2.3h7.9c1.3 0 2.3 1 2.3 2.3v63c0 1.3-1 2.3-2.3 2.3h-65.5c-1.3 0-2.3-1.1-2.3-2.4v-63c0-1.3 1-2.3 2.3-2.3h16.3v-4.7c.1-1.3 1.1-2.4 2.4-2.4zm28 0c1.3 0 2.3 1 2.3 2.3v13.3c0 1.3-1 2.3-2.3 2.3s-2.3-1-2.3-2.3v-4h-14.9c-1.3 0-2.3-1-2.3-2.3s1-2.3 2.3-2.3h14.9v-4.7c0-1.2 1-2.3 2.3-2.3z" fill="#4a4c57"/></g><path d="m27.6 41.9c.9.6 1.8.5 2.6-.4 1.1-1.3 2-2.5 2.9-3.6h1l.3 1c.2.6.3 1.1.4 1.6.3.8.9 1.1 1.9.9.9-.3 1.3-.8 1.1-1.7 0-.2-.2-.8-.5-1.8h2.5c.9-.1 1.4-.6 1.5-1.6 0-1-.5-1.6-1.4-1.7h-5.3l.3-.5c.4-.9.2-1.6-.6-2.1-1.1-.3-1.9-.1-2.4.6-1.2 2.3-2.6 4.6-4.4 6.7-.7 1.1-.7 1.9.1 2.6zm14.9 16h.3c.9-.3 1.3-1 1.3-2.1-.3-1.7-.8-3.3-1.5-4.8-.5-1-.9-1.5-1.3-1.6h7.5c1.1.2 1.5-.6 1.4-2.2 1.7 1 3.1 1.6 4.3 1.9 1.1.3 1.9-.1 2.4-1.2.3-1.1-.1-1.9-1.1-2.3-5.6-2.3-9.5-4.3-11.8-6 .3 0 .6-.5 1.1-1.4.1-.2.2-.3.3-.4h1.9c.1.3.2.6.3 1.2.2.7.3 1.2.4 1.4.3.9.9 1.2 2 1 .9-.3 1.3-.9 1.3-1.8-.2-.4-.4-1-.6-1.8h4.4c1.1-.1 1.7-.6 1.8-1.7-.1-1-.7-1.6-1.9-1.6h-8.1c.1-.1.1-.2.1-.3.1-.2.1-.3.1-.4.3-.9-.1-1.5-1-1.8-1-.2-1.8.1-2.3.9-.9 2.2-1.7 3.6-2.3 4.4v.1c-.4.5-.5.9-.3 1.2-.3 0-1.2.5-2.5 1.6l-.1.1c-2.1 1.6-5.6 3.5-10.4 5.6-1 .4-1.3 1.3-.8 2.5.6.9 1.4 1.1 2.5.6 1.6-.7 2.8-1.3 3.5-1.8-.2 1.5.2 2.2 1 2.1h5.3c-.9.3-1 1-.4 2.2.8 2 1.4 3.6 1.6 4.9.3 1 .9 1.5 2 1.3zm5.7-11.7h-12.5c3-1.6 5.1-2.8 6.1-3.8 2.1 1.4 4.2 2.7 6.4 3.8zm6.5 15.7c1-.1 1.6-.6 1.8-1.7-.1-1-.6-1.6-1.6-1.7h-4.9c1.5-2.2 2.7-4.5 3.6-6.6.2-1.1-.2-1.9-1-2.2-1.1-.3-1.9 0-2.4.9-1.4 3.5-2.9 6.1-4.4 7.9h-16.3c-1.3.1-1.9.6-2 1.7.1 1 .8 1.6 2 1.7zm-21.5-4.4c.5.7 1.3.8 2.3.3.8-.5 1.1-1.2.8-2.1-.3-.6-1.3-2.2-3-4.8-.1-.2-.1-.3-.1-.3-.7-.7-1.5-.8-2.4-.3-.9.6-1.1 1.3-.6 2.1.7.9 1.7 2.6 3 5.1z" fill="#32aaff"/></svg>