<?xml version="1.0" encoding="UTF-8"?>
<svg width="20px" height="16px" viewBox="0 0 20 16" version="1.1" xmlns="http://www.w3.org/2000/svg" xmlns:xlink="http://www.w3.org/1999/xlink">
    <title>编组 10@3x</title>
    <g id="页面-1" stroke="none" stroke-width="1" fill="none" fill-rule="evenodd">
        <g id="进入搜索备份" transform="translate(-296.000000, -58.000000)" stroke="#979797">
            <g id="编组-10" transform="translate(296.681077, 59.046045)">
                <path d="M12.4344051,3.68170717 C12.7105474,3.68170717 12.9344051,3.45784954 12.9344051,3.18170717 C12.9344051,2.90556479 12.7105474,2.68170717 12.4344051,2.68170717 C12.1582627,2.68170717 11.9344051,2.90556479 11.9344051,3.18170717 C11.9344051,3.45784954 12.1582627,3.68170717 12.4344051,3.68170717 Z" id="椭圆形" stroke-width="0.6" fill="#979797"></path>
                <path d="M15.5420466,6.68532521 L15.5420466,4 C15.5420466,1.790861 13.7511856,-4.05812251e-16 11.5420466,0 L4,0 C1.790861,4.05812251e-16 -2.705415e-16,1.790861 0,4 L0,8.54523334 C2.705415e-16,10.7543723 1.790861,12.5452333 4,12.5452333 L6.94623483,12.5452333 L6.94623483,12.5452333" id="路径" stroke-width="1.3" stroke-linecap="round" stroke-linejoin="round"></path>
                <path d="M7.82663211,3.67261667 C8.54460228,3.67261667 9.19460228,3.96363158 9.66510974,4.43413904 C10.1356172,4.9046465 10.4266321,5.5546465 10.4266321,6.27261667 C10.4266321,6.99058685 10.1356172,7.64058685 9.66510974,8.1110943 C9.19460228,8.58160176 8.54460228,8.87261667 7.82663211,8.87261667 C7.10866193,8.87261667 6.45866193,8.58160176 5.98815448,8.1110943 C5.51764702,7.64058685 5.22663211,6.99058685 5.22663211,6.27261667 C5.22663211,5.5546465 5.51764702,4.9046465 5.98815448,4.43413904 C6.45866193,3.96363158 7.10866193,3.67261667 7.82663211,3.67261667 Z" id="椭圆形" stroke-width="1.3"></path>
                <polyline id="路径-3" stroke-width="1.2" stroke-linecap="round" stroke-linejoin="round" points="9.19121525 14.3271862 11.5048349 8.95395546 13.6958421 14.3271862"></polyline>
                <line x1="9.88215299" y1="12.7820484" x2="13.0795765" y2="12.7820484" id="路径-4" stroke-width="1.2"></line>
                <line x1="15.2281813" y1="14.3271862" x2="15.2281813" y2="8.95395546" id="路径-5" stroke-width="1.2" stroke-linecap="round"></line>
                <path d="M15.2281813,8.95395546 L16.6871775,8.95395546 C17.4829252,8.95395546 18.1280062,9.59903642 18.1280062,10.3947841 C18.1280062,11.1905318 17.4829252,11.8356128 16.6871775,11.8356128 L15.2281813,11.8356128 L15.2281813,11.8356128" id="路径-6" stroke-width="1.2" stroke-linecap="round" stroke-linejoin="round"></path>
                <line x1="16.2553495" y1="11.8356128" x2="18.1280062" y2="14.3271862" id="路径-7" stroke-width="1.2" stroke-linecap="round" stroke-linejoin="round"></line>
            </g>
        </g>
    </g>
</svg>