<svg height="27" viewBox="0 0 29 27" width="29" xmlns="http://www.w3.org/2000/svg"><g fill="none" fill-rule="evenodd" transform="translate(.5)"><path d="m1 .5h26v26h-26z" fill="#d8d8d8" opacity="0" stroke="#979797"/><path d="m23.0150926 15.265298.9350949.748c-.2762453.385-.7931741.946-1.2447611 1.419h1.65l-.1370285 1.166h-3.025c.926633.352 2.1871678.858 3.0549225 1.243l-.4922484 1.287c-.9052911-.44-2.2337769-1.023-3.1856535-1.441l.5899794-1.089h-.55l-.2003718 1.705h-1.375l.0879051-.748c-.9193924.616-1.9488086 1.045-3.5437374 1.606h3.333l.0633434-.539 1.3892437.066-.0555871.473h3.597l-.1383212 1.177h-3.267c.6322659.704 1.8087026 1.364 3.6107991 1.661l-.5310538 1.43c-1.9910712-.561-3.3888006-1.21-4.1440412-2.178-.8895886.924-2.4443955 1.518-4.8034952 2.123l-.2564098-1.375c2.0336598-.363 3.3684668-.957 4.0342009-1.661h-3.223l.1383212-1.177h.187l-.4026297-1.254c1.2390743-.341 2.3124905-.77 3.2448338-1.309h-2.75l.1370285-1.166h1.782c-.329413-.473-.7461914-1.045-1.0509952-1.353l1.0086614-.814c.3882911.44 1.0665079 1.221 1.3590427 1.727l-.5137089.44h1.045l.2469098-2.101 1.3672437.066-.2391535 2.035h.99l-.3682183-.33c.4917088-.44 1.2279557-1.276 1.6458845-1.837zm-12.0269019-.154c.4551155 1.837 1.4569161 3.047 3.1413512 4.158l-.9426139 1.188c-.4160965-.297-.777193-.594-1.1272896-.891-.2133939 1.067-.5852294 2.827-.7294272 3.586-.3188101 1.496-.6170791 1.694-1.82642085 1.782l-.92075632.066-.23828798-1.342.78617088-.044c.63087817-.033.68780538-.143.84431962-.726.11575795-.517.43390985-2.101.49793515-2.365h-2.27700002l-.07307437.341c-.44686076 2.024-1.14879113 3.036-3.64496676 4.433l-.83355697-1.144c2.23610127-1.056 2.68700633-1.804 3.07181645-3.3l.07178165-.33h-1.177l.10600316-.902c-.32673259.253-.66446519.506-1.03649051.77l-.71643512-1.111c1.58580854-1.045 3.02986233-2.475 3.90255062-4.004l1.22624209.517c-.76529746 1.364-1.63093512 2.365-2.80457278 3.366h5.32399996c-.9267041-.913-1.5298955-1.958-1.9306218-3.509zm-.8832246-13.540596.7822897 10.9277344h-2.11498346l-.2643343-3.69140628h-2.25604992l-1.11745488 3.69140628h-2.08678367l3.30667836-10.9277344zm5.6431033 0-1.0561855 8.8476562h3.4890659l-.2483085 2.0800782h-5.6886487l1.304494-10.9277344zm6.7714006 0-1.0561855 8.8476562h3.4890659l-.2483085 2.0800782h-5.6886487l1.304494-10.9277344zm-14.3795016 2.05078125h-.33846493l-.93470971 3.10546875h1.4664561z" fill="#1c1d1f" fill-rule="nonzero"/></g></svg>