<svg height="14" viewBox="0 0 14 14" width="14" xmlns="http://www.w3.org/2000/svg"><path d="m16.5414516 5.5c.7577143 0 1.3817143.61657143 1.3817143 1.38171429 0 .76514285-.6165714 1.38171428-1.3817143 1.38171428-.7577142 0-1.3817142-.61657143-1.3817142-1.38171428 0-.052 0-.104.0074285-.156-.4457143-.11885715-.9062857-.17828572-1.3891428-.17828572-1.5005715 0-2.8674286.60914286-3.8554286 1.58971429.0891429.18571428.1411429.39371428.1411429.60914285.0074285.77257143-.6091429 1.39657139-1.38171432 1.39657139h-.02971429c-.208.5794286-.32685714 1.2034286-.32685714 1.8571429 0 3.016 2.44399995 5.4525714 5.45257145 5.4525714 1.4931428 0 2.8525714-.6017143 3.8331428-1.5748571-.104-.1931429-.1634285-.4085714-.1634285-.6462857 0-.7577143.6165714-1.3817143 1.3817142-1.3817143.0371429.0074286.0594286.0074286.0891429.0074286.208-.5794286.3268571-1.2034286.3268571-1.8571429 0-.4977143-.0668571-.9805714-.1931428-1.4337143h-.0074286c-.0148571-.0594286.0222857-.1262857.0817143-.1411428l.7874286-.208c.052-.0148572.1114285.0148571.1337143.0594285h.0074285c.1485715.5497143.2302857 1.1291429.2302857 1.7234286 0 .8171429-.1485714 1.5971429-.4234285 2.3102857.2228571.2451429.3565714.5645714.3565714.9211429 0 .7577143-.6165714 1.3817143-1.3817143 1.3817143-.1411428 0-.2748571-.0222858-.4085714-.0594286-1.1811429 1.2034286-2.8228572 1.9462857-4.6428572 1.9462857-3.588 0-6.49999995-2.912-6.49999995-6.5 0-.7948571.14114285-1.56.40857143-2.26571429-.25257143-.25257142-.40114286-.60171428-.40114286-.98057142 0-.77257143.624-1.39657143 1.39657143-1.39657143.16342857 0 .32685714.02971428.47542857.08171428 1.16628568-1.196 2.80799998-1.93885714 4.62057138-1.93885714.6685715 0 1.3148572.104 1.9165715.28971429.2302857-.17828572.5274285-.28971429.8394285-.28971429zm-5.512 7.3245714c-.6017142-2.1691428 1.3297143-4.1005714 3.4988572-3.49885711.9137143.25257142 1.6342857.98057141 1.8942857 1.89428571.6017143 2.1691429-1.3297143 4.1005714-3.4988571 3.4988571-.9211429-.2525714-1.6417143-.9805714-1.8942858-1.8942857z" fill="#90929b" transform="translate(-7 -5)"/></svg>