<svg height="12" viewBox="0 0 35 12" width="35" xmlns="http://www.w3.org/2000/svg"><path d="m1.824 12 1.52045894-8.328h-1.824l-1.52045894 8.328zm3.672 0 .46884469-2.568h1.02c2.352 0 3.41402441-.756 3.81057061-2.928.3658741-2.004-.2629564-2.832-2.75895636-2.832h-2.844l-1.52045894 8.328zm1.51612998-4.032h-.78l.5214254-2.856h.78c1.224 0 1.59027411.36 1.3952873 1.428-.2015594 1.104-.6807127 1.428-1.9167127 1.428zm4.82982942 5.292c1.6270193-2.076 2.2662051-3.408 2.827066-6.48l.2979574-1.632h7.572l.2650944-1.452h-3.564l-.0284325-1.356-1.623336.084.0797685 1.272h-3.936l-.591533 3.24c-.4666538 2.556-1.0140224 3.648-2.5765604 5.568zm15.8824731.096c2.4090112-1.824 3.4918477-4.14 4.0527594-5.832h.564c-.1521157.636-.7286619 2.808-.8369604 3.204-.1422071.516-.2950701.696-.7478335.744l-1.0255269.096.1821421 1.5.855336-.084c1.2960995-.132 1.6280163-.504 1.9768122-1.56l1.307598-5.256h-3.744c.8304894-.408 2.4228041-1.308 3.2675838-1.86l.2585218-1.416h-5.052l-.2585218 1.416h2.568c-.6930619.444-2.0398498 1.248-3.3995838 1.86l-.2475675 1.356h1.044c-.4457421.864-1.0562477 1.776-1.9219899 2.64l.0990863-1.2c-.195336.084-.426672.168-.6700081.252l.5104711-2.796h.912l.2585218-1.416h-.912l.4513178-2.472-1.4410457-.06-.4622721 2.532h-1.056l-.2585218 1.416h1.056l-.6002965 3.288c-.6230538.192-1.1893441.336-1.4882984.396l-.028331 1.404c1.0660081-.252 2.5140244-.756 3.3957502-1.116-.3045807.288-.6309705.564-1.0053604.84l.9254944.912c1.7574762-1.476 2.8212427-3.096 3.5314823-4.62h.732c-.4536589 1.236-1.4402965 3.288-3.6931087 4.848z" fill="#1c1d1f" transform="translate(.231216 -2)"/></svg>