<svg height="16" viewBox="0 0 47 16" width="47" xmlns="http://www.w3.org/2000/svg"><path d="m12.04 25.064c.368.0693333.688.016.96-.16s.488-.456.648-.84.24-.848.24-1.392v-9.536c0-.128.0426667-.2373333.128-.328s.192-.136.32-.136h9.76c.3413333-.0533333.5733333-.1573333.696-.312s.168-.32.136-.496-.1253333-.3386667-.28-.488-.3386667-.2506667-.552-.304-.4373333-.0373333-.672.048-.448.2826667-.64.592h-3.168c.032-.032.0533333-.064.064-.096.0746667-.288.032-.5253333-.128-.712s-.3786667-.3253333-.656-.416-.5893333-.1306667-.936-.12-.6693333.0693333-.968.176c.1813333.0106667.312.0426667.392.096s.1306667.1146667.152.184.024.1493333.008.24-.0293333.1786667-.04.264c-.0533333.1493333-.0426667.2773333.032.384h-3.312c-.1813333 0-.3146667-.0906667-.4-.272-.1386667-.2986667-.352-.496-.64-.592s-.5653333-.104-.832-.024-.4853333.2426667-.656.488-.208.5546667-.112.928c.0106667.0426667.024.08.04.112s.024.0746667.024.128v10.32c0 .512-.0586667.88-.176 1.104s-.3146667.3946667-.592.512c.4053333.3626667.792.5786667 1.16.648zm6.784-7.432c.1866667 0 .368-.04.544-.12s.3226667-.216.44-.408c.0426667-.0853333.0693333-.1813333.08-.288.224-.0213333.4-.0933333.528-.216s.2266667-.28.296-.472.1173333-.4026667.144-.632.0453333-.456.056-.68h.192v.704c0 .0746667-.0026667.128-.008.16s-.0186667.08-.04.144c-.1066667.288-.112.528-.016.72s.2373333.3253333.424.4.3866667.0853333.6.032.384-.1866667.512-.4c.0853333-.1493333.1146667-.288.088-.416s-.04-.2986667-.04-.512v-.832h.16c0 .2773333.0186667.5573333.056.84s.104.5306667.2.744c.0533333.1173333.1306667.2106667.232.28s.2106667.1093333.328.12.2373333-.0106667.36-.064.232-.1546667.328-.304c.064-.1066667.1253333-.192.184-.256s.1306667-.0586667.216.016c.064.0533333.1173333.08.16.08s.072-.016.088-.048.024-.0666667.024-.104-.0106667-.0666667-.032-.088c-.4266667-.1706667-.7733333-.3466667-1.04-.528s-.4853333-.4106667-.656-.688h.48c.288-.0213333.4986667-.0906667.632-.208s.2053333-.248.216-.392-.0266667-.2853333-.112-.424-.2-.24-.344-.304-.3066667-.072-.488-.024-.3573333.1786667-.528.392h-.432c.0213333-.1813333.032-.3306667.032-.448s-.0426667-.2186667-.128-.304c-.2133333-.192-.4346667-.3013333-.664-.328s-.4293333.0053333-.6.096-.2933333.224-.368.4-.0693333.3706667.016.584h-.96c-.0853333 0-.176-.0133333-.272-.04s-.1706667-.0826667-.224-.168c-.0426667.064-.0746667.1573333-.096.28s-.0266667.248-.016.376.0453333.2426667.104.344.152.1573333.28.168c0 .2773333-.0106667.536-.032.776s-.0746667.44-.16.6c-.1813333-.1173333-.3866667-.1493333-.616-.096s-.392.2453333-.488.576c-.032.128-.0506667.232-.056.312s-.0186667.1386667-.04.176-.064.0613333-.128.072-.1653333.0106667-.304 0c.0853333.1173333.208.2133333.368.288s.3333333.112.52.112zm-1.016-2.656.08.032c.072.032.12.064.144.096.032.0426667.0453333.088.04.136s-.0186667.1013333-.04.16-.0213333.1253333 0 .2c.0426667.1706667.1306667.2853333.264.344s.2666667.072.4.04.2453333-.104.336-.216.1146667-.248.072-.408c-.032-.1386667-.0986667-.2506667-.2-.336s-.216-.1413333-.344-.168-.2586667-.0293333-.392-.008-.2533333.064-.36.128zm-2.4 10.168c.576.2933333 1.2693333.2853333 2.08-.024.3413333-.128.672-.32.992-.576s.6026667-.5706667.848-.944c0 .4586667.1226667.8213333.368 1.088s.6986667.4426667 1.36.528c.48.0426667.9226667.0666667 1.328.072s.8533333-.0186667 1.344-.072c.672-.1066667 1.0986667-.272 1.28-.496s.1493333-.4426667-.096-.656c-.0853333-.0746667-.1253333-.2026667-.12-.384s.0213333-.3653333.048-.552.0426667-.3546667.048-.504-.0346667-.2293333-.12-.24c-.0533333-.0106667-.1093333.0053333-.168.048s-.088.1066667-.088.192c0 .1493333-.0053333.2906667-.016.424s-.0426667.256-.096.368-.1333333.2106667-.24.296-.256.1493333-.448.192c-.3413333.064-.6533333.1066667-.936.128s-.6106667.0106667-.984-.032c-.224-.032-.3973333-.1066667-.52-.224s-.184-.304-.184-.56v-.128c0-.1493333.016-.296.048-.44s-.0106667-.2906667-.128-.44-.2586667-.2453333-.424-.288-.3333333-.048-.504-.016l.08-.336h1.12c.0853333 0 .16.0106667.224.032s.1013333.0746667.112.16c.0106667.128.1333333.2213333.368.28s.488.072.76.04.52-.1146667.744-.248.336-.3226667.336-.568v-3.312c0-.192-.0906667-.3626667-.272-.512s-.3866667-.2533333-.616-.312-.4586667-.0586667-.688 0-.392.2-.488.424c-.032.0533333-.088.096-.168.128s-.1626667.048-.248.048h-3.904c-.1173333 0-.224-.0053333-.32-.016s-.1546667-.0533333-.176-.128c-.0213333-.1706667-.096-.3013333-.224-.392s-.2746667-.1466667-.44-.168-.3413333-.0133333-.528.024-.352.1013333-.496.192-.248.2-.312.328-.064.2666667 0 .416c.0213333.0213333.032.08.032.176v3.232c0 .2666667.1093333.456.328.568s.4613333.1706667.728.176.5146667-.032.744-.112.3493333-.184.36-.312c.0106667-.0533333.0506667-.0906667.12-.112s.152-.032.248-.032h.672c-.1386667.576-.3626667 1.0506667-.672 1.424s-.656.6453333-1.04.816-.7786667.2373333-1.184.2-.768-.1893333-1.088-.456c.2346667.768.64 1.2986667 1.216 1.592zm2.912-5.912h-1.04c-.1706667 0-.256-.064-.256-.192v-.112c0-.16.1066667-.24.32-.24h.976zm3.248 0h-1.264v-.544h1.2c.1173333 0 .192.0186667.224.056s.048.0986667.048.184v.112c0 .0533333-.0133333.0986667-.04.136s-.0826667.056-.168.056zm-3.264 1.36h-.96c-.2133333 0-.32-.08-.32-.24v-.128c0-.096.0853333-.144.256-.144h1.04v.256c0 .0533333-.0026667.0986667-.008.136s-.008.0773333-.008.12zm3.2 0h-1.216c0-.0853333.0026667-.1706667.008-.256l.006-.128.002-.128h1.264c.1386667 0 .208.064.208.192v.08c0 .0746667-.016.1333333-.048.176s-.1066667.064-.224.064zm.2791111 2.0666667c-.018963.032-.0426667.0604444-.0711111.0853333-.0426667.0373333-.112.0826667-.208.136-.0746667.0426667-.128.1146667-.16.216s-.0373333.2053333-.016.312.0746667.2053333.16.296.2133333.1466667.384.168c.2666667.0213333.5146667-.0293333.744-.152s.4026667-.28.52-.472v.048c0 .16.048.2746667.144.344s.2026667.1013333.32.096.224-.0533333.32-.144.144-.216.144-.376c0-.0533333-.0186667-.1253333-.056-.216s-.1013333-.1733333-.192-.248-.2106667-.1333333-.36-.176-.336-.048-.56-.016c.1066667.0426667.176.0986667.208.168s.0533333.1413333.064.216c-.192.1386667-.416.1973333-.672.176.0533333-.0426667.1066667-.096.16-.16s.096-.144.128-.24c.0426667-.16.0346667-.288-.024-.384s-.1306667-.152-.216-.168-.1706667.008-.256.072-.1333333.176-.144.336c-.0213333.16-.0746667.2933333-.16.4-.16-.1173333-.2186667-.24-.176-.368l-.001.003zm-3.9751111-7.6826667v-.208h.608c.288-.0213333.4986667-.0853333.632-.192s.2053333-.2293333.216-.368-.024-.272-.104-.4-.1866667-.224-.32-.288-.2826667-.08-.448-.048-.3226667.144-.472.336h-.08c.032-.1706667.0506667-.3066667.056-.408s-.0453333-.1946667-.152-.28c-.2026667-.192-.4106667-.304-.624-.336s-.4026667-.008-.568.072-.2933333.2053333-.384.376-.1093333.3626667-.056.576h-1.344c-.0853333 0-.1733333-.0133333-.264-.04s-.168-.0826667-.232-.168c-.0426667.064-.0746667.16-.096.288s-.024.2586667-.008.392.0586667.248.128.344.168.144.296.144h.304c-.0213333.4586667-.104.8373333-.248 1.136s-.3813333.4213333-.712.368c.192.1493333.408.2533333.648.312s.4693333.04.688-.056.4106667-.2826667.576-.56.2746667-.6773333.328-1.2h.096v.64c0 .0853333-.0026667.144-.008.176s-.0186667.0853333-.04.16c-.096.288-.096.5253333 0 .712s.2373333.3173333.424.392.384.0853333.592.032.376-.1813333.504-.384c.096-.1493333.1306667-.288.104-.416s-.04-.2986667-.04-.512zm11.056 10.184c.5333333.24 1.0453333.28 1.536.12s.9413333-.4853333 1.352-.976.7706667-1.0773333 1.08-1.76.5493333-1.432.72-2.248.256-1.6293333.256-2.44v-2.336h3.904c.0853333.032.1626667.0853333.232.16s.104.1653333.104.272v5.616c0 .32-.0666667.5786667-.2.776s-.3173333.344-.552.44-.5173333.144-.848.144-.6933333-.0373333-1.088-.112c.192.0533333.3786667.136.56.248s.3413333.2373333.48.376.2373333.2746667.296.408.0613333.2426667.008.328c-.064.1173333-.0826667.2373333-.056.36s.0853333.232.176.328.2053333.1706667.344.224.288.0746667.448.064c.3306667-.0213333.6586667-.1066667.984-.256s.6106667-.3653333.856-.648.4453333-.6346667.6-1.056.232-.9146667.232-1.48v-5.52c0-.0746667.016-.1386667.048-.192s.0693333-.1066667.112-.16c.1066667-.1493333.176-.2853333.208-.408s.0586667-.296.08-.52c.032-.352-.0693333-.632-.304-.84s-.5093333-.336-.824-.384-.6133333-.0186667-.896.088-.456.2933333-.52.56c-.032.1386667-.144.208-.336.208h-4.048v-1.664c0-.224.0133333-.4213333.04-.592s.0453333-.3253333.056-.464.0053333-.2613333-.016-.368-.08-.208-.176-.304c-.2666667-.288-.5706667-.44-.912-.456s-.6453333.0426667-.912.176-.4613333.3173333-.584.552-.104.464.056.688c.1173333.2133333.176.4213333.176.624v1.808h-3.072c-.1066667 0-.208-.0106667-.304-.032s-.1813333-.08-.256-.176c-.0426667.064-.0746667.1626667-.096.296s-.0213333.264 0 .392.0666667.2426667.136.344.1733333.152.312.152h3.28v1.28c0 1.0453333-.104 2.0293333-.312 2.952s-.5013333 1.712-.88 2.368-.8293333 1.1306667-1.352 1.424-1.104.328-1.744.104c.544.768 1.0826667 1.272 1.616 1.512zm26.6-9.608c.2826667 0 .5386667-.0746667.768-.224s.344-.3733333.344-.672v-.288c0-.0853333.0133333-.1733333.04-.264s.0506667-.168.072-.232c.1066667-.2346667.1386667-.4506667.096-.648s-.128-.3653333-.256-.504-.288-.2506667-.48-.336-.384-.136-.576-.152-.3706667.0106667-.536.08-.2906667.1786667-.376.328c-.0426667.096-.0853333.1813333-.128.256s-.1066667.112-.192.112h-3.28v-.304c0-.1386667.016-.2933333.048-.464s.056-.3413333.072-.512.016-.3306667 0-.48-.072-.2773333-.168-.384c-.2773333-.2986667-.5786667-.464-.904-.496s-.616.0186667-.872.152-.4533333.3226667-.592.568-.16.496-.064.752c.0533333.128.1066667.24.16.336s.08.2026667.08.32v.512h-3.072c-.0853333 0-.144-.0293333-.176-.088s-.064-.1306667-.096-.216c-.096-.192-.2746667-.328-.536-.408s-.5226667-.0826667-.784-.008-.4826667.224-.664.448-.24.544-.176.96c.0106667.0426667.0213333.08.032.112s.016.0693333.016.112v.736c0 .32.1146667.552.344.696s.4826667.2106667.76.2.5306667-.0933333.76-.248.344-.3706667.344-.648v-.24c0-.128.0346667-.2373333.104-.328s.1466667-.136.232-.136h8.208c.096 0 .176.0453333.24.136s.096.2.096.328v.24c0 .2986667.1146667.5226667.344.672s.4853333.224.768.224zm-2.584-2.664c.3413333.0266667.6693333-.056.984-.248s.5306667-.544.648-1.056c.0426667-.224.0213333-.4213333-.064-.592s-.2026667-.3013333-.352-.392-.32-.1466667-.512-.168-.368-.0026667-.528.056-.2933333.1626667-.4.312-.1546667.3413333-.144.576c.0106667.192-.0186667.3413333-.088.448s-.1546667.1786667-.256.216-.2133333.04-.336.008-.232-.0906667-.328-.176c.032.256.184.4826667.456.68s.5786667.3093333.92.336zm-6.824-.152c.2506667.128.5093333.1653333.776.112s.4933333-.184.68-.392.248-.4773333.184-.808c-.0533333-.2773333-.176-.496-.368-.656s-.4106667-.2693333-.656-.328-.5013333-.0693333-.768-.032-.5013333.1093333-.704.216c.2133333.096.3493333.184.408.264s.08.1626667.064.248-.0426667.1813333-.08.288-.04.2346667-.008.384c.064.3413333.2213333.576.472.704zm5.888 5.488c.2506667.0746667.5226667.088.816.04s.5573333-.16.792-.336.352-.408.352-.696v-1.28c0-.0533333.0186667-.1173333.056-.192s.072-.1386667.104-.192c.16-.3306667.16-.608 0-.832s-.3813333-.3866667-.664-.488-.568-.1333333-.856-.096-.48.1466667-.576.328c-.0426667.0853333-.0986667.1573333-.168.216s-.1626667.088-.28.088h-3.296c-.096 0-.184-.0186667-.264-.056s-.1306667-.0986667-.152-.184c-.0853333-.224-.2586667-.3626667-.52-.416s-.5226667-.0426667-.784.032-.4746667.2053333-.64.392-.184.4026667-.056.648c.0213333.032.0293333.0773333.024.136s-.008.104-.008.136v1.792c0 .288.1173333.5093333.352.664s.4933333.2506667.776.288.544.0213333.784-.048.3706667-.184.392-.344c.0106667-.0533333.056-.12.136-.2s.1573333-.12.232-.12h2.72c.1813333 0 .2826667.096.304.288.032.2133333.1733333.3573333.424.432zm-.6-1.632h-2.96c-.2026667 0-.304-.1013333-.304-.304v-.288c0-.2026667.1013333-.304.304-.304h2.96c.2026667 0 .304.1013333.304.304v.288c0 .2026667-.1013333.304-.304.304zm-5.84 6.184c.224.016.44-.0186667.648-.104s.3866667-.2186667.536-.4.2346667-.416.256-.704c0-.1173333-.0106667-.1946667-.032-.232s-.032-.0986667-.032-.184v-1.232c0-.128.0293333-.2373333.088-.328s.152-.136.28-.136h5.168c.128 0 .24.0453333.336.136s.144.2.144.328v.544c0 .1813333-.024.312-.072.392s-.088.184-.12.312c-.0746667.2453333-.072.4586667.008.64s.2053333.3253333.376.432.3626667.1733333.576.2.4213333.0053333.624-.064.376-.1866667.52-.352.2266667-.392.248-.68c.0106667-.1173333.0026667-.1946667-.024-.232s-.04-.0986667-.04-.184v-1.056c0-.0746667.0186667-.1386667.056-.192s.072-.1066667.104-.16c.192-.2986667.248-.5653333.168-.8s-.224-.416-.432-.544-.4373333-.192-.688-.192-.4506667.0853333-.6.256c-.1066667.1173333-.1893333.192-.248.224s-.1466667.048-.264.048h-6.128c-.0746667 0-.1466667-.0106667-.216-.032s-.1253333-.064-.168-.128c-.1173333-.1386667-.2986667-.2213333-.544-.248s-.4853333 0-.72.08-.432.216-.592.408-.2133333.4426667-.16.752c.0213333.1173333.0533333.208.096.272s.064.1546667.064.272v.944c0 .1706667-.0293333.2986667-.088.384s-.104.192-.136.32c-.0746667.256-.0693333.4746667.016.656s.216.32.392.416.376.152.6.168zm-.456 2.504c.496.1493333 1.04.1813333 1.632.096s1.1626667-.2746667 1.712-.568 1.032-.6853333 1.448-1.176.6933333-1.072.832-1.744c.0106667-.0853333.04-.2.088-.344s.0906667-.296.128-.456.056-.3173333.056-.472-.0426667-.2853333-.128-.392c-.2133333-.2666667-.448-.4293333-.704-.488s-.496-.0426667-.72.048-.408.24-.552.448-.2106667.4453333-.2.712c.0213333.3946667-.0773333.7546667-.296 1.08s-.5013333.608-.848.848-.7333333.432-1.16.576-.8373333.224-1.232.24-.7466667-.0373333-1.056-.16-.5226667-.328-.64-.616c-.0213333.6506667.1226667 1.1706667.432 1.56s.712.6586667 1.208.808zm9.344.216c.2826667.016.5306667-.0586667.744-.224s.3626667-.3973333.448-.696.0373333-.6133333-.144-.944c-.1493333-.256-.3946667-.4693333-.736-.64s-.7253333-.288-1.152-.352-.872-.072-1.336-.024-.8933333.1626667-1.288.344c.3413333 0 .656.0853333.944.256s.5466667.368.776.592.4266667.4506667.592.68.296.4026667.392.52c.224.3093333.4773333.472.76.488z" fill="#8122d6" transform="translate(-10 -10)"/></svg>