<svg height="24" viewBox="0 0 24 24" width="24" xmlns="http://www.w3.org/2000/svg"><g fill="none" fill-rule="evenodd"><path d="m0 0h24v24h-24z" fill="#d8d8d8" opacity="0"/><path d="m13.8786797 2.70710678c1.1715728-1.17157287 3.0710678-1.17157287 4.2426406 0l2.1715729 2.17157288c1.1715729 1.17157287 1.1715729 3.07106781 0 4.24264068l-11.58578642 11.58578646c-.18753638.1875364-.44189029.2928932-.70710678.2928932h-5c-.55228475 0-1-.4477153-1-1v-5c0-.2652165.10535684-.5195704.29289322-.7071068zm6.6213203 16.29289322c.5522847 0 1 .4477153 1 1 0 .5128358-.3860402.9355072-.8833789.9932723l-.1166211.0067277h-5.5c-.5522847 0-1-.4477153-1-1 0-.5128358.3860402-.9355072.8833789-.9932723l.1166211-.0067277zm-8.001-12.08657288-8.499 8.50057288v3.586h3.584l8.501-8.5005729zm4.2081068-2.79210678c-.3905243-.39052429-1.0236893-.39052429-1.4142136 0l-1.3788932 1.37810678 3.585 3.585 1.3796797-1.37732034c.3304436-.33044363.3812811-.83461225.1525124-1.21850973l-.0693238-.10149649-.0831886-.09420734z" fill="#fff" fill-rule="nonzero"/></g></svg>