<svg height="16" viewBox="0 0 16 16" width="16" xmlns="http://www.w3.org/2000/svg">
  <path
    d="m4.75 12.4957567h.9v-7.05000004h-.9zm5.05-8.00000004h3.75c.45 0 .9.2 1.2.6.25.35.3.85.2 1.25l-1.6 5.30000004c-.25 1-1.1 1.7-2.15 1.75h-8.4c-.65.05-1.25-.3-1.55-.85-.15-.3-.25-.6-.25-.9v-5.35000004c0-.65.35-1.25.9-1.55.3-.15.6-.2.9-.25h2.25l2.45-3.05c.5-.55 1.4-.6 1.95-.1.3.3.5.7.45 1.15zm3.65.9h-4.65l.1-1.05.15-1.85c.05-.25-.1-.5-.35-.55-.15-.05-.35 0-.45.15l-2.3 2.95-.3.4h-3c-.1 0-.2.05-.3.1-.3.15-.45.45-.45.75v5.35000004c0 .15.05.35.15.45.15.3.45.45.75.4h8.4c.2 0 .35-.05.5-.15.4-.2.7-.55.75-1l1.6-5.25000004.9.2-.9-.2c.05-.15 0-.35-.05-.5-.15-.1-.35-.2-.55-.2l.1-.9z"
    fill="#90929b" />
</svg>
