<svg height="13" viewBox="0 0 16 13" width="16" xmlns="http://www.w3.org/2000/svg"><path d="m169.983513 508.927255c-.070028.108206-.107853.234916-.107853.365168l-.000616 2.589234-.258311.055249c-4.60585 1.017807-6.96376 3.728319-6.96376 8.05418 0 .393095.470076.595657.755801.325684l.240194-.222086c1.695829-1.533854 3.695648-2.624516 6.006158-2.802598l.212918-.012429-.000132 1.651574.004457.877123c.002367.37121.305124.670201.676282.66794.161117-.001056.316512-.059907.437874-.165882l6.014101-5.251606c.2796-.244151.308337-.668734.064186-.948333l-.063641-.06371-6.010785-5.260124c-.279337-.244451-.703951-.216171-.948402.063165zm.787531.858402 5.447 4.767-5.453 4.76-.001282-1.783177.007939-.701534c.005368-.251153-.196759-.457645-.447969-.457645l-.355761.006445c-2.355986.08561-4.397411 1.017552-6.154373 2.404798l-.212554.171113.003776-.028464c.37168-3.41962 2.606463-5.474567 6.798485-6.23106.213324-.038496.368498-.22418.368498-.440948z" fill="#90929b" transform="translate(-162 -508)"/></svg>