<?xml version="1.0" encoding="UTF-8"?>
<svg width="20px" height="20px" viewBox="0 0 20 20" version="1.1" xmlns="http://www.w3.org/2000/svg" xmlns:xlink="http://www.w3.org/1999/xlink">
    <title>形状@1x</title>
    <g id="【火野丽】评论区增加投票功能" stroke="none" stroke-width="1" fill="none" fill-rule="evenodd">
        <g id="讨论区-投票入口" transform="translate(-70.000000, -280.000000)" fill="#32AAFF" fill-rule="nonzero">
            <g id="4.-特殊模块/详情页/列表/评论模块" transform="translate(0.000000, 104.000000)">
                <g id="1备份" transform="translate(0.000000, 40.000000)">
                    <g id="投票" transform="translate(70.000000, 136.000000)">
                        <path d="M4.3144425,19.1190015 L0.624981429,19.1190015 C0.279831518,19.1190015 0,18.83917 0,18.4940201 L0,5.26533029 C0,4.92018038 0.279831518,4.64034886 0.624981429,4.64034886 L4.3144425,4.64034886 C4.65959241,4.64034886 4.93942393,4.92018038 4.93942393,5.26533029 L4.93942393,18.4940201 C4.93942393,18.83917 4.65959241,19.1190015 4.3144425,19.1190015 Z M1.24996286,17.8690387 L3.68946107,17.8690387 L3.68946107,5.89033458 L1.24996286,5.89033458 L1.24996286,17.8690387 Z M11.8883828,19.1190015 L8.19892172,19.1190015 C7.85377181,19.1190015 7.57394029,18.83917 7.57394029,18.4940201 L7.57394029,9.29660451 C7.57394029,8.9514546 7.85377181,8.67162308 8.19892172,8.67162308 L11.8883828,8.67162308 C12.2335327,8.67162308 12.5133642,8.9514546 12.5133642,9.29660451 L12.5133642,18.4940201 C12.5133642,18.83917 12.2335327,19.1190015 11.8883828,19.1190015 Z M8.82390315,17.8690387 L11.2634014,17.8690387 L11.2634014,9.92158594 L8.82390315,9.92158594 L8.82390315,17.8690387 L8.82390315,17.8690387 Z M19.3259269,19.1190015 L15.6361459,19.1190015 C15.290996,19.1190015 15.0111645,18.83917 15.0111645,18.4940201 L15.0111645,0.624981451 C15.0111645,0.27983154 15.290996,0 15.6361459,0 L19.3259269,0 C19.6710768,0 19.9509083,0.279831518 19.9509083,0.624981451 L19.9509083,18.494043 C19.9509083,18.83917 19.671054,19.1190015 19.3259269,19.1190015 Z M16.2611273,17.8690387 L18.7009455,17.8690387 L18.7009455,1.24996288 L16.2611273,1.24996288 L16.2611273,17.8690387 L16.2611273,17.8690387 Z" id="形状"></path>
                    </g>
                </g>
            </g>
        </g>
    </g>
</svg>