<svg height="16" viewBox="0 0 16 16" width="16" xmlns="http://www.w3.org/2000/svg"><path d="m4.75 10.0665868h.9v-7.04999996h-.9zm5.05.9505.15 2c.05.4495-.15.8495-.45 1.15-.55.5-1.45.4495-1.95-.1005l-2.45-3.0495h-2.3c-.3 0-.6-.1-.9-.25-.55-.3005-.9-.90049996-.9-1.55049996v-5.3495c0-.3005.1-.6005.25-.9005.3-.5995.9-.95 1.55-.8495h8.4c1.05.05 1.9.75 2.15 1.75l1.6 5.3c.1.4495.05.89949996-.2 1.24999996-.3.35-.75.6-1.2.6zm3.65-.9005.1.9005-.1-.9005c.2 0 .4-.05.55-.19949996.1-.15.1-.3505.05-.5l.9-.2005-.9.2005-1.55-5.25c-.1-.4505-.4-.8-.75-1-.15-.1005-.35-.1505-.5-.1505h-8.4c-.35-.05-.65.1005-.8.4005-.1.1495-.1.2995-.15.45v5.3495c0 .3005.15.6.45.75.1.05049996.2.09999996.3.09999996h3l.3.4 2.3 2.9505c.1.1495.3.1995.45.1495.25-.0495.4-.2995.35-.5495l-.15-1.85-.1-1.0505z" fill="#90929b"/></svg>