<svg height="28" viewBox="0 0 28 28" width="28" xmlns="http://www.w3.org/2000/svg"><g fill="none" fill-rule="evenodd"><path d="m8.6665 9.45465h17v16c0 .5522847-.4477153 1-1 1h-16z" fill="#1b334f"/><path d="m9.3339 1.54535c.43 0 .777.349.777.778v4.449c0 .429-.347.777-.777.777s-.778-.348-.778-.777l-.0004-1.318-4.666.0003v19.444h20.222v-19.444h-1.843c-.431 0-.778-.348-.778-.778s.347-.778.778-.778h2.621c.43 0 .777.348.777.778v21c0 .43-.347.778-.777.778h-21.778c-.43 0-.778-.348-.778-.778v-21c0-.43.348-.778.778-.778l5.444-.0003.0004-1.575c0-.429.348-.778.778-.778zm9.333 0c.43 0 .778.349.778.778v4.449c0 .429-.348.777-.778.777s-.777-.348-.777-.777l-.0004-1.318-4.9546.0003c-.43 0-.778-.348-.778-.778s.348-.778.778-.778l4.9546-.0003.0004-1.575c0-.429.347-.778.777-.778z" fill="#bdc0ce"/><path d="m12.6466258 21.0918c-.289 0-.565-.115-.771-.319l-4.668-4.67c-.426-.426-.426-1.115 0-1.541.424-.425 1.114-.425 1.54 0l3.899 3.901 6.036-6.037c.426-.425 1.115-.425 1.54 0 .426.426.426 1.115 0 1.54l-6.805 6.807c-.206.204-.482.319-.771.319" fill="#39a0e9"/></g></svg>